<svg id="weiß" xmlns="http://www.w3.org/2000/svg" viewBox="0 0 667.6303 98.3407"><title>bayern</title><path d="M43.197,2.0171A100.6069,100.6069,0,0,0,24.9305,0C9.1058,0,.1848,7.1146.1848,18.9023c0,23.1534,34.7286,22.834,34.7286,39.4013,0,6.9024-6.7969,8.921-11.47,8.921-8.2838,0-16.4619-4.3536-22.09-7.859V72.3222c2.6544.7441,11.0449,3.293,19.86,3.293,15.7178,0,27.6123-5.8418,27.6123-21.772,0-22.7271-35.7906-23.5766-35.7906-37.9146,0-4.5645,4.1412-7.5395,9.983-7.5395,8.496,0,17.6293,3.7163,20.1781,4.9908V2.0171Z" transform="translate(-0.1848)" fill="#fff"/><polygon points="59.131 74.446 73.043 74.446 73.043 1.167 59.131 1.167 59.131 74.446 59.131 74.446" fill="#fff"/><path d="M142.2323,31.3285H115.1517v8.814h13.169V65.6308c-1.169,1.4884-4.4606,2.9737-8.6031,2.9737-15.8232,0-19.1162-14.9737-19.1162-32.6032,0-9.77,0-28.9936,14.8682-28.9936,10.1952,0,10.7269,9.0279,11.0449,13.3828h15.0806C141.5951,6.372,131.4,0,115.47,0,92.8479,0,85.9457,15.6108,85.9457,37.169c0,21.454,9.558,38.4462,32.6044,38.4462a46.08,46.08,0,0,0,23.6822-6.7969v-37.49Z" transform="translate(-0.1848)" fill="#fff"/><polygon points="155.613 74.446 169.526 74.446 169.526 40.249 195.015 40.249 195.015 74.446 208.925 74.446 208.925 1.167 195.015 1.167 195.015 31.86 169.526 31.86 169.526 1.167 155.613 1.167 155.613 74.446 155.613 74.446" fill="#fff"/><polygon points="234.296 74.446 248.209 74.446 248.209 9.557 265.837 9.557 265.837 1.167 216.667 1.167 216.667 9.557 234.296 9.557 234.296 74.446 234.296 74.446" fill="#fff"/><path d="M292.7771,24.7442a41.2859,41.2859,0,0,0-11.8944-2.0186c-12.6372,0-17.735,6.9037-17.735,14.55,0,14.4435,22.8326,16.25,22.8326,25.17,0,3.1846-2.5488,6.3721-8.7086,6.3721-5.9472,0-10.9393-3.1875-14.0185-5.3115v9.8774a40.64,40.64,0,0,0,13.4883,2.231c10.7256,0,19.2217-4.462,19.2217-15.293,0-16.1426-23.1519-16.9922-23.1519-26.127,0-3.8232,3.8232-5.3085,7.2218-5.3085,5.0976,0,9.1332,2.5488,12.744,4.9907V24.7442Z" transform="translate(-0.1848)" fill="#fff"/><polygon points="306.688 74.446 317.414 74.446 317.414 1.167 306.688 1.167 306.688 74.446 306.688 74.446" fill="#fff"/><path d="M451.9193,97.1733h10.7269V67.4383h.2124c1.487,2.76,4.566,8.1769,13.0635,8.1769,13.4868,0,19.1148-11.2587,19.1148-26.4449,0-14.55-4.459-26.4447-19.1148-26.4447-8.0727,0-11.5765,6.0541-13.0635,9.4525h-.2124V23.8944H451.9193V97.1733ZM463.071,49.17c0-8.3891,1.2746-19.6479,10.0884-19.6479,8.6031,0,10.1954,11.2588,10.1954,19.6479,0,8.814-1.8047,20.2838-10.1954,20.2838-9.2386,0-10.0884-11.47-10.0884-20.2838Z" transform="translate(-0.1848)" fill="#fff"/><path d="M507.5466,74.4462h10.7256V23.8944H507.5466V74.4462Zm-.4261-62.6586H518.697V1.1674H507.1205v10.62Z" transform="translate(-0.1848)" fill="#fff"/><path d="M534.6053,74.4462h10.7256V53.5254c0-6.2667,2.9736-22.8341,13.5937-22.8341,5.417,0,6.372,5.7349,6.372,12.107V74.4462h10.7271V37.4881c0-7.327-3.8232-14.7625-12.7441-14.7625-11.1519,0-16.0371,9.4525-17.7363,13.1688h-.2124v-12H534.6053V74.4462Z" transform="translate(-0.1848)" fill="#fff"/><path d="M631.1985,23.8944H620.4714v8.2837h-.2109c-1.3813-3.3984-4.8867-9.4525-13.1689-9.4525-14.55,0-19.0107,11.578-19.0107,25.9129,0,14.8683,5.6278,25.8077,19.0107,25.8077,8.7085,0,11.6821-4.5674,13.1689-7.0079h.2109v5.5211c0,11.1519-1.2744,19.0094-12.5317,19.0094-6.9023,0-12.85-4.1413-16.248-6.1583V96.3237a54.1791,54.1791,0,0,0,14.55,2.017c20.2837,0,24.9565-11.15,24.9565-25.3813V23.8944ZM599.763,48.6385c0-8.1766,1.5923-19.1161,10.1954-19.1161,8.9208,0,10.1952,11.2588,10.1952,19.6479s-.85,19.1163-10.1952,19.1163c-8.4962,0-10.1954-11.0449-10.1954-19.6481Z" transform="translate(-0.1848)" fill="#fff"/><path d="M372.1248,24.6269a34.2635,34.2635,0,0,1,2.124,12.1318c0,19.0606-16.5658,24.6592-26.5488,24.6592V23.4286c-9.77,0-20.7085,3.8643-20.7085,24.3926,0,19.9967,10.1953,27.0615,24.2124,27.0615,20.3907,0,28.6743-14.13,28.6743-31.7256a54.4883,54.4883,0,0,0-2.8682-18.53Zm-29.31,36.3925c-2.8667-.2666-11.3627-2.266-11.3627-12.6634,0-9.9977,7.434-11.732,11.3627-11.732V61.0194Z" transform="translate(-0.1848)" fill="#fff"/><path d="M434.7249,24.6269a34.2635,34.2635,0,0,1,2.124,12.1318c0,19.0606-16.5658,24.6592-26.5488,24.6592V23.4286c-9.77,0-20.7085,3.8643-20.7085,24.3926,0,19.9967,10.1953,27.0615,24.2124,27.0615,20.3907,0,28.6729-14.13,28.6729-31.7256a54.5277,54.5277,0,0,0-2.8668-18.53Zm-29.31,36.3925c-2.8682-.2666-11.3627-2.266-11.3627-12.6634,0-9.9977,7.4325-11.732,11.3627-11.732V61.0194Z" transform="translate(-0.1848)" fill="#fff"/><path d="M667.8152,15.3031A11.653,11.653,0,1,0,656.1624,27.019a11.68,11.68,0,0,0,11.6528-11.7159Zm-2.6454,0a9.003,9.003,0,1,1-17.984,0,9,9,0,1,1,17.984,0Zm-13.1016-6.646V21.791h2.5825v-5.48a1.5347,1.5347,0,0,1,.4086.0952c.4718.22.8819.85,2.174,3.2109.5038.9462.7236,1.292,1.2274,2.1739h3.1172s-2.3921-4.1573-3.1479-5.1022a2.9468,2.9468,0,0,0-.5361-.5668c1.6069-.0322,2.9281-1.6377,2.9281-3.6212a3.6451,3.6451,0,0,0-3.873-3.8437Zm2.5825,2.111h.9434a4.3092,4.3092,0,0,1,1.4809.1888,1.5193,1.5193,0,0,1,.9449,1.6056,1.8622,1.8622,0,0,1-.504,1.3242c-.3456.3135-.8511.4393-1.9848.4393h-.88V10.7681Z" transform="translate(-0.1848)" fill="#fff"/></svg>