<svg id="Ebene_1" data-name="Ebene 1" xmlns="http://www.w3.org/2000/svg" viewBox="0 0 425.0781 240.7676"><title>frankfurt</title><polygon points="361.197 69.164 371.838 69.164 371.838 154.139 361.197 154.139 361.197 69.164 361.197 69.164" fill="#ffffff"/><polygon points="55.461 74.484 66.102 74.484 66.102 159.459 55.461 159.459 55.461 74.484 55.461 74.484" fill="#ffffff"/><polygon points="68.2 79.805 78.841 79.805 78.841 164.779 68.2 164.779 68.2 79.805 68.2 79.805" fill="#ffffff"/><polygon points="80.938 47.883 91.58 47.883 91.58 132.857 80.938 132.857 80.938 47.883 80.938 47.883" fill="#ffffff"/><polygon points="93.678 58.523 104.318 58.523 104.318 143.498 93.678 143.498 93.678 58.523 93.678 58.523" fill="#ffffff"/><polygon points="106.417 26.602 117.058 26.602 117.058 111.576 106.417 111.576 106.417 26.602 106.417 26.602" fill="#ffffff"/><polygon points="119.156 58.523 129.797 58.523 129.797 143.498 119.156 143.498 119.156 58.523 119.156 58.523" fill="#ffffff"/><polygon points="131.894 74.484 142.536 74.484 142.536 159.459 131.894 159.459 131.894 74.484 131.894 74.484" fill="#ffffff"/><polygon points="144.634 74.484 155.275 74.484 155.275 159.459 144.634 159.459 144.634 74.484 144.634 74.484" fill="#ffffff"/><polygon points="157.373 37.242 168.014 37.242 168.014 122.217 157.373 122.217 157.373 37.242 157.373 37.242" fill="#ffffff"/><polygon points="170.112 69.164 180.753 69.164 180.753 154.139 170.112 154.139 170.112 69.164 170.112 69.164" fill="#ffffff"/><polygon points="182.851 47.883 193.492 47.883 193.492 132.857 182.851 132.857 182.851 47.883 182.851 47.883" fill="#ffffff"/><polygon points="195.59 0 206.23 0 206.23 84.975 195.59 84.975 195.59 0 195.59 0" fill="#ffffff"/><polygon points="208.329 47.883 218.97 47.883 218.97 132.857 208.329 132.857 208.329 47.883 208.329 47.883" fill="#ffffff"/><polygon points="221.068 31.922 231.709 31.922 231.709 116.896 221.068 116.896 221.068 31.922 221.068 31.922" fill="#ffffff"/><polygon points="233.807 47.883 244.448 47.883 244.448 132.857 233.807 132.857 233.807 47.883 233.807 47.883" fill="#ffffff"/><polygon points="246.546 63.844 257.186 63.844 257.186 148.818 246.546 148.818 246.546 63.844 246.546 63.844" fill="#ffffff"/><polygon points="259.285 21.281 269.926 21.281 269.926 106.256 259.285 106.256 259.285 21.281 259.285 21.281" fill="#ffffff"/><polygon points="272.024 58.523 282.665 58.523 282.665 143.498 272.024 143.498 272.024 58.523 272.024 58.523" fill="#ffffff"/><polygon points="284.763 21.281 295.403 21.281 295.403 106.256 284.763 106.256 284.763 21.281 284.763 21.281" fill="#ffffff"/><polygon points="297.502 63.844 308.143 63.844 308.143 148.818 297.502 148.818 297.502 63.844 297.502 63.844" fill="#ffffff"/><polygon points="310.241 37.242 320.882 37.242 320.882 122.217 310.241 122.217 310.241 37.242 310.241 37.242" fill="#ffffff"/><polygon points="322.979 53.203 333.621 53.203 333.621 138.178 322.979 138.178 322.979 53.203 322.979 53.203" fill="#ffffff"/><polygon points="335.719 58.523 346.36 58.523 346.36 143.498 335.719 143.498 335.719 58.523 335.719 58.523" fill="#ffffff"/><polygon points="348.458 47.883 359.099 47.883 359.099 132.857 348.458 132.857 348.458 47.883 348.458 47.883" fill="#ffffff"/><path d="M287.832,189.9512H276.041c0,2.2793,1.1992,3.5117,3.51,3.5117a2.8028,2.8028,0,0,0,2.6777-1.4492h5.3867c-.8906,3.7265-4.4335,5.42-8.0351,5.42-5.2344,0-9.1445-2.957-9.1445-8.4063,0-5.2656,3.6035-8.4355,8.7441-8.4355,5.48,0,8.6523,3.3867,8.6523,8.7754Zm-5.2031-3.2324a3.3617,3.3617,0,0,0-6.4961,0Z" fill="#e30613"/><polygon points="15.756 180.127 11.162 180.127 11.162 196.801 4.594 196.801 4.594 180.127 0 180.127 0 174.408 15.756 174.408 15.756 180.127 15.756 180.127" fill="#e30613"/><path d="M35.6348,190.51v-9.2676h6.17v8.2754c0,1.7578.3887,2.6426,2.0762,2.6426s2.0752-.8848,2.0752-2.6426v-8.2754H52.127V190.51c0,5.2246-3.7832,6.7715-8.2461,6.7715s-8.2461-1.5469-8.2461-6.7715Z" fill="#e30613"/><path d="M61.7578,182.6816a5.7787,5.7787,0,0,1,4.26-1.6367h1.4971v6.3281a4.2875,4.2875,0,0,0-2.6885-.8378c-2.4238,0-3.0684,1.4785-3.0684,3.8906v6.375H55.5869V181.2422h6.1709v1.4394Z" fill="#e30613"/><path d="M69.6524,181.5293h6.1718v15.5566H69.6524V181.5293Zm-.3106-5.08a3.3975,3.3975,0,1,1,3.3965,3.3965,3.4092,3.4092,0,0,1-3.3965-3.3965Z" fill="#e30613"/><path d="M100.4219,182.3086a6.385,6.385,0,0,1,9.1133.8008,6.1587,6.1587,0,0,1,4.9287-2.3477c4.083,0,5.4678,2.77,5.4678,6.26v9.7793H113.76v-7.4531c0-1.1934.1308-3.4649-1.6211-3.4649-1.9942,0-1.9619,2.0156-1.9619,3.4649v7.4531h-6.1709v-7.4531c0-1.3028.09-3.5782-1.792-3.5782s-1.792,2.2754-1.792,3.5782v7.4531H94.251V181.2422h6.1709v1.0664Z" fill="#e30613"/><path d="M123.3184,190.51v-9.2676h6.1709v8.2754c0,1.7578.3877,2.6426,2.0752,2.6426s2.0761-.8848,2.0761-2.6426v-8.2754h6.17V190.51c0,5.2246-3.7832,6.7715-8.2461,6.7715s-8.2461-1.5469-8.2461-6.7715Z" fill="#e30613"/><path d="M189.0781,173.8418a14.04,14.04,0,0,1,5.58,1.2441v8.5332c-1.459-1.9707-2.6562-3.3789-5.3818-3.3789a5.1287,5.1287,0,0,0-5.1944,5.4219,5.041,5.041,0,0,0,5.2793,5.3067c2.4942,0,3.8438-1.4161,5.2969-3.1524v8.4258a17.9772,17.9772,0,0,1-5.41,1.125,12.4044,12.4044,0,0,1-8.3643-3.2793,10.9555,10.9555,0,0,1-3.5967-8.4551,11.6972,11.6972,0,0,1,3.291-8.18,12.0931,12.0931,0,0,1,8.5-3.6113Z" fill="#e30613"/><path d="M223.6992,182.2852a5.6026,5.6026,0,0,1,4.2012-1.5235c4.2793,0,5.9785,2.7871,5.9785,6.5449v9.4942H227.707v-7.5957c0-1.3965.2149-3.3223-1.8183-3.3223-1.6524,0-2.19,1.1289-2.19,2.8692v8.0488h-6.1718V181.2422h6.1718v1.043Z" fill="#e30613"/><path d="M263.9942,182.6816a5.7757,5.7757,0,0,1,4.2578-1.6367h1.498v6.3281a4.29,4.29,0,0,0-2.6875-.8378c-2.4238,0-3.0683,1.4785-3.0683,3.8906v6.375h-6.1719V181.2422h6.1719v1.4394Z" fill="#e30613"/><path d="M361.3223,182.3086a6.385,6.385,0,0,1,9.1133.8008,6.1591,6.1591,0,0,1,4.93-2.3477c4.0821,0,5.4668,2.77,5.4668,6.26v9.7793H374.66v-7.4531c0-1.1934.1308-3.4649-1.6211-3.4649-1.9942,0-1.9629,2.0156-1.9629,3.4649v7.4531h-6.17v-7.4531c0-1.3028.09-3.5782-1.793-3.5782-1.8809,0-1.791,2.2754-1.791,3.5782v7.4531H355.15V181.2422h6.1719v1.0664Z" fill="#e30613"/><polygon points="411.494 174.408 411.494 182.66 418.51 182.66 418.51 174.408 425.078 174.408 425.078 196.801 418.51 196.801 418.51 188.037 411.494 188.037 411.494 196.801 404.926 196.801 404.926 174.408 411.494 174.408 411.494 174.408" fill="#e30613"/><path d="M85.9981,180.5449a12.3532,12.3532,0,0,1,5.5468,1.211L89.3135,186a6.3732,6.3732,0,0,0-3.0264-.8965c-.2646,0-1.1465.125-1.1465.5117,0,.44.9493.6231,1.2871.69l.6758.1211c2.541.51,4.6856,1.7754,4.6856,4.8613,0,4.3184-3.9551,5.9922-7.46,5.9922a12.1259,12.1259,0,0,1-6.61-2.0117l2.373-4.5664a8.2623,8.2623,0,0,0,4.3242,1.7324c.6856,0,1.1465-.3184,1.1465-.6289,0-1.51-6.5644-.0234-6.5644-5.5274,0-4.0468,3.68-5.7324,7-5.7324Z" fill="#e30613"/><path d="M14.6914,189.0352c0-5.3282,4.4053-8.2735,9.2676-8.2735s9.2666,2.9453,9.2666,8.2735c0,5.3027-4.4072,8.2461-9.2666,8.2461-4.83,0-9.2676-2.9141-9.2676-8.2461Zm13.09,0a3.6143,3.6143,0,0,1-3.8223,3.7675,3.6148,3.6148,0,0,1-3.8242-3.7675,3.6648,3.6648,0,0,1,3.8242-3.793,3.6644,3.6644,0,0,1,3.8223,3.793Z" fill="#e30613" fill-rule="evenodd"/><path d="M150.252,180.5449a12.3523,12.3523,0,0,1,5.5459,1.211L153.5664,186a6.3733,6.3733,0,0,0-3.0273-.8965c-.2637,0-1.1465.125-1.1465.5117,0,.44.9512.6231,1.2881.69l.6748.1211c2.541.51,4.6875,1.7754,4.6875,4.8613,0,4.3184-3.9561,5.9922-7.461,5.9922a12.1176,12.1176,0,0,1-6.6093-2.0117l2.373-4.5664a8.2558,8.2558,0,0,0,4.3223,1.7324c.6865,0,1.1465-.3184,1.1465-.6289,0-1.51-6.5625-.0234-6.5625-5.5274,0-4.0468,3.6787-5.7324,7-5.7324Z" fill="#e30613"/><polygon points="165.386 181.047 165.386 187.668 158.766 187.668 158.766 190.211 165.386 190.211 165.386 196.832 167.93 196.832 167.93 190.211 174.55 190.211 174.55 187.668 167.93 187.668 167.93 181.047 165.386 181.047 165.386 181.047" fill="#e30613"/><path d="M196.4453,189.0352c0-5.3282,4.4043-8.2735,9.2666-8.2735s9.2666,2.9453,9.2666,8.2735c0,5.3027-4.4062,8.2461-9.2666,8.2461-4.8291,0-9.2666-2.9141-9.2666-8.2461Zm13.09,0a3.8237,3.8237,0,0,1-7.6465,0,3.8234,3.8234,0,0,1,7.6465,0Z" fill="#e30613" fill-rule="evenodd"/><path d="M249.3633,188.8262a3.8217,3.8217,0,0,1-7.6426,0,3.8214,3.8214,0,0,1,7.6426,0Zm-1.1856,6.7968a6.3469,6.3469,0,0,1-4.1093,1.3633,7.5733,7.5733,0,0,1-7.6778-7.9316c0-4.4863,3.1856-8.3867,7.961-8.3867a5.9005,5.9005,0,0,1,3.832,1.2578V181.15h6.17v13.6309c-.0332,6.5-2.8945,9.5253-8.914,9.3808a7.8754,7.8754,0,0,1-5.9688-2.3711l3.2363-4.1152c.7383.998,1.2305,1.56,2.6133,1.56a2.625,2.625,0,0,0,2.8164-2.7734c.02-.2676.0332-.5508.041-.84Z" fill="#e30613" fill-rule="evenodd"/><path d="M297.4942,180.5449a12.359,12.359,0,0,1,5.5468,1.211L300.8086,186a6.3737,6.3737,0,0,0-3.0273-.8965c-.2637,0-1.1465.125-1.1465.5117,0,.44.9512.6231,1.289.69l.6758.1211c2.5391.51,4.6856,1.7754,4.6856,4.8613,0,4.3184-3.9551,5.9922-7.461,5.9922a12.1176,12.1176,0,0,1-6.6093-2.0117l2.373-4.5664a8.2558,8.2558,0,0,0,4.3223,1.7324c.6875,0,1.1465-.3184,1.1465-.6289,0-1.51-6.5625-.0234-6.5625-5.5274,0-4.0468,3.68-5.7324,7-5.7324Z" fill="#e30613"/><path d="M313.0137,180.5449a12.3536,12.3536,0,0,1,5.5469,1.211L316.3281,186a6.372,6.372,0,0,0-3.0254-.8965c-.2656,0-1.1464.125-1.1464.5117,0,.44.9492.6231,1.2871.69l.6758.1211c2.541.51,4.6855,1.7754,4.6855,4.8613,0,4.3184-3.9551,5.9922-7.4609,5.9922a12.1227,12.1227,0,0,1-6.6094-2.0117l2.373-4.5664a8.2623,8.2623,0,0,0,4.3243,1.7324c.6855,0,1.1445-.3184,1.1445-.6289,0-1.51-6.5625-.0234-6.5625-5.5274,0-4.0468,3.68-5.7324,7-5.7324Z" fill="#e30613"/><path d="M340.625,182.85v5.1074h4.7988c.0176,2.2285-2.1132,3.252-4.3554,3.1953-3.1856-.082-5.3555-2.9668-5.3555-6.35,0-3.3261,1.543-6.4453,4.9453-6.56,2.2832-.0762,2.9942.8008,4.1856,1.8945l5-3.4609c-1.9121-2.66-4.1075-4.2031-8.59-4.2031a11.9928,11.9928,0,0,0-12.3945,12.2246A11.8065,11.8065,0,0,0,340.91,196.75a10.951,10.951,0,0,0,9.084-4.57c1.9375-2.7188,2.17-6.34,1.9414-9.2617L340.625,182.85Z" fill="#e30613"/><path d="M396.77,189.0352a3.8226,3.8226,0,0,1-7.6445,0,3.8224,3.8224,0,0,1,7.6445,0Zm-6.4648,7.7656h-6.1719V174.1934h6.1719v7.8242a6.7933,6.7933,0,0,1,4.0039-1.2559c4.6348,0,7.793,3.8457,7.793,8.2461,0,4.4317-3.19,8.2735-7.85,8.2735a6.2366,6.2366,0,0,1-3.9473-1.3145v.834Z" fill="#e30613" fill-rule="evenodd"/><polygon points="70.297 211.67 70.297 208.012 54.769 208.012 54.769 240.086 58.768 240.086 58.768 224.348 69.914 224.348 69.914 220.689 58.768 220.689 58.768 211.67 70.297 211.67 70.297 211.67" fill="#ffffff"/><path d="M75.9356,220.1777H72.1074v19.9082h3.8282v-9.7832c0-3.2324.51-7.06,4.6367-7.06a3.3494,3.3494,0,0,1,2.34.8066l1.7442-3.4883a5.9677,5.9677,0,0,0-3.1485-.9765,5.7259,5.7259,0,0,0-5.4453,3.8281h-.1269v-3.2344Z" fill="#ffffff"/><path d="M94.6231,237.3652c-4.0411,0-6.295-3.4882-6.295-7.2324,0-3.7012,2.34-7.1465,6.295-7.1465,4.1269,0,6.4668,3.2754,6.4668,7.1465,0,3.9141-2.2969,7.2324-6.4668,7.2324Zm10.082-17.1875H100.877v3.3184h-.085A8.1454,8.1454,0,0,0,93.9,219.584c-5.7852,0-9.4,4.9765-9.4,10.4219,0,5.6992,3.4453,10.7617,9.5283,10.7617a8.157,8.157,0,0,0,6.7637-3.7871h.085v3.1054h3.8281V220.1777Z" fill="#ffffff" fill-rule="evenodd"/><path d="M113.34,220.1777h-3.8282v19.9082H113.34v-9.1445c0-3.6172,0-7.9551,4.9355-7.9551,3.9131,0,4.3809,2.2969,4.3809,5.6992v11.4h3.8281V228.2188c0-4.85-1.4453-8.6348-7.0606-8.6348a6.7934,6.7934,0,0,0-5.998,3.2754H113.34v-2.6817Z" fill="#ffffff"/><polygon points="135.687 207.941 131.859 207.941 131.859 240.086 135.687 240.086 135.687 232.346 137.006 231.025 144.109 240.086 149.088 240.086 139.728 228.432 148.236 220.178 143.174 220.178 135.687 227.666 135.687 207.941 135.687 207.941" fill="#ffffff"/><path d="M160.9863,208.5234a7.1627,7.1627,0,0,0-2.68-.5117c-4.9356,0-6.4239,3.4883-6.4239,7.8281v4.3379h-1.7441v3.5743h1.7441v16.3339h3.8282V223.752h5.2753v-3.5743H155.711v-3.1894c0-1.957,0-5.4024,2.7226-5.4024a7.1548,7.1548,0,0,1,2.5527.8086v-3.8711Z" fill="#ffffff"/><path d="M163.1973,220.1777v11.4434c0,5.4453,2.5527,9.1465,8.4228,9.1465s8.4229-3.7012,8.4229-9.1465V220.1777h-3.8281v11.0176c0,3.1914-.8086,5.9981-4.5948,5.9981s-4.5947-2.8067-4.5947-5.9981V220.1777Z" fill="#ffffff"/><path d="M189.0752,220.1777h-3.8291v19.9082h3.8291v-9.7832c0-3.2324.5108-7.06,4.6377-7.06a3.3457,3.3457,0,0,1,2.3389.8066l1.7441-3.4883a5.964,5.964,0,0,0-3.1474-.9765,5.7259,5.7259,0,0,0-5.4454,3.8281h-.1279v-3.2344Z" fill="#ffffff"/><polygon points="205.035 223.752 208.777 223.752 208.777 220.178 205.035 220.178 205.035 212.564 201.206 212.564 201.206 220.178 199.121 220.178 199.121 223.752 201.206 223.752 201.206 240.086 205.035 240.086 205.035 223.752 205.035 223.752" fill="#ffffff"/><path d="M227.18,237.3652c-4.041,0-6.2949-3.4882-6.2949-7.2324,0-3.7012,2.3379-7.1465,6.2949-7.1465,4.127,0,6.4668,3.2754,6.4668,7.1465,0,3.9141-2.2988,7.2324-6.4668,7.2324Zm10.082-17.1875h-3.8281v3.3184h-.0859a8.1451,8.1451,0,0,0-6.8907-3.9121c-5.7851,0-9.4023,4.9765-9.4023,10.4219,0,5.6992,3.4453,10.7617,9.5293,10.7617a8.1571,8.1571,0,0,0,6.7637-3.7871h.0859v3.1054h3.8281V220.1777Z" fill="#ffffff" fill-rule="evenodd"/><path d="M245.7676,220.1777H241.94v19.9082h3.8281v-9.7832c0-3.1054.3418-7.3164,4.4258-7.3164,3.5293,0,3.6582,3.9551,3.6582,6.5508v10.5488H257.68v-9.7832c0-3.0625.2969-7.3164,4.3809-7.3164,3.3613,0,3.7011,3.2754,3.7011,5.8282v11.2714H269.59v-11.91c0-4.51-1.3614-8.5918-6.5938-8.5918a7.1822,7.1822,0,0,0-6.125,3.5293,6.3656,6.3656,0,0,0-5.7422-3.5293,6.4952,6.4952,0,0,0-5.2754,3.1035h-.0859v-2.51Z" fill="#ffffff"/><polygon points="298.805 240.768 308.418 218.902 308.504 218.902 312.246 240.086 316.373 240.086 309.822 206.65 298.805 231.92 287.787 206.65 281.236 240.086 285.363 240.086 289.105 218.902 289.191 218.902 298.805 240.768 298.805 240.768" fill="#ffffff"/><path d="M328.49,237.3652c-4.041,0-6.2949-3.4882-6.2949-7.2324,0-3.7012,2.34-7.1465,6.2949-7.1465,4.127,0,6.4668,3.2754,6.4668,7.1465,0,3.9141-2.2968,7.2324-6.4668,7.2324Zm10.0821-17.1875h-3.8281v3.3184h-.086a8.1451,8.1451,0,0,0-6.8906-3.9121c-5.7852,0-9.4,4.9765-9.4,10.4219,0,5.6992,3.4453,10.7617,9.5273,10.7617a8.1543,8.1543,0,0,0,6.7637-3.7871h.086v3.1054h3.8281V220.1777Z" fill="#ffffff" fill-rule="evenodd"/><path d="M348.0586,220.1777h-3.8281v19.9082h3.8281V220.1777Zm-1.9141-11.7832a2.661,2.661,0,0,0-2.6386,2.6817,2.6381,2.6381,0,0,0,5.2754,0,2.6606,2.6606,0,0,0-2.6368-2.6817Z" fill="#ffffff" fill-rule="evenodd"/><path d="M357.9336,220.1777h-3.8281v19.9082h3.8281v-9.1445c0-3.6172,0-7.9551,4.9336-7.9551,3.9141,0,4.3828,2.2969,4.3828,5.6992v11.4h3.8281V228.2188c0-4.85-1.4472-8.6348-7.06-8.6348a6.7965,6.7965,0,0,0-6,3.2754h-.084v-2.6817Z" fill="#ffffff"/></svg>
