<svg id="Ebene_1" data-name="Ebene 1" xmlns="http://www.w3.org/2000/svg" viewBox="0 0 173.0316 94.5289"><title>leipzig</title><path d="M145.9171,85.4056c10.6895,8.3125,23.7891-19.7266,19.4014-31.7808,0,0-71.2471-8.5371-19.4014,31.7808" transform="translate(-1.7706 -1.3952)" fill="#bd2d0b"/><path d="M131.6485,50.8045C116.798,62.1116,106.78,30.97,110.2618,8.4861s59.7276,13.126,21.3867,42.3184" transform="translate(-1.7706 -1.3952)" fill="#34bbda"/><path d="M137.0646,48.92c-8.2871,12.0781,35.2812,13.5625,37.4843-.7627s-9.9267-39.4033-37.4843.7627" transform="translate(-1.7706 -1.3952)" fill="#95c11f"/><path d="M127.1769,61.0218c-7.252-1.3218-12.6534-6.1582-11.6846-15.7715,2.6367,4.8516,6.041,7.9512,9.9863,7.9512a10.2289,10.2289,0,0,0,6.17-2.397c6.9551-5.2954,10.7979-10.8023,12.4083-16.1348,1.0146.5523,1.9941,1.1494,2.9218,1.7818a98.53,98.53,0,0,0-9.914,12.4687c-1.4327,2.0894-1.3145,3.8618-.128,5.29-5.0234,1.1621-8.9316,3.2387-9.76,6.8115" transform="translate(-1.7706 -1.3952)" fill="#fff"/><path d="M131.5929,61.4026a24.6571,24.6571,0,0,1-4.416-.3808c.8281-3.5728,4.7363-5.6494,9.76-6.8115,1.5567,1.8725,4.9522,3.1542,9.0967,3.7832a33.9324,33.9324,0,0,1-14.44,3.4091" transform="translate(-1.7706 -1.3952)" fill="#fff" opacity="0.6"/><path d="M125.4786,53.2015c-3.9453,0-7.35-3.1-9.9863-7.9512a28.2373,28.2373,0,0,1,.6436-3.7168c1.8769-7.84,7.4619-10.7993,13.8554-10.7993A30.5383,30.5383,0,0,1,144.0568,34.67c-1.61,5.3325-5.4532,10.8394-12.4083,16.1348a10.2289,10.2289,0,0,1-6.17,2.397" transform="translate(-1.7706 -1.3952)" fill="#fff" opacity="0.6"/><path d="M146.0333,57.9935c-4.1445-.629-7.54-1.9107-9.0967-3.7832-1.1865-1.4283-1.3047-3.2007.128-5.29a98.53,98.53,0,0,1,9.914-12.4687c7.0742,4.8193,11.2071,11.69,6.27,16.5649a27.1861,27.1861,0,0,1-7.2158,4.9771" transform="translate(-1.7706 -1.3952)" fill="#fff" opacity="0.6"/><path d="M1.857,95.5022H4.5138V85.4905a2.7755,2.7755,0,0,1,2.4624,1.4258c1.1992,1.459,2.56,3.4023,3.9531,5.5078a17.2689,17.2689,0,0,1,1.7173,3.0781h3.3369s-2.4946-3.7265-3.3047-4.9238c-.7778-1.1015-1.3608-1.9765-1.8144-2.5937A13.0627,13.0627,0,0,0,8.629,85.4905h.3237c3.5318,0,5.897-2.43,5.897-6.0918a5.83,5.83,0,0,0-2.2031-4.664c-1.0693-.875-2.56-1.4258-5.6055-1.4258H1.857V95.5022ZM7.1061,75.5433a7.2046,7.2046,0,0,1,2.7861.455,3.6638,3.6638,0,0,1,2.1709,3.3692,4.473,4.473,0,0,1-1.1338,3.3379c-.81.8086-2.0415,1.1328-4.0176,1.1328H4.5465V75.5433Zm12.96,19.9589H32.54V93.2015H22.755V85.1351h7.6143V82.8343H22.755V75.6409H31.86l.3564-2.2031H20.066V95.5022Zm24.1377-22.42a8.3082,8.3082,0,0,0-5.8,2.1055c-2.3325,2.041-3.4341,5.0859-3.4341,9.33,0,3.8242.8745,6.5781,2.7539,8.6191A9.0509,9.0509,0,0,0,44.56,95.9241a12.06,12.06,0,0,0,6.2529-1.6855V83.8714H43.3287l.5186,2.2031h4.4712V92.846a6.63,6.63,0,0,1-3.5318.875,6.7913,6.7913,0,0,1-5.3784-2.3652,12.259,12.259,0,0,1-1.5552-6.74,16.8841,16.8841,0,0,1,.875-5.6367,5.4507,5.4507,0,0,1,5.5406-3.76,7.93,7.93,0,0,1,4.8276,1.7188l1.1987-1.6524a9.0215,9.0215,0,0,0-6.0913-2.2031Zm11.7285,22.42h2.5923V73.2757H55.9322V95.5022Zm7.3223-11.2109c0,3.791.9072,6.8047,2.6567,8.8145a8.0817,8.0817,0,0,0,6.3179,2.8183,7.77,7.77,0,0,0,5.6377-2.1387c2.2681-2.0742,3.24-4.7636,3.24-9.039,0-3.5645-.6153-6.1563-2.0088-8.23A8.0135,8.0135,0,0,0,72.1,72.887c-5.4756,0-8.8452,4.3418-8.8452,11.4043Zm13.8023-6.2207c.7451,1.5566,1.0693,3.791,1.0693,7.0645,0,3.66-.5186,5.4433-1.62,6.8359a4.9076,4.9076,0,0,1-4.147,1.91,5.7938,5.7938,0,0,1-4.73-2.3964c-.875-1.49-1.4258-4.4063-1.4258-7.7442a12.8721,12.8721,0,0,1,1.1343-6.123A5.3047,5.3047,0,0,1,72.1,75.0257a5.23,5.23,0,0,1,4.9571,3.0449ZM85.254,95.5022h2.7539l-.13-12.8632c-.0322-2.2032-.1294-4.1465-.2915-6.0254.4537,1.1992,1.4908,3.3047,2.5269,5.3125l7.1279,13.5761h2.7871V73.34h-2.625l.0977,12.0528c.0322,2.916.292,6.74.292,6.74S96.5284,89.0882,95.7189,87.5L88.3317,73.34H85.254V95.5022Z" transform="translate(-1.7706 -1.3952)" fill="#fff"/><path d="M1.7706,64.67H12.8512l.3564-2.2363h-8.78v-19.99H1.7706V64.67Zm14.8067,0H29.0514V62.3694H19.2667V54.302h7.6138v-2.3H19.2667V44.8089h9.104l.3565-2.2031h-12.15V64.67Zm16.8476,0h2.5923V42.4436H33.4249V64.67Zm8.9746,0h2.5918V55.825H48.88c2.916,0,4.18-.648,5.3135-1.75a6.77,6.77,0,0,0,2.0737-5.2813,6.0873,6.0873,0,0,0-2.8515-5.3134c-1.1988-.7779-2.462-1.0372-4.86-1.0372H42.4V64.67ZM47.81,44.68c2.1059,0,3.3047.3237,4.2119,1.1016a4.2693,4.2693,0,0,1,1.2959,3.5317,4.4682,4.4682,0,0,1-1.1338,3.1426c-.7451.8423-1.5874,1.1987-3.4668,1.1987H44.9913V44.68Zm10.5947.2266h8.2944c.9717,0,1.6846,0,2.3-.0323a24.5383,24.5383,0,0,0-1.4258,2.1382L58.0807,62.6292V64.67h13.187l.68-2.2676h-8.813c-.7451,0-1.1338,0-1.9112.0313.4859-.7442.8746-1.3281,1.36-2.1377l9.2344-15.3574V42.6707H59.15l-.7451,2.2354ZM76.6456,64.67h2.5923V42.4436H76.6456V64.67ZM93.2023,42.2493a8.3083,8.3083,0,0,0-5.8,2.106c-2.3331,2.0415-3.4346,5.0869-3.4346,9.3315,0,3.8233.8745,6.5772,2.7539,8.6182a9.0508,9.0508,0,0,0,6.8359,2.7871,12.0666,12.0666,0,0,0,6.2539-1.6856V53.0389H92.3273l.5185,2.2031h4.4707v6.772a6.65,6.65,0,0,1-3.5322.875,6.7912,6.7912,0,0,1-5.3779-2.3653,12.26,12.26,0,0,1-1.5552-6.74,16.8877,16.8877,0,0,1,.875-5.6377,5.4507,5.4507,0,0,1,5.54-3.7583,7.932,7.932,0,0,1,4.8272,1.7173l1.1992-1.6529a9.0277,9.0277,0,0,0-6.0908-2.2031Z" transform="translate(-1.7706 -1.3952)" fill="#fff"/></svg>