<svg id="Ebene_1" data-name="Ebene 1" xmlns="http://www.w3.org/2000/svg" viewBox="0 0 912.7534 954.0174"><title>meissen</title><path d="M434,910.8345v7.6394l8-3.6572V959h9V906h-8.5763A23.13,23.13,0,0,1,434,910.8345Z" transform="translate(-4.6233 -6.6156)" fill="#fff"/><path d="M537,910.8345v7.6394l8-3.6572V959h9V906h-8.5762A23.1314,23.1314,0,0,1,537,910.8345Z" transform="translate(-4.6233 -6.6156)" fill="#fff"/><polygon points="466.377 908.384 505.211 908.384 474.393 953.384 484.487 953.384 515.377 908.384 515.377 900.384 466.377 900.384 466.377 908.384" fill="#fff"/><path d="M324.0806,927.9905c4.4289-4.0749,6.6743-8.42,6.6743-12.9152a8.9123,8.9123,0,0,0-1.9048-5.7783,6.9435,6.9435,0,0,0-5.6888-2.4071c-3.8054,0-8.2555,2.3258-13.2254,6.9142a47.16,47.16,0,0,0-11.42,16.25c-2.6562,6.242-4.0037,11.939-4.0037,16.9332,0,4.0688,1.1,7.3556,3.2695,9.7708a10.9757,10.9757,0,0,0,8.5362,3.6834c8.1865,0,14.9481-5.81,20.0969-17.2677L326.9413,942h-4.6678l-.2247.482c-3.9437,8.4956-8.4986,12.8024-13.5376,12.8024a4.42,4.42,0,0,1-3.7312-1.5753,8.4443,8.4443,0,0,1-1.3068-5.18,30.9658,30.9658,0,0,1,1.5072-9.1759C313.3956,935.7356,319.8217,931.9139,324.0806,927.9905Zm.1434-13.092c0,3.0478-1.9718,6.5421-5.8606,10.3881a46.2959,46.2959,0,0,1-11.88,8.5465,54.1759,54.1759,0,0,1,7.1939-15.9895c3.0427-4.3474,5.6359-6.5512,7.7054-6.5512a2.6,2.6,0,0,1,2.1163.7882A4.4383,4.4383,0,0,1,324.224,914.8985Z" transform="translate(-4.6233 -6.6156)" fill="#fff"/><path d="M379.3413,866.7716c-7.9129-.1243-15.6448,2.9859-21.9051,7.8021a35.17,35.17,0,0,0-12.65,17.8851,22.5269,22.5269,0,0,0,2.102,18.963,13.0892,13.0892,0,0,0-4.0962,9.6294c0,3.1312,1.7806,7.86,5.4426,14.4529,2.9614,5.3939,4.4634,9.3508,4.4634,11.76a7.4569,7.4569,0,0,1-2.9359,6.3081,10.85,10.85,0,0,1-6.73,2.3522,8.0853,8.0853,0,0,1-3.98-.9387c-.9376-.5247-1.4125-1.1084-1.4125-1.7359a2.8021,2.8021,0,0,1,.2115-.8,10.4967,10.4967,0,0,0,.3814-2.4031c0-2.7132-1.4339-4.2071-4.0363-4.2071a3.647,3.647,0,0,0-3.0041,1.5122,5.3147,5.3147,0,0,0-1.0911,3.3539c0,2.2953,1.1217,4.45,3.3335,6.4047,2.1864,1.9251,5.4559,2.9,9.7169,2.9,5.7193,0,10.1278-1.6353,13.1034-4.86a15.5064,15.5064,0,0,0,4.4573-10.682,20.413,20.413,0,0,0-1.3282-7.2244,73.5638,73.5638,0,0,0-5.0674-9.91c-2.5658-4.5447-3.8664-8.1345-3.8664-10.6687a4.9034,4.9034,0,0,1,2.1488-4.1441,8.9,8.9,0,0,1,5.3816-1.6668c2.4244,0,3.8075,1.021,4.3516,3.2136.6955,2.7467,1.925,4.1389,3.6549,4.1389,1.0352,0,3.4434-.3884,3.4434-3.9833,0-1.8885-1.1248-3.6509-3.3427-5.2393a12.9819,12.9819,0,0,0-7.6922-2.2882,16.0589,16.0589,0,0,0-7.857,2.0126,15.4475,15.4475,0,0,1-1.8427-13.1542c1.73-5.65,5.2607-10.9231,10.497-15.6712a28.907,28.907,0,0,1,19.631-7.5091c20.9676.2886,5.9516,35.643,5.9516,35.6259h-8.1172l-1.3723,4h8.1865l-7.3762,24.3642c-2.5164,8.2446-3.74,13.2078-3.74,15.1742a8.9472,8.9472,0,0,0,2.0248,5.9709,6.8751,6.8751,0,0,0,5.5059,2.4437c2.8165,0,5.8983-1.6581,9.16-4.9273,3.1923-3.1944,6.059-7.86,8.5221-13.8663L398.04,940h-4.4214l-.2233.4978a41.6121,41.6121,0,0,1-6.0856,10.0174c-2.796,3.2764-4.317,3.7659-4.9755,3.7659a1.4311,1.4311,0,0,1-1.1788-.4537,2.53,2.53,0,0,1-.4292-1.64c0-.8951.677-4.17,3.9052-14.6918L392.2049,912h8.9681l1.36-3.9807s-9.2953.0208-9.2889-.0022C395.9819,898.2386,407.9536,867.221,379.3413,866.7716Z" transform="translate(-4.6233 -6.6156)" fill="#fff"/><path d="M412.7344,948.6612a5.4642,5.4642,0,1,0,0,10.9281,5.4642,5.4642,0,0,0,0-10.9281Z" transform="translate(-4.6233 -6.6156)" fill="#fff"/><path d="M600.6893,960.633c-14.7768,0-26.7988-12.3724-26.7988-27.5824s12.022-27.5823,26.7988-27.5823,26.7988,12.3724,26.7988,27.5823S615.4661,960.633,600.6893,960.633Zm0-47.0164c-10.2833,0-18.65,8.7191-18.65,19.434s8.3672,19.4341,18.65,19.4341,18.65-8.7191,18.65-19.4341S610.9726,913.6166,600.6893,913.6166Z" transform="translate(-4.6233 -6.6156)" fill="#fff"/><polygon points="82.417 771.29 23.741 661.488 0.018 661.488 0 664.624 6.19 679.437 6.19 792.331 0 807.136 0.024 810.337 29.518 810.337 29.536 807.136 23.346 792.331 23.346 701.886 79.596 810.337 131.702 710.279 131.702 792.331 125.512 807.136 125.513 810.337 155.54 810.337 155.554 807.136 149.363 792.331 149.363 679.437 155.554 664.632 155.53 661.488 138.811 661.488 82.417 771.29" fill="#fff"/><polygon points="326.506 664.632 332.713 679.437 332.694 792.331 326.506 807.136 326.506 810.337 358.323 810.337 358.323 807.136 352.098 792.347 352.098 679.437 358.288 664.632 358.323 661.488 326.506 661.488 326.506 664.632" fill="#fff"/><path d="M450.4728,727.7476c-18.435-7.763-34.3555-14.4619-34.3555-30.7131,0-13.1907,10.3573-22.0536,25.7756-22.0536,11.4891,0,25.1858,3.7939,25.1858,21.8583a31.7106,31.7106,0,0,1-1.2991,7.8945l-.6934,2.57h5.46l20.5232-14.2547-.6854-1.5423c-7.2449-16.3349-25.0782-26.09-47.71-26.09-22.01,0-45.5257,10.158-45.5257,38.6714,0,28.5851,22.95,38.0935,43.1984,46.4861,17.9808,7.4521,34.9652,14.49,34.9652,33.439,0,17.8492-16.8609,24.2094-32.6379,24.2094-9.62,0-32.5941-3.196-38.1493-32.8133l-.3109-1.6657h-9.4167v42.4771h4.3915l13.5733-5.7425c6.7587,5.332,17.5224,8.4842,29.131,8.4842,32.6738,0,52.97-17.371,52.97-45.3344C494.8628,746.4337,471.279,736.5068,450.4728,727.7476Z" transform="translate(-4.6233 -6.6156)" fill="#fff"/><path d="M575.4414,727.7476c-18.435-7.763-34.36-14.4619-34.36-30.7131,0-13.1907,10.3573-22.0536,25.7756-22.0536,11.4931,0,25.1938,3.7939,25.1938,21.8583a32.0312,32.0312,0,0,1-1.3031,7.8984l-.6815,2.5665H595.51L616.03,693.0494l-.6814-1.5383c-7.233-16.3389-25.0663-26.0944-47.7016-26.0944-22.0137,0-45.5337,10.158-45.5337,38.6714,0,28.5851,22.95,38.0935,43.1984,46.4861,17.9808,7.4521,34.9653,14.49,34.9653,33.439,0,17.8492-16.857,24.2094-32.63,24.2094-9.624,0-32.6021-3.196-38.1573-32.8133l-.3108-1.6657h-9.4168v42.4771h4.3916l13.5732-5.7425c6.7667,5.332,17.53,8.4842,29.131,8.4842,32.6778,0,52.9779-17.371,52.9779-45.3344C619.8354,746.4337,596.2516,736.5068,575.4414,727.7476Z" transform="translate(-4.6233 -6.6156)" fill="#fff"/><path d="M735.706,785.4584c-1.0042,3.5149-7.05,21.0493-27.4254,21.0493H676.4317v-66.049H705.89l14.1072,13.5175h4.822V720.1188h-4.6506l-14.1073,9.9906H676.4317V678.7535H717.793l24.4845,25.66h6.5515l-7.9662-35.6187H643.7141v4.4194l11.0068,16.4545.0021,109.278-8.2682,14.8281.009,3.0822h67.8383c2.4548.0638,4.7383.0956,6.8783.0956,18.0445,0,25.7078-2.4468,35.4036-10.3493l1.69-1.3748-21.5753-23.2491Z" transform="translate(-4.6233 -6.6156)" fill="#fff"/><path d="M282.0588,785.4584c-1.0042,3.5149-7.05,21.0493-27.4254,21.0493H222.7845v-66.049h29.4578L266.35,753.9762h4.8219V720.1188h-4.6506l-14.1072,9.9906H222.7845V678.7535h41.3613l24.4844,25.66h6.5515l-8.1016-36.31H194.8866l-.0142,3.1445,6.1967,14.8045.0046,112.8942-6.1905,14.8045.0191,3.2014,65.7526-.0956c2.4548.0638,4.7382.0956,6.8782.0956,18.0445,0,25.7079-2.4468,35.4036-10.3493l1.69-1.3748-21.5753-23.2491Z" transform="translate(-4.6233 -6.6156)" fill="#fff"/><polygon points="884.492 661.487 884.492 664.633 890.581 679.436 890.581 772.659 804.651 661.487 784.834 661.477 784.834 661.487 781.703 661.487 781.685 664.623 787.876 679.436 787.876 792.331 781.685 807.136 781.711 810.336 810.137 810.336 810.155 807.136 803.964 792.331 803.793 690.671 896.35 811.081 896.959 811.779 906.664 811.811 906.664 679.436 912.753 664.633 912.753 661.487 884.492 661.487" fill="#fff"/><path d="M618.656,592.8126a1160.8945,1160.8945,0,0,1-80.0775-92.05c13.422-18.2349,28.6637-32.4229,44.2761-44.6543a9.8027,9.8027,0,0,0,3.6674-6.2526l.6634-4.3948a.9567.9567,0,0,0-1.487-.9407c-7.577,5.2738-37.0977,26.2315-55.6023,45.1833a885.4324,885.4324,0,0,1-59.4951-88.7158c8.1042-14.52,15.7907-29.34,22.8024-44.34,31.9317-68.3151,51.7293-146.1792,70.33-214.8147C579.6815,82.9853,584.6663,19.505,585.3155,10.45a2.8487,2.8487,0,0,0-.6116-1.9751l-1.4577-1.86-1.94,1.94a2.8423,2.8423,0,0,0-.802,1.5338C574.9058,42.05,537.029,223.0339,479.6469,347.0349c-5.8043,12.5433-12.0744,24.86-18.6469,36.9132-6.5724-12.0528-12.8425-24.37-18.6469-36.9132C384.9708,223.0339,347.0942,42.05,341.496,10.09a2.8445,2.8445,0,0,0-.8021-1.5338l-1.94-1.94-1.4577,1.86a2.8485,2.8485,0,0,0-.6113,1.9751c.6491,9.0547,5.6337,72.535,21.582,131.3824,18.6008,68.6355,38.3981,146.5,70.33,214.8147,7.0117,15.0006,14.6985,29.82,22.8027,44.34a885.5151,885.5151,0,0,1-59.4951,88.7166c-18.5046-18.9523-48.0254-39.91-55.6026-45.1838a.9567.9567,0,0,0-1.487.9407l.6634,4.3948a9.8022,9.8022,0,0,0,3.6676,6.2526c15.6122,12.2314,30.8539,26.4189,44.2761,44.6543a1161.0238,1161.0238,0,0,1-80.0774,92.05c-6.882,7.2695-1.0385,19.8076-.2159,22.1033s3.5547,3.801,5.8206,2.7007a4.5355,4.5355,0,0,0,1.3153-.9685,1248.7265,1248.7265,0,0,0,83.923-99.9118,370.2757,370.2757,0,0,1,19.2806,35.6413c2.3256,4.8914,3.7822,9.8765,5.4246,14.0048.4876,1.2279,2.7123,6.337,2.7123,6.337,2.09,3.9481,3.6826,8.1808,8.1994,7.852,4.5855-.3345,4.7957-5.579,5.1152-8.5179.2736-2.5145.43-8.0152-.2408-10.0773-8.3193-25.5883-18.86-40.1442-30.9786-58.0024a1027.0147,1027.0147,0,0,0,57.3-86.256,1026.9414,1026.9414,0,0,0,57.3,86.256c-12.1182,17.8582-22.66,32.4141-30.9786,58.0024-.67,2.0621-.5147,7.5628-.2409,10.0773.32,2.9389.53,8.1834,5.1153,8.5179,4.5165.3288,6.11-3.9039,8.1994-7.852,0,0,2.2244-5.1091,2.7123-6.337,1.6421-4.1283,3.099-9.1134,5.4243-14.0048a370.2774,370.2774,0,0,1,19.2809-35.6413,1248.8641,1248.8641,0,0,0,83.9227,99.9118,4.5354,4.5354,0,0,0,1.3156.9685c2.2659,1.1,4.998-.4045,5.8206-2.7007S625.538,600.0821,618.656,592.8126Z" transform="translate(-4.6233 -6.6156)" fill="#fff"/></svg>