<svg id="Ebene_1" data-name="Ebene 1" xmlns="http://www.w3.org/2000/svg" viewBox="0 0 79.3701 79.3701"><title>metzingen</title><path d="M0,79.37H79.37V0H0V79.37ZM31.4941,13.7977A3.0244,3.0244,0,0,1,28.459,10.53a2.9832,2.9832,0,0,1,3.0351-3.1365H47.89A2.98,2.98,0,0,1,50.9111,10.53a3.0217,3.0217,0,0,1-3.0215,3.268Z" fill="#c3a36b"/><path d="M75.4647,54.9683H73.884L71.7747,58.596l-2.13-3.6277H68.0081l3.0289,4.907v3.17H72.45v-3.17l3.0146-4.907ZM64.7,56.1905h2.5717V54.9683H60.7256v1.2222h2.5522v6.8552H64.7V56.1905Zm1.6531,10.5373H60.5344V74.809H66.431V73.5855H61.9488V71.2243h4.0666V70.0618H61.9488V67.9474h4.4043v-1.22ZM58.21,63.0457h1.4248V54.9683H58.21v8.0774Zm.3242,6.2524a3.1941,3.1941,0,0,0-3.4665-2.7691c-2.4146,0-3.8693,1.9262-3.8693,4.2355s1.4547,4.2329,3.8693,4.2329a2.9285,2.9285,0,0,0,2.4418-1.1417l.2078.9533h.9091V70.5515H55.1818v1.0728h2.1456a2.0458,2.0458,0,0,1-2.26,2.221c-1.7288,0-2.4561-1.5274-2.4561-3.0808,0-1.5443.7273-3.0769,2.4561-3.0769a1.9231,1.9231,0,0,1,2.0781,1.6105ZM50.8026,59.0116c0-1.5521.7274-3.0821,2.4535-3.0821A1.9221,1.9221,0,0,1,55.2706,57.54h1.4183a3.1505,3.1505,0,0,0-3.4328-2.7639c-2.4275,0-3.8731,1.9223-3.8731,4.2355s1.4456,4.2367,3.8731,4.2367a3.3127,3.3127,0,0,0,3.4431-3.2756H55.3225a2.083,2.083,0,0,1-2.0664,2.1132c-1.7261,0-2.4535-1.5261-2.4535-3.0743ZM47.8818,74.809H49.365V66.7278H48.0181V72.68h-.0247l-3.6893-5.9525H42.8157V74.809h1.3507V68.8669h.026l3.6894,5.9421ZM46.5254,56.1945h2.5691V54.9723H42.5511v1.2222H45.098v6.8562h1.4274V56.1945ZM35.6166,63.0507H41.512V61.83H37.0349V59.4663h4.0693V58.3077H37.0349V56.1945h4.3992V54.9723H35.6166v8.0784Zm-6.7317,0h5.5369V61.83H30.3123V54.9723H28.8849v8.0784Zm-3.842-6.8562h2.5717V54.9723h-6.546v1.2222h2.5625v6.8562h1.4118V56.1945ZM15.0879,74.809h5.8957V73.5855H16.5108V71.2243h4.078V70.0618h-4.078V67.9474h4.3929v-1.22H15.0879V74.809Zm4.6714-14.6664v-5.17h-1.42v4.705c0,1.0875-.0663,2.3408-1.8963,2.3408-1.8431,0-1.9028-1.2533-1.9028-2.3408v-4.705H13.1191v5.17c0,2.0716,1.3248,3.0964,3.3237,3.0964,1.9924,0,3.3165-1.0248,3.3165-3.0964ZM11.6106,74.809h1.3436V66.7278H10.9871L8.818,73.05H8.794L6.56,66.7278H4.5709V74.809h1.341V68.5721h.0247L8.1835,74.809h1.16l2.25-6.2369h.0176V74.809Zm.2215-15.8012c0-2.3106-1.4443-4.2328-3.8705-4.2328-2.4171,0-3.8731,1.9222-3.8731,4.2328,0,2.309,1.456,4.2313,3.8731,4.2313,2.4262,0,3.8705-1.9223,3.8705-4.2313Zm-1.4034,0c0,1.55-.7293,3.0818-2.4671,3.0818-1.73,0-2.45-1.5313-2.45-3.0818s.72-3.0743,2.45-3.0743c1.7378,0,2.4671,1.5235,2.4671,3.0743Zm18.6048,7.72h-6.546v1.22h2.5658V74.809h1.4086V67.9474h2.5716v-1.22Zm5.9323,1.22L30.251,73.6518V74.809h6.6215V73.5855H32.0577l4.705-5.7836V66.7278h-6.148v1.22Zm5.5361-1.22H39.0778V74.809h1.4241V66.7278Zm29.2507,0H68.259V74.809H69.61V68.8669h.026l3.6886,5.9421h1.4833V66.7278H73.4647V72.68H73.449l-3.6964-5.9525Z" fill="#1d1d1b"/></svg>