<svg id="Ebene_1" data-name="Ebene 1" xmlns="http://www.w3.org/2000/svg" viewBox="0 0 267.4013 112.0817"><title>nuernberg</title><rect x="2.3" y="35.275" width="263.8" height="40.3" transform="translate(-10.4508 38.6647) rotate(-15.5675)" fill="#006183" stroke="#fff" stroke-miterlimit="10" stroke-width="2"/><path d="M18.9905,80.8259s3.2216-1.1051,3.7046.6288l.1611.578,3.8532-1.0735s.671,2.4083-1.1593,2.9182l-2.1193.5905L24.37,87.84c.3488,1.2523.7989,1.75,2.2438,1.3472A1.9056,1.9056,0,0,0,28.17,86.5733a2.5737,2.5737,0,0,1,1.5964,1.6314c.2953,1.06-.1,2.623-3.086,3.455-2.89.8051-4.8069-.1142-5.451-2.4261l-2.3349-8.3809Z" transform="translate(-0.4993 0.6158)" fill="#fff"/><path d="M40.6185,83.9356c.644,2.312-.6179,4.1169-4.0858,5.083s-5.4813.0737-6.1254-2.2382l-.9393-3.3716c-.6441-2.312.6178-4.1169,4.0858-5.083s5.4813-.0737,6.1253,2.2382Zm-4.161-2.2665c-.2952-1.06-.7452-1.5571-2.19-1.1545-1.5413.4294-1.6692,1.0879-1.374,2.1475l.7783,2.7936c.2952,1.06.7452,1.5572,2.2865,1.1278,1.445-.4026,1.5729-1.0611,1.2777-2.1207Z" transform="translate(-0.4993 0.6158)" fill="#fff"/><path d="M45.7935,82.39c.2684.9633.7879,1.3376,1.9439,1.0156a7.2985,7.2985,0,0,0,1.3913-.5953l-2.2812-8.1881s3.2753-.9125,3.7047.6288l2.5764,9.2478a4.92,4.92,0,0,0-2.2535.1088c-.9633.2684-1.8193.9221-2.7826,1.19-2.2156.6173-4.7423.4907-5.4937-2.2066L40.586,76.3667s3.3021-.8162,3.7046.6288Z" transform="translate(-0.4993 0.6158)" fill="#fff"/><path d="M54.8611,82.1477,52.2847,72.9a4.9279,4.9279,0,0,0,1.8682-.0014c.867-.2416,1.8193-.9221,2.9752-1.2442,1.3487-.3757,3.0242-.3234,3.4536,1.2179a3.5127,3.5127,0,0,1-.5119,2.634c-.51-1.83-2.4207-1.6094-3.7852-.9178L58.5389,82.68C58.5658,82.7765,55.2905,83.689,54.8611,82.1477Z" transform="translate(-0.4993 0.6158)" fill="#fff"/><path d="M61.1046,70.65c.289-.0805,3.3021-.8161,3.7046.6289l2.5227,9.0551s-3.2752.9125-3.7046-.6288Zm-1.0467-3.7569,2.1193-.59a1.1233,1.1233,0,0,1,1.2744.4754l.51,1.83-2.1193.5905a1.0257,1.0257,0,0,1-1.2744-.4755Z" transform="translate(-0.4993 0.6158)" fill="#fff"/><path d="M66.8336,72.5837c-.6441-2.3119.6983-3.8278,3.781-4.6866,2.6972-.7514,4.4532-.41,4.8021.8421a2.9272,2.9272,0,0,1-.4265,2.195c-.3221-1.1559-2.0939-1.1814-3.4426-.8056-1.06.2952-1.7766.7025-1.5887,1.3769.4294,1.5413,6.2237-2.253,7.5387,2.4673.5636,2.0229-.7252,3.7315-4,4.644-2.7937.7782-4.796.298-5.1449-.9543a3.2582,3.2582,0,0,1,.6619-2.4682c.6331,1.9,2.7792,1.4057,3.8389,1.1105.578-.161,1.6108-.5526,1.3424-1.5159C73.8356,73.1244,68.0413,76.9187,66.8336,72.5837Z" transform="translate(-0.4993 0.6158)" fill="#fff"/><path d="M84.377,68.1115a1.3645,1.3645,0,0,0-1.8476-1.0424,8.9622,8.9622,0,0,0-1.4876.6221l2.2812,8.1882s-3.2753.9124-3.7047-.6289l-2.5764-9.2478a4.8277,4.8277,0,0,0,2.4462-.1624c.9633-.2684,1.7229-.8953,2.6862-1.1637a6.1556,6.1556,0,0,1,3.2973-.0881,6.6935,6.6935,0,0,1,3.157-1.71c2.4082-.671,4.5874.0714,5.2584,2.48l1.9591,7.0322s-3.2753.9125-3.7047-.6288L90.719,66.6561c-.3488-1.2523-1.1574-1.5461-1.928-1.3314s-1.434.8147-1.2193,1.5854l1.986,7.1285s-3.3021.8161-3.7047-.6288Z" transform="translate(-0.4993 0.6158)" fill="#fff"/><path d="M100.2208,67.227c.2684.9633.7879,1.3376,1.9439,1.0156a7.3013,7.3013,0,0,0,1.3913-.5952l-2.2812-8.1882s3.2753-.9125,3.7047.6288l2.5764,9.2479a4.92,4.92,0,0,0-2.2535.1087c-.9633.2684-1.8193.9221-2.7826,1.1905-2.2156.6172-4.7423.4907-5.4937-2.2066l-2.0128-7.2249s3.3021-.8161,3.7046.6289Z" transform="translate(-0.4993 0.6158)" fill="#fff"/><path d="M107.1,61.3658c-.6441-2.312.6983-3.8279,3.7809-4.6867,2.6973-.7514,4.4533-.41,4.8022.8422a2.9274,2.9274,0,0,1-.4266,2.195c-.322-1.156-2.0938-1.1814-3.4425-.8057-1.06.2952-1.7766.7026-1.5887,1.3769.4294,1.5413,6.2237-2.2529,7.5387,2.4673.5636,2.023-.7252,3.7315-4.0005,4.644-2.7936.7783-4.7959.298-5.1448-.9543a3.2582,3.2582,0,0,1,.6619-2.4682c.6331,1.9,2.7792,1.4057,3.8389,1.11.5779-.161,1.6107-.5525,1.3424-1.5159C114.1022,61.9065,108.3079,65.7007,107.1,61.3658Z" transform="translate(-0.4993 0.6158)" fill="#fff"/><path d="M119.4286,62.3949l1.83-.51a1.0256,1.0256,0,0,1,1.2744.4754l.6172,2.2157-1.7339.483c-.578.1611-1.2633-.0632-1.3707-.4486Z" transform="translate(-0.4993 0.6158)" fill="#fff"/><path d="M129.7491,55.4712a1.2882,1.2882,0,0,0-1.8475-1.0424,8.9565,8.9565,0,0,0-1.4876.622l2.2811,8.1882s-3.2753.9125-3.7047-.6288l-2.5763-9.2479a4.919,4.919,0,0,0,2.2534-.1087c.9634-.2684,1.723-.8953,2.7826-1.19,2.2157-.6172,4.7423-.4907,5.4938,2.2066l2.0128,7.2249s-3.2753.9125-3.7047-.6289Z" transform="translate(-0.4993 0.6158)" fill="#dedc00"/><path d="M139.3314,56.3311c.2684.9633.7879,1.3376,1.9439,1.0156a7.3013,7.3013,0,0,0,1.3913-.5952l-2.2812-8.1882s3.2753-.9125,3.7047.6288l2.5764,9.2478a4.92,4.92,0,0,0-2.2535.1088c-.9633.2684-1.8193.9221-2.7826,1.19-2.2156.6173-4.7423.4907-5.4937-2.2065l-2.0128-7.2249s3.3021-.8161,3.7046.6288Z" transform="translate(-0.4993 0.6158)" fill="#dedc00"/><path d="M147.6428,54.1194l-.9393-3.3716c-.6441-2.3119.6178-4.1168,3.7-4.9756,2.9863-.832,4.7106.141,5.301,2.26.4831,1.7339.0455,3.5168-3.23,4.4292a4.7171,4.7171,0,0,1-1.7182.1673l.0805.289c.2952,1.06,1.2,1.3266,2.356,1.0045,2.023-.5636,3.0069-1.8758,2.7386-2.8391A3.1727,3.1727,0,0,1,157.09,52.63c.4025,1.445-.8436,2.9341-3.3482,3.6318C150.3966,57.2969,148.2869,56.4314,147.6428,54.1194Zm2.5238-3.61a3.73,3.73,0,0,0,1.21-.1294c.6744-.1879,1.295-.5684,1.0535-1.4354a1.0588,1.0588,0,0,0-1.4781-.8339c-.9633.2684-1.0912.9269-.796,1.9865l.1073.3853Z" transform="translate(-0.4993 0.6158)" fill="#dedc00"/><path d="M159.1881,53.0829l-2.5763-9.2478a4.9253,4.9253,0,0,0,1.8681-.0014c.867-.2415,1.8193-.9221,2.9753-1.2441,1.3486-.3757,3.0241-.3235,3.4535,1.2178a3.5126,3.5126,0,0,1-.5119,2.634c-.51-1.83-2.4207-1.6094-3.7852-.9178l2.2544,8.0918C162.8928,53.7118,159.6175,54.6242,159.1881,53.0829Z" transform="translate(-0.4993 0.6158)" fill="#dedc00"/><path d="M172.713,43.5018a1.2883,1.2883,0,0,0-1.8476-1.0425,8.9622,8.9622,0,0,0-1.4876.6221L171.659,51.27s-3.2753.9125-3.7047-.6289l-2.5764-9.2478a4.9211,4.9211,0,0,0,2.2535-.1087c.9633-.2684,1.723-.8953,2.7826-1.19,2.2156-.6172,4.7423-.4907,5.4937,2.2066l2.0128,7.2249s-3.2752.9124-3.7046-.6289Z" transform="translate(-0.4993 0.6158)" fill="#dedc00"/><path d="M188.68,42.6867c.6441,2.312-.7142,4.1437-3.8931,5.0293-1.6376.4563-3.1741.1577-4.8118.6139L175.869,33.5912c.289-.0805,3.2753-.9125,3.7584.8215l.6977,2.5046a10.4023,10.4023,0,0,1,.1989,1.0865,4.7723,4.7723,0,0,1,1.9583-1.1684c2.3119-.6441,4.6143.1678,5.2584,2.48l.9393,3.3716Zm-5.94,2.9a3.453,3.453,0,0,0,1.3328-.06c1.3487-.3758,1.573-1.0611,1.2778-2.1208l-.8052-2.89c-.322-1.156-.9379-1.5034-1.7085-1.2887a1.68,1.68,0,0,0-1.3314,1.928Z" transform="translate(-0.4993 0.6158)" fill="#dedc00"/><path d="M190.414,42.2037l-.9393-3.3716c-.6441-2.312.6178-4.1169,3.7-4.9756,2.9863-.832,4.7106.1409,5.301,2.26.4831,1.734.0455,3.5168-3.23,4.4293a4.715,4.715,0,0,1-1.7181.1672l.0805.289c.2952,1.06,1.2,1.3266,2.356,1.0046,2.023-.5636,3.0069-1.8758,2.7386-2.8391a3.1709,3.1709,0,0,1,1.1573,1.5461c.4026,1.445-.8435,2.934-3.3481,3.6318C193.2641,45.3544,191.058,44.5156,190.414,42.2037Zm2.5238-3.61a3.73,3.73,0,0,0,1.21-.1294c.6744-.1878,1.295-.5683,1.0535-1.4353a1.0588,1.0588,0,0,0-1.4781-.834c-.9633.2684-1.0912.9269-.796,1.9866l.1073.3853Z" transform="translate(-0.4993 0.6158)" fill="#dedc00"/><path d="M201.9593,41.1672l-2.5763-9.2478a4.9274,4.9274,0,0,0,1.8681-.0014c.867-.2416,1.8193-.9221,2.9753-1.2442,1.3486-.3757,3.0241-.3234,3.4535,1.2179a3.5127,3.5127,0,0,1-.5119,2.634c-.51-1.83-2.4207-1.6094-3.7852-.9179L205.6372,41.7C205.664,41.796,202.3887,42.7085,201.9593,41.1672Z" transform="translate(-0.4993 0.6158)" fill="#dedc00"/><path d="M218.3851,31.1931c.6441,2.3119-.6178,4.1168-3.6041,4.9487a7.3661,7.3661,0,0,1-2.5424.1893,2.178,2.178,0,0,0,.0646.6048c.2147.7707,1.3012.5718,2.4572.25l.6743-.1879c2.2157-.6172,4.57-1.4808,5.4559,1.6981.59,2.1193-.5483,3.9937-4.0163,4.96-2.9862.832-4.7959.298-5.1448-.9543a3.4016,3.4016,0,0,1,.2608-2.045c.7452,1.5572,2.795,1.09,3.951.7679,1.4449-.4026,2.0387-.88,1.824-1.65-.1878-.6743-.7926-.61-1.756-.3413l-.9633.2684c-2.3119.6441-4.3191.8919-4.8558-1.0348a4.1876,4.1876,0,0,1,.5119-2.634,4.2118,4.2118,0,0,1-1.6611-2.2362l-.2147-.7707c-.6978-2.5046,1.18-3.962,3.2993-4.5524,1.06-.2952,2.3229-.232,3.2862-.5a4.7746,4.7746,0,0,0,1.7925-1.0184Zm-3.6351-.752a5.9008,5.9008,0,0,0-1.4024.183c-1.06.2952-1.4339.8147-1.1387,1.8744l.0537.1926c.2952,1.06.6489,1.584,1.9012,1.2351,1.156-.322,1.2839-.98.9887-2.04Z" transform="translate(-0.4993 0.6158)" fill="#dedc00"/><path d="M221.2511,34.0279l1.83-.51a1.0254,1.0254,0,0,1,1.2743.4755l.6173,2.2156-1.734.483c-.578.1611-1.2633-.0632-1.3707-.4486Z" transform="translate(-0.4993 0.6158)" fill="#fff"/><path d="M232.8024,19.5985l3.8109,13.6791a3.61,3.61,0,0,0-1.8145.1941c-1.2523.3489-2.2315.9331-2.9058,1.1209-2.9863.832-5.1923-.0068-5.8364-2.3187l-.993-3.5643c-.6172-2.2156,1.0032-4.2242,3.3151-4.8682a4.7729,4.7729,0,0,1,2.28-.0125,7.9623,7.9623,0,0,1-.3916-1.0328L229.14,18.75C229.333,18.6965,232.3193,17.8646,232.8024,19.5985Zm-1.45,7.463a1.68,1.68,0,0,0-2.1365-.9619c-.7707.2147-1.1181.8306-.7961,1.9866l.8051,2.89a1.5507,1.5507,0,0,0,2.2171,1.2509,10.8583,10.8583,0,0,0,1.2254-.4452Z" transform="translate(-0.4993 0.6158)" fill="#fff"/><path d="M237.52,29.08l-.9393-3.3716c-.6441-2.312.6178-4.1169,3.7-4.9757,2.9863-.8319,4.7106.141,5.3011,2.26.483,1.734.0454,3.5168-3.23,4.4293a4.7182,4.7182,0,0,1-1.7182.1672l.0805.289c.2952,1.06,1.2,1.3266,2.3561,1.0046,2.0229-.5636,3.0069-1.8758,2.7385-2.8391a3.1718,3.1718,0,0,1,1.1574,1.5461c.4025,1.4449-.8436,2.934-3.3482,3.6318C240.37,32.2309,238.1642,31.3922,237.52,29.08Zm2.5238-3.61a3.73,3.73,0,0,0,1.21-.1294c.6744-.1878,1.295-.5684,1.0535-1.4353a1.0587,1.0587,0,0,0-1.478-.834c-.9634.2684-1.0913.9269-.7961,1.9865l.1073.3854Z" transform="translate(-0.4993 0.6158)" fill="#fff"/></svg>