<?xml version="1.0" encoding="utf-8"?>
<!-- Generator: Adobe Illustrator 23.0.3, SVG Export Plug-In . SVG Version: 6.00 Build 0)  -->
<svg version="1.1" id="Ebene_1" xmlns="http://www.w3.org/2000/svg" xmlns:xlink="http://www.w3.org/1999/xlink" x="0px" y="0px"
	 width="268.3px" height="111.2px" viewBox="0 0 268.3 111.2" style="enable-background:new 0 0 268.3 111.2;" xml:space="preserve"
	>
<style type="text/css">
	.st0{fill:#006183;stroke:#FFFFFF;stroke-width:2;stroke-miterlimit:10;}
	.st1{display:none;fill:#FFFFFF;}
	.st2{fill:#FFFFFF;}
	.st3{fill:#DEDC00;}
</style>
<g>
	
		<rect x="2.3" y="35.3" transform="matrix(0.9633 -0.2684 0.2684 0.9633 -9.9514 38.0489)" class="st0" width="263.8" height="40.3"/>
	<path class="st1" d="M255.4,1.3L266,39.1L12.9,109.6L2.3,71.8L255.4,1.3 M256.1,0l-255,71l11.1,39.8l255.1-71.1L256.1,0L256.1,0z"
		/>
	<g>
		<g>
			<path class="st2" d="M19,80.8c0,0,3.2-1.1,3.7,0.6l0.2,0.6l3.9-1.1c0,0,0.7,2.4-1.2,2.9l-2.1,0.6l0.9,3.4
				c0.3,1.3,0.8,1.7,2.2,1.3c1-0.3,2-0.9,1.6-2.6c0.8,0.4,1.4,0.9,1.6,1.6c0.3,1.1-0.1,2.6-3.1,3.5c-2.9,0.8-4.8-0.1-5.5-2.4
				L19,80.8L19,80.8z"/>
			<path class="st2" d="M40.6,83.9c0.6,2.3-0.6,4.1-4.1,5.1c-3.5,1-5.5,0.1-6.1-2.2l-0.9-3.4c-0.6-2.3,0.6-4.1,4.1-5.1
				c3.5-1,5.5-0.1,6.1,2.2L40.6,83.9z M36.5,81.7c-0.3-1.1-0.7-1.6-2.2-1.2c-1.5,0.4-1.7,1.1-1.4,2.1l0.8,2.8
				c0.3,1.1,0.7,1.6,2.3,1.1c1.4-0.4,1.6-1.1,1.3-2.1L36.5,81.7z"/>
			<path class="st2" d="M45.8,82.4c0.3,1,0.8,1.3,1.9,1c0.7-0.2,1.4-0.6,1.4-0.6l-2.3-8.2c0,0,3.3-0.9,3.7,0.6l2.6,9.2
				c0,0-1-0.2-2.3,0.1c-1,0.3-1.8,0.9-2.8,1.2c-2.2,0.6-4.7,0.5-5.5-2.2l-2-7.2c0,0,3.3-0.8,3.7,0.6L45.8,82.4z"/>
			<path class="st2" d="M54.9,82.1l-2.6-9.2c0.8,0.1,1.4,0.1,1.9,0c0.9-0.2,1.8-0.9,3-1.2c1.3-0.4,3-0.3,3.5,1.2
				c0.4,1.3-0.5,2.6-0.5,2.6c-0.5-1.8-2.4-1.6-3.8-0.9l2.3,8.1C58.6,82.8,55.3,83.7,54.9,82.1z"/>
			<path class="st2" d="M61.1,70.7c0.3-0.1,3.3-0.8,3.7,0.6l2.5,9.1c0,0-3.3,0.9-3.7-0.6L61.1,70.7z M60.1,66.9l2.1-0.6
				c0.6-0.2,1.2,0.2,1.3,0.5l0.5,1.8l-2.1,0.6c-0.6,0.2-1.2-0.1-1.3-0.5L60.1,66.9z"/>
			<path class="st2" d="M66.8,72.6c-0.6-2.3,0.7-3.8,3.8-4.7c2.7-0.8,4.5-0.4,4.8,0.8c0.2,0.6,0.1,1.3-0.4,2.2
				c-0.3-1.2-2.1-1.2-3.4-0.8c-1.1,0.3-1.8,0.7-1.6,1.4c0.4,1.5,6.2-2.3,7.5,2.5c0.6,2-0.7,3.7-4,4.6c-2.8,0.8-4.8,0.3-5.1-1
				c-0.2-0.6,0-1.5,0.7-2.5c0.6,1.9,2.8,1.4,3.8,1.1c0.6-0.2,1.6-0.6,1.3-1.5C73.8,73.1,68,76.9,66.8,72.6z"/>
			<path class="st2" d="M84.4,68.1c-0.2-0.8-0.8-1.3-1.8-1c-0.7,0.2-1.5,0.6-1.5,0.6l2.3,8.2c0,0-3.3,0.9-3.7-0.6L77,66
				c0,0,0.9,0.3,2.4-0.2c1-0.3,1.7-0.9,2.7-1.2c1.9-0.5,3.3-0.1,3.3-0.1s0.9-1.1,3.2-1.7c2.4-0.7,4.6,0.1,5.3,2.5l2,7
				c0,0-3.3,0.9-3.7-0.6l-1.4-5.1c-0.3-1.3-1.2-1.5-1.9-1.3c-0.8,0.2-1.4,0.8-1.2,1.6l2,7.1c0,0-3.3,0.8-3.7-0.6L84.4,68.1z"/>
			<path class="st2" d="M100.2,67.2c0.3,1,0.8,1.3,1.9,1c0.7-0.2,1.4-0.6,1.4-0.6l-2.3-8.2c0,0,3.3-0.9,3.7,0.6l2.6,9.2
				c0,0-1-0.2-2.3,0.1c-1,0.3-1.8,0.9-2.8,1.2c-2.2,0.6-4.7,0.5-5.5-2.2l-2-7.2c0,0,3.3-0.8,3.7,0.6
				C98.7,61.8,100.2,67.2,100.2,67.2z"/>
			<path class="st2" d="M107.1,61.4c-0.6-2.3,0.7-3.8,3.8-4.7c2.7-0.8,4.5-0.4,4.8,0.8c0.2,0.6,0.1,1.3-0.4,2.2
				c-0.3-1.2-2.1-1.2-3.4-0.8c-1.1,0.3-1.8,0.7-1.6,1.4c0.4,1.5,6.2-2.3,7.5,2.5c0.6,2-0.7,3.7-4,4.6c-2.8,0.8-4.8,0.3-5.1-1
				c-0.2-0.6,0-1.5,0.7-2.5c0.6,1.9,2.8,1.4,3.8,1.1c0.6-0.2,1.6-0.6,1.3-1.5C114.1,61.9,108.3,65.7,107.1,61.4z"/>
			<path class="st2" d="M119.4,62.4l1.8-0.5c0.6-0.2,1.2,0.1,1.3,0.5l0.6,2.2l-1.7,0.5c-0.6,0.2-1.3-0.1-1.4-0.4L119.4,62.4z"/>
			<path class="st3" d="M129.7,55.5c-0.3-1-0.8-1.3-1.8-1c-0.7,0.2-1.5,0.6-1.5,0.6l2.3,8.2c0,0-3.3,0.9-3.7-0.6l-2.6-9.2
				c0,0,1,0.2,2.3-0.1c1-0.3,1.7-0.9,2.8-1.2c2.2-0.6,4.7-0.5,5.5,2.2l2,7.2c0,0-3.3,0.9-3.7-0.6L129.7,55.5z"/>
			<path class="st3" d="M139.3,56.3c0.3,1,0.8,1.3,1.9,1c0.7-0.2,1.4-0.6,1.4-0.6l-2.3-8.2c0,0,3.3-0.9,3.7,0.6l2.6,9.2
				c0,0-1-0.2-2.3,0.1c-1,0.3-1.8,0.9-2.8,1.2c-2.2,0.6-4.7,0.5-5.5-2.2l-2-7.2c0,0,3.3-0.8,3.7,0.6L139.3,56.3z"/>
			<path class="st3" d="M147.6,54.1l-0.9-3.4c-0.6-2.3,0.6-4.1,3.7-5c3-0.8,4.7,0.1,5.3,2.3c0.5,1.7,0,3.5-3.2,4.4
				c-1,0.3-1.7,0.2-1.7,0.2l0.1,0.3c0.3,1.1,1.2,1.3,2.4,1c2-0.6,3-1.9,2.7-2.8c0.7,0.5,1,1.1,1.2,1.5c0.4,1.4-0.8,2.9-3.3,3.6
				C150.4,57.3,148.3,56.4,147.6,54.1z M150.2,50.5c0.3,0,0.7,0,1.2-0.1c0.7-0.2,1.3-0.6,1.1-1.4c-0.2-0.7-0.6-1.1-1.5-0.8
				c-1,0.3-1.1,0.9-0.8,2L150.2,50.5L150.2,50.5z"/>
			<path class="st3" d="M159.2,53.1l-2.6-9.2c0.8,0.1,1.4,0.1,1.9,0c0.9-0.2,1.8-0.9,3-1.2c1.3-0.4,3-0.3,3.5,1.2
				c0.4,1.3-0.5,2.6-0.5,2.6c-0.5-1.8-2.4-1.6-3.8-0.9l2.3,8.1C162.9,53.7,159.6,54.6,159.2,53.1z"/>
			<path class="st3" d="M172.7,43.5c-0.3-1-0.8-1.3-1.8-1c-0.7,0.2-1.5,0.6-1.5,0.6l2.3,8.2c0,0-3.3,0.9-3.7-0.6l-2.6-9.2
				c0,0,1,0.2,2.3-0.1c1-0.3,1.7-0.9,2.8-1.2c2.2-0.6,4.7-0.5,5.5,2.2l2,7.2c0,0-3.3,0.9-3.7-0.6L172.7,43.5z"/>
			<path class="st3" d="M188.7,42.7c0.6,2.3-0.7,4.1-3.9,5c-1.6,0.5-3.2,0.2-4.8,0.6l-4.1-14.7c0.3-0.1,3.3-0.9,3.8,0.8l0.7,2.5
				c0.1,0.4,0.2,1.1,0.2,1.1s0.8-0.8,2-1.2c2.3-0.6,4.6,0.2,5.3,2.5L188.7,42.7L188.7,42.7z M182.7,45.6c0.5,0.1,0.9,0,1.3-0.1
				c1.3-0.4,1.6-1.1,1.3-2.1l-0.8-2.9c-0.3-1.2-0.9-1.5-1.7-1.3c-0.9,0.2-1.6,1.1-1.3,1.9L182.7,45.6z"/>
			<path class="st3" d="M190.4,42.2l-0.9-3.4c-0.6-2.3,0.6-4.1,3.7-5c3-0.8,4.7,0.1,5.3,2.3c0.5,1.7,0,3.5-3.2,4.4
				c-1,0.3-1.7,0.2-1.7,0.2l0.1,0.3c0.3,1.1,1.2,1.3,2.4,1c2-0.6,3-1.9,2.7-2.8c0.7,0.5,1,1.1,1.2,1.5c0.4,1.4-0.8,2.9-3.3,3.6
				C193.3,45.4,191.1,44.5,190.4,42.2z M192.9,38.6c0.3,0,0.7,0,1.2-0.1c0.7-0.2,1.3-0.6,1.1-1.4c-0.2-0.7-0.6-1.1-1.5-0.8
				c-1,0.3-1.1,0.9-0.8,2L192.9,38.6L192.9,38.6z"/>
			<path class="st3" d="M202,41.2l-2.6-9.2c0.8,0.1,1.4,0.1,1.9,0c0.9-0.2,1.8-0.9,3-1.2c1.3-0.4,3-0.3,3.5,1.2
				c0.4,1.3-0.5,2.6-0.5,2.6c-0.5-1.8-2.4-1.6-3.8-0.9l2.3,8.1C205.7,41.8,202.4,42.7,202,41.2z"/>
			<path class="st3" d="M218.4,31.2c0.6,2.3-0.6,4.1-3.6,4.9c-1.3,0.3-2.5,0.2-2.5,0.2s0,0.3,0.1,0.6c0.2,0.8,1.3,0.6,2.5,0.2
				l0.7-0.2c2.2-0.6,4.6-1.5,5.5,1.7c0.6,2.1-0.5,4-4,5c-3,0.8-4.8,0.3-5.1-1c-0.2-0.6,0-1.2,0.3-2c0.7,1.6,2.8,1.1,4,0.8
				c1.4-0.4,2-0.9,1.8-1.7c-0.2-0.7-0.8-0.6-1.8-0.3l-1,0.3c-2.3,0.6-4.3,0.9-4.9-1c-0.2-0.8,0.1-1.6,0.5-2.6
				c-0.7-0.3-1.5-1.6-1.7-2.2l-0.2-0.8c-0.7-2.5,1.2-4,3.3-4.6c1.1-0.3,2.3-0.2,3.3-0.5c0.5-0.1,1-0.4,1.8-1L218.4,31.2z
				 M214.7,30.4c-0.4,0-0.9,0-1.4,0.2c-1.1,0.3-1.4,0.8-1.1,1.9l0.1,0.2c0.3,1.1,0.6,1.6,1.9,1.2c1.2-0.3,1.3-1,1-2L214.7,30.4z"/>
			<path class="st2" d="M221.3,34l1.8-0.5c0.6-0.2,1.2,0.1,1.3,0.5l0.6,2.2l-1.7,0.5c-0.6,0.2-1.3-0.1-1.4-0.4L221.3,34z"/>
			<path class="st2" d="M232.8,19.6l3.8,13.7c-0.7-0.1-1.1,0-1.8,0.2c-1.3,0.3-2.2,0.9-2.9,1.1c-3,0.8-5.2,0-5.8-2.3l-1-3.6
				c-0.6-2.2,1-4.2,3.3-4.9c1.2-0.3,2.3,0,2.3,0s-0.3-0.6-0.4-1l-1.1-4C229.3,18.7,232.3,17.9,232.8,19.6z M231.4,27.1
				c-0.2-0.9-1.3-1.2-2.1-1c-0.8,0.2-1.1,0.8-0.8,2l0.8,2.9c0.3,1.1,0.9,1.6,2.2,1.3c0.6-0.2,1.2-0.4,1.2-0.4L231.4,27.1z"/>
			<path class="st2" d="M237.5,29.1l-0.9-3.4c-0.6-2.3,0.6-4.1,3.7-5c3-0.8,4.7,0.1,5.3,2.3c0.5,1.7,0,3.5-3.2,4.4
				c-1,0.3-1.7,0.2-1.7,0.2l0.1,0.3c0.3,1.1,1.2,1.3,2.4,1c2-0.6,3-1.9,2.7-2.8c0.7,0.5,1,1.1,1.2,1.5c0.4,1.4-0.8,2.9-3.3,3.6
				C240.4,32.2,238.2,31.4,237.5,29.1z M240,25.5c0.3,0,0.7,0,1.2-0.1c0.7-0.2,1.3-0.6,1.1-1.4c-0.2-0.7-0.6-1.1-1.5-0.8
				c-1,0.3-1.1,0.9-0.8,2L240,25.5L240,25.5z"/>
		</g>
	</g>
</g>
</svg>
