<svg id="Layer_1" data-name="Layer 1" xmlns="http://www.w3.org/2000/svg" viewBox="0 0 1260.2499 467.1016"><title>partner</title><path d="M1014.2539,288.27c10.1474-3.9052,32.73-10.5556,38.3076-12.1865a22.299,22.299,0,0,0-6.0928-14.5254l-.418-.4492c-2.1142-2.0176-8.7871-6.9531-26.4922-11.1152-5.2138,7.038-20.5976,16.6279-41.8066,29.63-17.6894,10.835-54.4267,28.8155-54.4267,28.8155s-44.6221,21.584-59.2657,34.414c-29.8974,26.1748-21.456,50.5059-15.9463,50.5059,5.0684,0,13.8926-16.1348,38.9629-35.1865C922.9062,330.9238,964.916,307.2793,1014.2539,288.27Z" transform="translate(0.0001)" fill="#fff"/><path d="M1195.7978,82.2383c3.541-9.0972,4.6992-13.1953-.9326-15.62-4.71-2.0375-12.8516-4.3442-13.9678-2.9394C1179.2138,65.8359,1193.1709,80.5757,1195.7978,82.2383Z" transform="translate(0.0001)" fill="#fff"/><path d="M1257.44,67.3164c-4.9346-1.8242-24.77-4.334-39.1026-5.8145-5.5673-4.9243-18.42-13.7636-21.1132-12.2729-2.81,1.5771,8.8828,18.1514,10.2773,21.4775a65.9765,65.9765,0,0,1-8.12,22.42c-22.2178,38.2017-61.7813,35.4234-65.9649,35.5088-5.9755-.1284-27.5927.1187-45.5292,4.57-32.7833,8.1753-54.8077,25.3071-69.129,34.8759-19.8134,12.5411-60.8,31.0249-115.2695,16.21-65.7715-17.894-106.3916-92.334-109.3467-97.2363-4.9248-8.2173-9.8007-6.3076-6.872,2.8213,2.9072,9.1621,18.3447,51.4829,51.22,82.5717,32.3975,30.649,76.9336,53.8418,141.1387,59.9893,54.2666,3.68,70.0908,15.5176,74.82,20.0879.2041.2139.376.4072.5478.5576,12.294,12.38,16.3809,39.3066-9.9658,55.3555-8.5723,4.8906-54.2129,33.2978-55.9824,34.372a.0211.0211,0,0,1-.0215.0215c-34.667,20.5967-65.8145,35.0791-103.7588,73.1836-21.3213,21.3916-17.3467,51.086-11.6123,51.086,5.6738,0,18.6016-18.3018,42.5078-40.8086,53.8379-50.7422,137.7393-90.7354,173.9444-115.8164,23.0332-15.7276,45.3681-38.5772,56.374-69.3819a.8513.8513,0,0,1,.0761-.2363.2722.2722,0,0,0,.0323.1289c21.207-21.1431,37.1533-46.7334,49.2842-70.41,1.2568,6.917,6.6269,30.2813,4.2568,41.6065-2.8633,13.6777,10.4277,8.0884,13.0127-10.2456,1.792-12.7871,1.9316-45.6568,1.9316-45.6568.1387-20.2431,2.2959-30.4775,5.042-39.6816,3.8408-9.0327,6.791-15.4482,9.2051-17.9687a48.2188,48.2188,0,0,1,24.5977-14.15C1260.5293,82.2812,1262.3974,69.1724,1257.44,67.3164Z" transform="translate(0.0001)" fill="#fff"/><path d="M981.5878,170.5171a126.7456,126.7456,0,0,0,29.8008-13.7529c1.6524-1.105,3.4219-2.3174,5.2783-3.6045,14.6426-10.063,36.7852-25.2852,67.96-33.0415,3.4541-.8692,7.0166-1.5987,10.5566-2.1783a88.0361,88.0361,0,1,0-113.5957,52.5772Z" transform="translate(0.0001)" fill="#fff"/><path d="M45.9057,201.6216a3.0269,3.0269,0,0,0-2.2075-1.4322H42.3955a3.076,3.076,0,0,0-2.2076,1.4322L.2626,289.1484a2.2933,2.2933,0,0,0,2.21,3.38h8.2026a3.2787,3.2787,0,0,0,2.9874-1.9492c2.6035-5.9834,5.3178-11.8359,7.9257-17.8193H64.121l8.0606,17.8193a3.0229,3.0229,0,0,0,2.99,1.9492h8.1939a2.3,2.3,0,0,0,2.2119-3.38ZM26.66,261.5693l15.8672-35.6255h.65l16.0015,35.6255Z" transform="translate(0.0001)" fill="#fff"/><path d="M174.66,201.4956h-8.7119a2.4577,2.4577,0,0,0-2.4668,2.4688v53.9682c0,12.8828-8.4644,22.8985-21.86,22.8985-13.2685,0-21.5776-10.1543-21.5776-23.1514V203.9644a2.4735,2.4735,0,0,0-2.4785-2.4688h-8.7212a2.5472,2.5472,0,0,0-2.46,2.4688v54.6225c0,19.7637,14.8213,35.2393,35.2373,35.2393,20.5479,0,35.503-15.4756,35.503-35.2393V203.9644A2.5526,2.5526,0,0,0,174.66,201.4956Z" transform="translate(0.0001)" fill="#fff"/><path d="M233.871,240.1162c-10.7993-4.4219-16.5273-8.9707-16.5273-16.3892,0-4.8061,3.773-11.7031,14.6924-11.7031,7.55,0,16.6553,5.9863,17.5693,6.5025,1.812,1.1684,3.5059.3945,4.54-1.2984,1.0415-1.5605,2.2192-3.3711,3.2583-4.94a3.0869,3.0869,0,0,0-.7823-4.4234,44.0654,44.0654,0,0,0-24.0576-7.6753c-20.6826,0-28.4848,13.92-28.4848,24.065,0,15.0786,10.4033,21.9731,23.6669,27.5669,12.8785,5.3262,19.6426,10.2783,19.6426,18.081,0,6.6358-5.7241,12.083-14.7011,12.083-9.9976,0-20.0332-8.3144-20.8062-8.9638-1.43-1.1778-3.2485-.65-4.4194,1.041-1.1734,1.6914-2.2168,3.6309-3.3828,5.3291-1.2984,2.2129-.38,3.1182.7749,4.1631a42.172,42.172,0,0,0,27.9746,10.2715c16.9043,0,28.997-11.044,28.997-24.5743C261.8256,253.3916,248.9531,246.2275,233.871,240.1162Z" transform="translate(0.0001)" fill="#fff"/><path d="M351.7436,201.4956H286.3442a2.4646,2.4646,0,0,0-2.4712,2.4688v7.2871a2.472,2.472,0,0,0,2.4712,2.4687h25.9394V290.06a2.5587,2.5587,0,0,0,2.4693,2.4687h8.5893a2.5609,2.5609,0,0,0,2.4644-2.4687V213.72h25.937a2.4728,2.4728,0,0,0,2.4692-2.4687v-7.2871A2.4654,2.4654,0,0,0,351.7436,201.4956Z" transform="translate(0.0001)" fill="#fff"/><path d="M446.7021,229.3242c0-15.4673-12.7383-27.8286-28.3555-27.8286H382.978a2.4671,2.4671,0,0,0-2.4693,2.4688V290.06a2.4741,2.4741,0,0,0,2.4693,2.4687h8.4526a2.564,2.564,0,0,0,2.4737-2.4687V256.8955h19.6362l17.2969,34.459a2.3988,2.3988,0,0,0,2.0756,1.1738H443.06a2.4606,2.4606,0,0,0,2.2075-3.7744L427.45,255.72C438.76,251.166,446.7021,241.2852,446.7021,229.3242Zm-29.39,16.3877H394.1611v-31.603h23.1514c8.455,0,15.8691,7.0171,15.8691,15.4839A16.1564,16.1564,0,0,1,417.3125,245.7119Z" transform="translate(0.0001)" fill="#fff"/><path d="M514.3579,201.6216a3.0733,3.0733,0,0,0-2.2149-1.4322H510.85a3.0351,3.0351,0,0,0-2.2051,1.4322l-39.9321,87.5268a2.2907,2.2907,0,0,0,2.21,3.38h8.18a3.2672,3.2672,0,0,0,2.999-1.9492c2.6079-5.9834,5.336-11.8359,7.9346-17.8193h42.5215l8.0688,17.8193a3.0326,3.0326,0,0,0,2.9893,1.9492h8.1987a2.3009,2.3009,0,0,0,2.2119-3.38Zm-19.2432,59.9477,15.8623-35.6255h.65l15.9893,35.6255Z" transform="translate(0.0001)" fill="#fff"/><path d="M632.5781,280.4326H593.7846V203.9644a2.5554,2.5554,0,0,0-2.4785-2.4688H582.73a2.4667,2.4667,0,0,0-2.4736,2.4688V290.06a2.4738,2.4738,0,0,0,2.4736,2.4687h49.8477a2.4663,2.4663,0,0,0,2.4687-2.4687V282.91A2.467,2.467,0,0,0,632.5781,280.4326Z" transform="translate(0.0001)" fill="#fff"/><path d="M672.0752,201.4956h-8.57a2.5528,2.5528,0,0,0-2.4814,2.4688V290.06a2.5608,2.5608,0,0,0,2.4814,2.4687h8.57a2.5623,2.5623,0,0,0,2.4736-2.4687V203.9644A2.5542,2.5542,0,0,0,672.0752,201.4956Z" transform="translate(0.0001)" fill="#fff"/><path d="M746.4365,201.6216a3.0877,3.0877,0,0,0-2.2149-1.4322h-1.3027a3.0756,3.0756,0,0,0-2.209,1.4322l-39.9238,87.5268a2.2972,2.2972,0,0,0,2.2031,3.38h8.2051a3.2686,3.2686,0,0,0,2.9863-1.9492c2.6-5.9834,5.3281-11.8359,7.9414-17.8193h42.5137l8.0625,17.8193a3.046,3.046,0,0,0,2.9961,1.9492h8.1914a2.2991,2.2991,0,0,0,2.2168-3.38Zm-19.2451,59.9477,15.8642-35.6255h.6553L759.7,261.5693Z" transform="translate(0.0001)" fill="#fff"/></svg>