<svg id="potsdam" xmlns="http://www.w3.org/2000/svg" viewBox="0 0 2623.3462 1408.2603"><title>potsdam</title><path d="M1996.2559,950.1722c0-1.4968,0-4.7753,1.1627-5.3684-1.1627.5931-1.1627,3.8716-1.1627,5.3684" transform="translate(-187.3348 -46)" fill="#fff"/><path d="M187.5866,273.1139c-.2518-3.3161-.2518-7.2584-.2518-10.0473,7.6326-1.4286,8.1739-8.108,19.1862-5.8933,2.2359-1.118,2.5136-3.8716,4.2506-5.5686h11.3206c2.7748-3.655,7.8962-4.5094,7.2866-10.125,9.8967-.3012,15.2723-6.47,18.0777-10.937-.5719-5.552-13.5659.8708-13.8107-4.1564,8.7364,1.0874,11.0053-3.9022,18.8709-3.9022,5.3826-14.3543,28.7887-12.0855,41.7851-20.1982.8308-4.2341,1.41-8.9765,7.3243-8.3928-5.9145-1.7017-13.533-.5837-14.1049-6.1522-13.8342,0-27.1319,0-40.6366.5083,12.4244-6.717,32.1779-5.552,43.4985-12.2926,23.7145,1.3862,38.9538-4.5189,58.9449-6.4558,20.6267-1.9582,48.33,2.5065,62.4212-2.2194,19.1956-1.937,40.6813-.89,58.6743-4.2341,53.6682-4.1587,109.603-9.4943,165.4318-5.83a867.93,867.93,0,0,0,154.4736-1.3956c39.255,0,84.0645-8.7317,112.592-7.0278,4.5494,1.3486,3.3938-2.8384,7.1266-2.2288,24.517,5.9074,52.788,5.9074,77.6228,7.5644,6.22.5413,12.4244-2.2806,18.0235-2.2806,30.514,1.7039,63.2308,4.4953,96.8561,5.3684,3.6457,1.0874,5.0578,4.1541,11.0124,3.3844,3.3938-1.3956-2.3042-1.3956-1.0874-3.6786,8.9836.8191,23.66-3.37,23.66,5.5992,28.7817,2.8219,61.52-8.97,76.8061,4.7589q2.5418,36.5283-23.7239,46.2027c1.944,8.374-3.3986,10.9817-7.6326,13.99.84,3.94-1.4286,11.7843,1.9487,13.7048-3.3773,5.6532-.5389,11.4995-1.68,16.602-2.2383,10.8687-13.0105,16.2725-17.7694,24.8724-8.4893,3.0855-17.181,6.4252-24.03,11.4783-73.3652,5.0272-164.5539-3.5939-237.3825,6.517-23.9451,2.9679-45.4614,0-71.39,1.8876-5.691.61-13.8719,4.1729-21.5375,4.1729-1.0732.3295-2.1841-1.697-3.881-1.697-27.1154,3.062-57.6317-1.3956-81.37,3.062-40.3353,7.089-90.5556.3625-132.0959-1.0355-25.9575,4.18-54.1531,2.5089-79.3245,1.0355-38.1465-3.2408-75.9517-3.8339-112.6061-6.863-12.6574-.5625-24.8654-3.98-37.29-4.813-7.0324-.84-14.6227.8332-21.4221,0-11.0053-.84-22.027-5.006-33.3311-5.86-5.6321-.28-11.316.8544-16.6138,0-29.0971-1.9746-57.634-7.0112-86.1615-10.08-1.9323-6.404-10.68-6.404-18.0613-7.3431" transform="translate(-187.3348 -46)" fill="#fff"/><path d="M2464.29,148.8106c8.4623-5.6156,17.2693-3.069,27.3861-2.2453.579,5.9074-7.2949,3.5633-3.9081,10.6522,8.7058,8.11,30.1538,4.14,46.0109,4.7636,3.0608.5249,2.2347,4.4271,4.2341,5.3h26.2139c4.247,6.39,11.5819,9.2753,16.1008,14.8462,45.7485,6.1381,80.7848-7.8679,126.4791-6.717,0,3.33,4.4965,2.5442,4.4965,5.3214-42.6018,1.3956-75.6564,11.1958-119.9551,10.9181a52.5533,52.5533,0,0,0-4.8118,5.0908c-1.697,6.07,5.7,4.3964,4.0187,10.88,6.4946-.5555,9.8555,5.3214,13.1952,5.3214,35.8847,7.3054,71.4365-19.657,111.5729-8.9836,6.1616,8.3905,13.2082,14.5992,26.5211,15.0934v9.24c8.2128,8.4046,29.3454,6.7312,42.3229,5.3355v10.085c7.2961,4.2365,15.2464,7.8915,26.5141,8.0916-.6073,5.352-3.9328,7.056-6.2217,11.2759-9.5484-1.4263-13.7824,2.7913-18.579,5.585-21.7022,3.33-42.9336,7.88-63.85,11.7749-19.7041,0-36.1166,3.3467-53.3294,6.4322-2.4912.579-4.2023-.57-5.8992-1.9746-52.5291,9.579-119.9928,6.4935-177.5715,11.483-9.047.85-20.9408-1.904-26.2751,2.2524-6.7488.5013-16.3514-1.4027-20.33,1.9982-55.604,1.3321-116.8484-1.4969-168.7809,3.608-55.3263-3.0455-113.4993,5.3073-170.53,1.365-41.2379-3.6409-80.9778,2.4689-120.8118-.57-22.8672-2.516-44.8848-3.841-67.2036-1.3957-28.2333,3.0691-50.2438-2.4453-70.55-9.1624,1.1038-12.3774-4.4953-18.5555-16.4114-18.5555,0-6.1381,0-11.97-.3248-17.3387,3.7186.2778,2.0217,4.7448,5.4132,5.3685,5.1449-8.9929-5.6368-12.1467-5.4132-20.7843-2.483-1.9887-7.5808-1.9887-10.3886-3.8857,0-4.78,9.0635.5084,10.3886-2.5842-3.8622-5.8227-13.18-5.8227-18.2542-10.3251-.3389-25.8138-15.27-38.1065-24.8631-53.7859,1.664-8.9294,8.4517-13.3965,14.112-19.04,14.1284,0,26.214-2.7937,35.0422-8.3764,59.2061-1.4286,123.8585-1.9746,178.9153,1.9206,14.7145,1.72,29.4054,3.0384,38.4384,0,70.2491,3.0384,154.0794-.5249,219.619,1.72,5.059-4.5118,12.44,0,18.64,0,2.7772,0,3.934-2.2453,6.1769-2.2453,36.14.8873,81.0166,2.2453,119.13-.8237,5.3438-.572,9.3378,1.3486,14.1061,1.3486,5.6438,0,12.3832-4.78,18.0683,0,5.1284-3.8952,18.0553-2.4289,21.1455,1.72M1804.8784,159.19V155.217h-3.6456c0,2.5089,1.41,3.688,3.6456,3.9728" transform="translate(-187.3348 -46)" fill="#fff"/><path d="M1501.4362,46h8.4516c5.3308,6.9783,3.9187,20.46,3.9187,32.4744,16.9762,2.7914,43.4961,1.6734,57.6105,1.118,6.27,3.102,5.66,1.9511,15.27,1.6734-.6026,2.8619,2.2358,1.4286,4.4741,1.4286,7.0936,14.5826,17.52,25.7573,39.8481,24.6064a62.59,62.59,0,0,0,26.2046,10.0662c6.2251,5.3591,14.4061,8.7082,24.3476,10.9206,0,2.5912,3.4008,1.4662,1.944,5.3849,4.5424,0,9.2848,0,12.7022,2.2194,3.9492,2.2288,5.359,7.2866,7.88,9.2777a25.6523,25.6523,0,0,0,5.971,2.26c6.7406,4.4364,7.5949,6.7006,12.6857,11.4853,1.6686,1.6875,5.3214,3.0832,7.9291,5.0037,3.8952,3.6245,6.1381,10.6734,10.118,14.5756,1.1414.84,3.0925.84,3.994,1.9441,1.08.2942,1.08,3.3608,1.92,4.773,7.6208,8.075,15.6041,15.9406,22.9,23.7921-1.6969,7.5667,3.9564,8.96,5.5827,12.8552a80.7591,80.7591,0,0,1,.6237,11.2147c11.2923,13.1823,14.4061,33.3476,18.5931,53.214,2.6477,2.2759,8.2375.586,10.2191,4.2647-10.2191,0-8.4916,10.6592-20.05,9.5013,2.2429-2.8219,5.6438-3.6551,1.6475-8.1033-8.1034-2.8714,0,9.2612-6.7289,8.1033-2.6077-7.0419-1.3745-.8944-6.5029,0-21.9963-1.4192-44.021-.8944-68.02.5954-3.4033,0,1.1014-7.6373-3.4033-6.171-2.483,1.9205-3.1161,5.5756-7.0395,6.171-5.3849-5.0907-9.0635-.5954-19.7981-2.0146-1.9911-1.4027-1.69-6.6841-6.2087-5.6227-33.3312,5.6227-64.6359,8.2-97.9364,3.3868-3.7163-1.9205.8332,4.813-3.7163,3.6551-3.6174-.8944-5.0272-3.6551-9.5649-3.6551-7.3478,2.7607-18.6778,2.2359-25.4184,0-5.6533-.84-3.3162,4.813-9.2989,4.25-1.4122-4.25,2.2264-3.4173,1.4568-6.171-2.869,2.7537-8.8235,1.9205-10.7746,6.171-2.5677-6.171-6.2322-2.0146-12.4386-2.0146-.5271-5.6227,2.5913-4.1564-.5271-8.0821-7.3785,1.398,0,7.2725-3.6787,10.0967-11.5442-6.5334-27.6237,3.5916-39.834-.5954-1.6945-3.6551,2.3018-1.9817,1.7228-5.0508-5.1143,1.3957-8.4375,6.9784-14.4226,3.6316,1.3815-2.2359,8.1975.5248,5.9851-5.6227-5.9851-1.0614-7.3972,5.6227-12.98,6.1475-3.4009.8944-9.0777-1.3344-13.01-3.6009-23.7286,4.4953-41.7851-1.08-60.463,2.2665-11.0052-4.8131-22.5588-.5931-34.11.81-29.3677,2.5771-60.75,2.5771-86.67,3.9022-9.0235-2.483-21.77-3.3774-28.5275-9.5249.819-5.545-2.5207-6.7241-3.7-10.9111,2.3347-7.835,2.876-18.1483,3.415-27.7037,6.1993-4.4647,6.7853-14.6062,7.9033-23.8534,4.7965-4.1564,9.5931-8.6846,9.5931-17.6,6.2252.5554,4.5282-4.813,7.0442-7.8091,2.2759-2.8478,6.5476-3.9823,5.0649-9.5272,9.3083-.6237,7.6443-11.8079,17.8541-11.8079-3.448-5.0578,3.0925-4.4647,4.227-5.83,1.3886-1.3957,1.1414-6.5312,4.813-5.9616,2.2429-4.4647,8.4681-5.6156,10.1109-11.1888a22.0158,22.0158,0,0,0,11.2736-9.4778c4.5729.5248,3.1773-4.25,7.6514-2.5466,1.4121-5.6156,9.3248-5.86,10.7346-11.2265,8.1974-2.763,16.9527-6.4181,22.3282-12.0314,7.2866.539,11.0053-2.81,13.5259-4.7518,17.4681-1.165,27.0942-8.9624,45.685-8.9624,2.8407-4.5212,6.5029-8.1433,9.0942-13.6883,2.8219-.8567,4.8365-3.6786,5.63-7.0654,4.1893,0,5.0907-3.8551,7.915-6.4464,3.0573-1.9275,9.6072-.4942,10.1839-5.5544,2.81,0-.5767,5.06,3.1184,3.6269,2.5-5.2979,9.3154-6.6936,16.31-7.5973,1.158,3.97-2.4924,2.8242-2.1982,5.6462,20.6007-6.1405,39.7563,3.3844,58.4107-2.2689-1.4263-6.7617,0-23.4767,1.1344-32.4744m-67.7426,36.6944c1.6828-.5555,3.4009-1.4286,3.9022-3.6269h-3.9022v3.6269Z" transform="translate(-187.3348 -46)" fill="#fff"/><path d="M1553.9418,1133.2887c.5013,4.773-8.4823-.5625-6.2558,6.1993-7.8256-1.4263-11.5513,1.6734-17.7223,1.6734v-5.7074c9.8967,1.1838,15.4958-1.0709,23.9781-2.1653m-48.5728,8.96c-14.9616-4.187-25.9739,7.2725-36.1154,1.6757-2.2594,2.5442-8.7694,2.5442-13.58,2.5442,11.3207,4.4506,42.3312,3.0526,52.5339-4.8106,1.68,2.2664,5.5991,2.2664,9.586,2.2664-1.165-2.763-10.1485-7.2866-12.4244-1.6757m-84.1092,12.61h6.2157V1148.69c-7.9032.8308-20.3653-2.2218-24.3311,2.2288,9.61,0,15.8112,2.4924,22.027,1.0474.61,1.445-5.5991-1.0474-3.9116,2.8925m22.02-3.94c0-4.4506-7.3573-1.398-9.579-2.7607-.3319,4.4341,7.0254,1.3627,9.579,2.7607m8.1362,0c.8779-4.4506-4.18-1.398-5.9451-2.7607-1.0967,3.8081,4.0011,1.3627,5.9451,2.7607m600.4758-246.2107c0,3.9563-3.415,3.9563-2.0029,9.5555,3.1114-3.9705,10.2239-3.0856,9.8991-10.0639-2.25-1.1509-7.0395,2.1983-7.8962-1.1509,2.8055-2.2664,3.6951-5.02,10.1415-5.02V904.2c7.3572.5084,7.3572-3.9728,14.4521-3.9728-.8791-3.9092-5.984-3.9092-6.5253-7.7809h-12.1538a47.4252,47.4252,0,0,0-.2683-5.6156c5.6368-1.3815,12.7234-1.3815,16.3714-3.6786,1.1509-4.4811-7.6279.8732-6.5029-3.8692,8.2.8143,8.8106-5.06,14.41-5.9639a49.49,49.49,0,0,0-.6108-9.4519c-1.0861,0-3.3715,0-3.3715-1.4993-.5389-4.7424,1.7134-6.9477,4.6048-10.2332h10.9287c-1.38-3.6857,2.2289-3.6857,1.9982-6.2393-3.9563-1.65-9.6166-3.0455-14.3908-4.7589-1.4275-8.3669,8.1657-5.3379,8.1657-12.015-9.5932-2.4994-18.8791-6.6864-32.4592-4.7424.8567-1.944-1.0944-6.1475.8567-6.1475h9.0447c2.8078-6.2016,6.7642-10.1109,9.0236-16.6114,5.5991,1.4427,7.3184-1.41,6.8324-6.9336,6.7018,0,6.7018-5.352,10.9287-8.4352,4.8425,0,15.563,5.3661,17.26-1.358.2848-2.2994-6.2016,1.358-5.9463-1.73V776.71h7.8668c-1.1274-3.3091-6.7006-3.3091-5.931-9.5178,2.8537-1.0874,9.8944,1.7063,9.61-1.3933-3.109-6.6888-15.5335-4.2223-18.0165-9.25,7.6373,1.6757,9.58-3.0832,15.803-3.0832,2.4983,5.6439,9.3307,5.6439,16.0725,5.6439,0-2.5607-4.2494-2.5607-4.2494-5.6439-14.9239,3.0832-15.2087-8.3763-24.2393-12.3185-1.1886-3.0691,3.0843-1.1321,2.5-3.8387-3.4033-1.5274-5.3532-3.1-6.4641-6.4864-19.7982-.6237-33.0475-7.5643-46.3663-13.79-5.5662,3.4009-7.8868-3.0832-15.1828-2.483-1.1109.8567-2.5231,2.483-3.9493,3.0926-5.6462-5.0578-8.454,5.6156-16.99,2.7913-.4942,9.7649-10.0968,10.9134-19.9888,10.9134.5931,4.4342-1.9911,5.03-3.1161,7.3031-10.1721,2.4972-15.51,9.579-21.7022,16.5362-5.9215,0-4.2952,6.39-11.0994,6.39-.4848,1.4615.64,2.8243-1.08,4.2223-12.4362,9.8-25.4019,19.0944-36.1059,30.601h-4.59c.64,3.81-1.65,6.6629-5.552,6.1381,1.0944,3.3844-2.6454,3.3844-2.323,5.5826-9.56,1.6757-11.243,10.1109-19.704,11.1983a316.9489,316.9489,0,0,1-69.7313,47.37c-.8661,3.8692-4.22,3.8692-5.4226,6.63h-5.0531c0,2.2994-3.3515,2.2994-5.0437,5.352h-4.8107c-2.0358,4.4811-5.9545,5.3543-11.8384,5.3543-13.58,12.2927-36.9791,14.5591-52.79,24.6394-13.8813-1.6733-18.386,6.9642-32.4744,5.5992-18.3954,4.5517-36.9744,9.5389-57.3021,12.5633-4.01,4.0034-11.6007,7.0724-20.9161,5.8439-1.0733,3.7115-7.8962,2.0358-12.4174,2.6242-7.3337,4.1564-20.9208,3.0549-33.623,3.0549a49.131,49.131,0,0,1-26.214,7.063c-1.72,3.2621-7.882,1.6028-11.8925,1.6028-6.1993,5.6391-19.1792,4.4529-30.4645,4.4529-8.4681,5.0884-20.8761,6.7312-36.1389,6.237-11.86,5.3049-36.1625-1.1486-48.5775,4.1587-.5013-.8731-2.4995-.8731-2.4995-3.6645-17.52,1.6734-34.7362-1.6428-48.5187-2.763-24.0275-3.9682-51.7689-3.9682-77.66-6.7618-5.112-1.6593-11.3277-3.8575-16.9645-5.5756-13.5824-3.3021-29.0829-4.75-40.6366-7.28-6.2322-1.92-15.8324-1.92-22.0552-3.6574-6.2157-1.9582-11.0123-8.36-20.3324-5.3355,1.1509-3.3492-3.3515-1.6263-2.2265-4.4647-9-1.6734-18.9344-1.6734-23.971-6.7336h-10.44c-9.61-8.6375-29.09-8.6375-38.1512-17.0445-11.5536-.5554-20.5607-5.0884-26.5858-11.7537-5.8675,1.6734-8.0657-1.3815-9.7791-4.78-16.4255-1.9535-20.3583-15.3617-36.7249-17.0445-1.1015-7.3808-11.8832-3.9328-12.4174-10.9817h-5.9522V849.774c-9.3319,0-8.7388-8.6375-18.346-8.0444v-2.7443c-18.9344-8.7294-30.481-22.4577-48.5328-30.8646,1.704-3.3538-2.0358-2.1982-2.0358-5.0578-8.1363-1.4427-11.7866-9.8332-18.3107-15.4158-7.3243-6.75-15.7995-10.937-16.3714-17.6611a28.9333,28.9333,0,0,1-12.4244-16.52c-5.1143-3.9116-7.92-8.3763-10.1509-11.4148-1.4169-.9037-1.1486-3.9728-2.5584-6.27-5.3473-7.2278-17.2068-10.311-14.43-24.8866-8.0681,3.0549-7.2984-3.881-9.8473-6.9807-2.8549-4.5659-9.8662-5.3049-8.1528-9.4942-7.9056-2.2971-10.7746-12.3915-21.9964-11.2289,0-9.5083-11.6124-7.3031-14.4061-12.61-13.05,1.7133-30.2315-.8308-35.32,7.3289H792.32c-1.72,4.1188-5.6744,5.2814-11.8784,5.2814v5.6156c-11.3042,1.0874-7.2937,15.1075-17.4823,16.7833,0,3.9069-3.4291,5.3049-6.2063,6.9948,1.0709,18.7625-2.323,28.5628.77,45.0989-2.5065,0-4.2176.5413-6.4464.5413-1.1485,19.88,9.0612,28.0262,7.3737,49.8955,2.2194,0,2.2194,3.0691,3.6292,3.0691,1.6969,15.4323,9.033,23.2837,8.7623,39.5186,2.8078,1.4263,2.8078,6.3546,5.66,6.9171,2.2453,13.2105,9.5414,21.0456,12.9493,33.6724,7.0583,8.1269,14.6933,15.6936,18.64,28.5181,9.0612,2.5466,7.8727,15.4794,18.3766,16.5667-.8943,5.352,3.1161,5.352,6.2252,6.7171v5.5756c3.9351-1.0944,5.8627,1.4968,5.8627,5.06h6.2205c1.7228,5.5521,5.632,9.5531,12.4338,11.1959-2.2735,7.11,7.329,2.7772,5.7145,9.8191,10.3886,3.9092,16.8727,12.3468,24.1711,19.3886,5.4131-.626,6.8323,2.2053,8.52,5.5827,5.1,0,5.91,2.7913,8.214,5.3049,13.7989,5.6156,26.8235,12.2338,36.45,22.4129,17.6846,5.3285,25.8868,17.6141,42.5453,22.6507,0,3.0691,4.2741,2.53,4.2741,5.3214h5.8768c0,3.0526,4.5424,3.0526,4.2811,6.14,14.0673,3.8927,24.26,10.6875,36.6473,15.7759.2848,1.598-1.9675,7.5055,1.7275,6.9971,4.4812,1.085,0-6.5005,2.7749-6.5005,29.9867,15.9948,71.4682,19.0332,102.5258,33.903h12.102c-1.3509,2.789,3.4174,0,2.3042,2.789,16.3807,4.78,35.2916,5.9,48.0008,14.0225,7.282-.3107,14.1214-.8332,16.3432,3.1067,24.863,1.08,46.2639,6.4158,70.588,9.5155,15.8418,1.0873,31.6059,1.631,44.63,4.7212,2.516-.81,2.516-3.09,6.703-1.9582,18.6614,1.1486,50.2344,12.2762,64.1722-1.132h9.2777v3.6762c6.2064,1.1039,8.4752-1.3956,10.7275-3.6762,41.2133,2.2806,67.133-8.4093,102.773-11.1465,10.0709-4.5353,33.7948,2.2288,39.4763-8.4752,3.3773,4.5353,9.0471.5931,12.9963-1.6427,11.29,6.178,22.0247-9.8,36.9863-3.6951-3.9846,3.6951-11.6125,2.5842-14.1426,7.3572,32.4839-2.0194,58.4272-10.6734,88.92-14.312,0-1.0709-1.0874-4.187.579-4.187,21.9869-5.6156,50.8016-3.9281,68.3521-13.1894,17.4917-3.0549,34.4114-7.0112,47.9538-13.18,8.2.5554,12.7022-2.9937,16.1031-6.1781,17.1527-3.2926,27.3719-13.1023,42.6559-17.5293,5.006-7.8821,18.0542-7.8821,22.5283-16.5809,0-1.9887-4.4741-.5954-6.1711-.5954-7.9032,7.8985-23.1119,9.2942-32.1731,17.63,1.1556-2.7889,2.2429-3.9092,3.0219-6.9783h5.4156c0-1.358-.8638-2.7537.6237-2.7537,8.3834-1.1485,7.3031-9.2918,17.1363-7.8985-.5625-5.5826,3.6715-5.5826,7.6726-5.8768-.6167-5.2885,2.7677-6.6842,8.4375-6.6842,5.9686-7.0112,15.2558-11.7842,23.74-16.8585-.8731,5.9074,3.9305,7.2419,0,11.5207,11.8361-4.2788,16.9339-15.6771,29.9821-18.2684.7884-.7578,1.8593-3.5491,3.0149-5.2225h4.7989c4.573-10.9511,18.925-13.1635,23.7239-23.2979-13.5659,1.6569-15.5194,14.9074-29.9326,17.3669,1.704,3.1091-1.9441,3.1091-1.6051,5.931-11.1041,2.9678-17.6047,15.4158-27.7391,16.4514,6.7877-3.8575,8.52-13.4836,17.4987-16.4514,0-6.8018,5.5991-7.3573,11.8455-8.39,2.2759-7.0512,12.4315-8.1433,12.9634-16.5667,15.8253-3.6927,21.4551-17.654,35.0375-23.82-3.1,3.3844-1.158,4.4647.3389,8.9294-2.3371,1.0874-2.5678,3.4174-6.5547,2.7914,0,6.717-7.9056,7.3266-9.6025,13.7589,6.7947,1.6569,2.8078-8.1057,9.6025-6.4323.6166-1.3627,0-3.3868,1.125-3.3868,10.69-4.4647,17.1834-12.2762,24.3076-19.5181,5.585,0,3.9281-7.063,11.0147-7.063-.6261-3.0549,1.3956-4.4506,5.3284-4.4506-1.68-7.0724,7.9221-3.6951,6.2252-10.0968-11.5536,1.3981-10.7817,14.5474-24.2652,14.5474-.6308,7.063-5.9286,8.6658-9.3084,13.1187a186.169,186.169,0,0,1,30.208-42.8042c1.6969,0,.7884,1.9511,3.3656,1.6287,1.1556-3.302,5.66-3.302,7.3643-6.0934,1.0732,0,4.4882-1.1509,4.4882.5084m40.5978-79.5433a9.6464,9.6464,0,0,1,.6237,3.9563c4.5188-1.0708,12.1079-3.9563,16.1019,0,0-2.4994,3.3326-2.4994,1.9522-6.6864-5.0589,1.944-6.4864-3.1161-10.1332-3.1161-2.2912,3.1161-3.4021,9.8025-8.5446,5.8462M1583.2624,1127.706h4.7895c2.0358.8332,3.1091,0,3.1091,0s1.1556,0,4.2717-2.7936a20.3344,20.3344,0,0,0,5.9686-3.3844s-2.9066,1.6427-3.1467,1.6427a66.2108,66.2108,0,0,0-10.2027,3.1,7.2366,7.2366,0,0,1-4.187-1.358s-1.1885,2.7936-.6025,2.7936m-3.6857,0a9.38,9.38,0,0,0-3.608.8332,5.1612,5.1612,0,0,0-3.1161,1.3651l-2.2688,2.8219s.8237,1.6569,3.0761,0a13.7507,13.7507,0,0,1,4.7989-1.08,10.7608,10.7608,0,0,1,1.1179-3.94m-6.7241.8332s-1.4451,0-7.6443,1.3651c-7.3667,1.7416-7.3667,2.2359-7.3667,2.2359a8.5546,8.5546,0,0,1-.5625,2.2429l-1.6875,1.0709s6.7571-3.8081,8.1669-3.8081c.8873,0,3.1161-1.7416,3.1161-1.7416l5.978-1.3651Z" transform="translate(-187.3348 -46)" fill="#fff"/><path d="M1822.1324,717.6592c3.9022-8.9623-1.9746-20.4783,0-34.4679-2.8549-2.2429-8.5175-2.2429-9.92-7.3031-2.5277,0-3.94,3.4174-8.2045,2.0217-1.69-7.3195-12.98-4.2269-10.125-14.9309-5.6627-4.4271-17.5058-4.4271-20.3159-11.1442,1.1579-1.4262,6.1875,0,4.2411-3.648-13.3165,5.3214-19.5252-8.9623-34.7174-7.3031,1.3721-3.0219-3.1091,0-1.7346-3.0219-11.8549-1.4616-21.455-4.3047-32.771-6.5029-6.4934,3.7186-11.8219,3.7186-19.7346,2.1982-1.68,4.3047,5.6674,0,5.6674,2.8431v4.4835c-5.0813,0-5.0813,3.8952-7.0795,7.3031-4.7589,2.2218-5.8674,0-11.0123,0-3.9022,13.1258-16.8986,19.8664-25.4208,29.7231-12.994,5.2814-25.7245,10.897-36.97,17.5976-10.9911,1.6734-18.5955,7.0113-25.9739,11.5066h-7.0442c0,2.483-1.9346,2.483-2.5583,3.881-17.1975,6.1381-34.096,9.539-58.9614,8.4352-5.6815,2.4924-12.4692,2.4924-20.09,3.61-16.6114,5.6133-34.6962.3319-49.9355-2.5065-8.7458-1.1038-18.61,0-28.2027-1.1038-5.6674-1.6711-10.5134-5.38-16.11-6.1381-5.4155-.6237-11.5842.7578-16.6114,0-4.3046-.6237-7.3972-4.4953-11.6313-6.1781-3.6857,0-7.0489,1.0873-10.4357,0-5.0484-4.4953-12.415-5.9522-22.0175-5.9522-12.7093-8.9388-36.1154-8.3928-49.1259-17.8706-17.4846,1.697-23.1661-10.897-40.3659-10.897,0-2.5441-4.2341-2.5441-4.2341-5.6367-7.11,0-12.1773-.885-13.8578-6.1005-16.0724-.5954-25.096-15.7782-40.9213-9.61-1.1415-2.7608,3.6551-.539,2.2429-2.7608-2.7725-3.4079-7.5714-3.4079-10.1391-5.0648,0,3.1443,3.34,1.6569,2.2359,6.3993-9.6026-1.3345-14.9616,0-26.5129-1.3345,0,2.2218,4.2246,1.3345,4.2246,5.3214-5.0813-3.1-10.0944-5.3214-16.31-5.3214,1.3415,3.648,5.2884,6.1616,8.1668,9.1766-8.1668-3.015-14.6839-3.015-20.3465,1.1885,1.1344,2.7607,3.3656,4.4271,2.2759,8.1057-9.6379-.885-7.3667,9.2306-16.4255,3.9328-.5084,4.4576,3.3938,4.4576,2.0029,10.358-1.7181,0-4.7966-1.6428-4.2012,1.08,0,2.86,7.2725,4.2552,3.1,8.4351-4.5565,0-3.1-4.18-7.11-4.18-1.41,2.523,0,9.2236-6.2228,9.2236,1.7345,3.841,6.8323,5.5544,8.5293,10.0827h-6.2558c3.9493,3.9069-.539,3.1067-2.2735,5.3049a29.4508,29.4508,0,0,1,10.2332,6.7641c-4.01,2.7749,1.69,2.7749,0,6.9242-1.7039,0-5.0813-1.3109-4.01.8873.61,4.7283,5.1284,4.7283,10.2027,4.7283-.85,5.5827,3.4173,5.5827,6.2228,7.1266,0,3.8222,1.6992,4.7259,6.2087,4.7259-1.41,3.6339,2.2311,3.0385,1.6969,6.1781-13.0482,3.8716-20.3207-14.02-28.28-2.5442,5.0908,2.5442,9.65,4.9872,12.1609,10.0474-5.9051-2.2665-1.7181,5.8439-8.2116,3.3774.61,2.4665,2.3065,3.928,4.01,3.928.5084-1.4615-.5954-3.928,2.1983-3.928,3.994,1.1038,5.4061,5.2908,6.2534,9.7719,5.0366,5.8769,12.17,7.828,13.813,16.0254-7.0559-2.3135-4.2481,4.4271-9.3083,2.74-1.6993-5.0531-6.2393-7.8444-14.66-6.75,8.421,4.01,18.5931,15.5029,28.24,10.704v6.1639c3.8646,1.3557,6.7477,2.4454,10.158,3.8411v5.9215c2.8455.5931,1.6122-2.7607,5.8674-1.5886-.8237,6.6794,7.0442,5.2508,5.971,12.2926,7.9056.5625,9.88,6.9336,18.5932,6.9336v3.9563h5.66c2.2429,9.8638,15.8253,8.1057,18.3625,17.6,9.3083,3.0525,20.0217,5.4367,26.5293,10.904,13.3047,1.7511,22.8978,7.3808,32.4627,12.9328,7.92,0,14.1284,1.118,18.0612,5.06,16.9739,1.6569,31.01,8.4069,46.8429,11.1982,18.6708,4.4812,38.4078,6.6936,56.469,12.2927,2.2665-2.7749,11.09-1.08,14.1826,1.1179,1.8875,0,2.1747-1.1179,3.3161-1.1179,43.4962,7.8821,86.1521,15.14,130.4438,5.0907.5931-1.1509-1.1038-5.0907,1.125-5.0907,28.1957-.5249,47.4148-10.6052,72.0095-13.66-.2706-2.2971,2.2359-2.2971,3.06-3.3985h8.494c0-3.38,2.8054-3.38,3.3844-4.7754,13.0081,0,19.2121-10.5863,31.6036-8.421-10.1721,8.421-27.1248,9.8167-37.0239,17.9623,7.9174-3.6645,19.5017-3.6645,25.7245-9.5413,1.1273,1.1344.8731,2.8219,4.5282,2.8219,5.6909-4.4788,10.2027-9.539,18.8709-9.539-.539-2.7913,2.6383-2.7913,2.8784-3.8692,9.8873-1.6828,14.43-9.0636,20.2994-12.6645,1.9864-1.1651,4.8084,0,7.056-1.8664,1.1085-1.45,1.1085-3.7092,3.408-3.7092,4.5188-1.7275,13.5188-7.3125,12.9869-11.2218-4.2411,0-2.829,3.9093-8.4681,3.1067,1.1344,6.3876-9.0141,8.1151-11.7913,6.3876,8.39-5.585,13.4576-13.9519,24.1922-17.6v5.352c15.0157-2.5277,23.1826-12.0549,36.4331-16.2419-1.1273-2.8525-3.1161-4.2176-2.0193-8.4352,4.0316,0,2.5983-5.0295,7.9033-3.8574.6166-6.8183,7.11-8.174,8.5222-14.3379-1.08-2.2665-4.22-2.2665-4.22-5.35,1.4121-10.6522,14.91-9.5413,24.2252-10.6522v-6.7171c-5.3144,1.1039-4.7825-3.9563-6.2064-7.3054,1.9652-3.3515,11.8667-1.3627,18.6685-2.4665-6.2605-5.0743-5.6368-27.7627,9.61-24.9007,2.8078-5.6556,9.3012-7.3431,16.682-8.7388a88.9758,88.9758,0,0,1-12.4315-7.8115m-301.4912,180.37a251.106,251.106,0,0,0-28.2262-1.6946c-2.2759,0-13.0129-1.1273-16.4138-.3248a19.6526,19.6526,0,0,0-8.5222,3.1s.6049-2.7749-11.7984-5.5991c-1.1415,0-3.4009-1.0639-4.813-1.0639h-1.9582l-1.9746-2.5842s1.9746,1.4357,3.9328,2.5842c6.5429,0,21.4174-1.1485,30.7728-1.1485,10.7746,0,10.7746,0,21.17.5531,10.464.5954,23.43.5954,31.35.5954,6.7876,0,13.5353,3.8881,13.5353,3.8881a98.5628,98.5628,0,0,1-27.0542,1.6946m155.7846-34.1619c-.539-6.7877,7.9032-5.6533,7.9032-11.709,9.0236,3.262,4.799-6.8042,12.4339-5.4367-1.4121,10.904-13.2647,10.904-20.3371,17.1457" transform="translate(-187.3348 -46)" fill="#fff"/><path d="M2578.0762,748.23c2.2512.1907,3.4079,1.3416,3.9563,3.8552h-3.9563V748.23Zm-184.0426,359.8172a9.8618,9.8618,0,0,0,6.2087,5.9145c.5625-3.0832,5.6756-3.0832,6.1616-7.2867-4.9754,0-9.5166,0-12.37,1.3722m-18.0942,3.6809h6.5253c0,2.789-3.6869,2.789-2.5525,6.4229-7.3348,3.3774-13.0105,8.1033-15.2016,16.2325-4.5577-1.6569-3.7234,1.0873-6.2158,1.0873,0-1.0873-.6072-3.3161-.6072-5.552,4.7871,0,6.823-1.3792,6.823-5.02,3.8951,0,5.6014-2.3065,5.6014-6.7477,4.5342,1.1344,6.1993-2.2053,5.6274-6.4229m-368.4005,6.091c5.1213,1.4663-1.0874,8.4352-5.5992,7.08.5625-3.37,4.79-3.37,5.5992-7.08m-20.0124,5.3685c4.5024,1.1344,1.45,8.4752-1.9817,8.4752-.88-3.9728,1.45-5.4085,1.9817-8.4752m-23.7309,9.539h3.7257c.2542,2.7442-3.1161,2.4995-1.9982,6.4393H1961.52c0-3.1067,3.7351-2.5442,2.2759-6.4393m412.7157-2.8078h3.9634c-.5625,2.2359-1.6969,2.8078-3.9634,4.4647v-4.4647Zm-14.3673,11.2594h4.2494c-1.14,2.1677-1.14,5.2767-4.2494,6.9807v-6.9807Zm-432.2515,8.3434c0,3.89-1.0873,7.8374-6.757,6.6794,0-4.2176.8731-8.0421,6.757-6.6794m-17.9929,9.5107h3.6574c-.2565,1.1509-1.96,2.1983-3.6574,3.9023v-3.9023Zm-18.3672,3.9023v3.6621h-5.9569c.61-2.483,1.6969-4.78,5.9569-3.6621m-30.2245,11.2288h3.9776a3.6008,3.6008,0,0,1-3.9776,3.9563v-3.9563Zm389.006,50.6839h4.227c-.8084,2.3065-2.2523,3.98-4.227,4.4883v-4.4883Zm-42.3076,10.9511h3.9493v3.4174c-3.4162,1.0874-4.5506-.6237-3.9493-3.4174m-73.6735,58.2507c-4.6048,6.4228-17,5.87-26.3152,7.79,5.6686-5.2767,12.9964-9.7414,26.3152-7.79m-54.5167,17.607h6.2146c.57,5.3826-2.8243,7.04-7.9115,5.8933-.579-2.4618,3.3844-2.2382,1.6969-5.8933m-31.9367,13.9895c3.6857-.779,1.3792,3.6928,2.0029,5.9075h-5.898c-2.2994-5.5991,4.4882-2.2147,3.8951-5.9075m-9.85,5.9075a5.1714,5.1714,0,0,1,4.25,3.9257h-4.25v-3.9257Zm-42.0605,15.1687v6.4252c-4.2411,1.1815-5.94-.81-6.2252-3.601,2.53,0,1.9841-3.9257,6.2252-2.8242m-66.627,26.5458a10.4736,10.4736,0,0,0,.5719,3.7163h-6.2251c.3106-2.5278,4.2034-2.5278,5.6532-3.7163m-119.9539,33.4017c2.2359.5884,6.4864-1.9887,5.6532,1.897-2.0052-1.125-6.5005,1.7581-5.6532-1.897m-8.4823,3.6551c-2.2994,3.5868-8.7552,3.3562-11.8713,5.8463,1.1674-3.0526-3.0526,0-2.2265-3.3468,5.0578-1.165,7.9056-3.6951,14.0978-2.4995m-631.75,9.2c10.4357,1.125,17.4305,4.7754,23.9922,8.687-2.5747,3.9681-12.7233,0-13.8365-3.0714-3.3986,0-6.7924,0-10.1557.2777v-5.8933Zm606.3527-.5625c-1.125,3.9422-10.2333.5625-14.691,1.6875,2.2595-1.6875,11.5843-6.7383,14.691-1.6875m-572.1954,9.2495c5.9239,1.1462,15.5005-1.09,16.08,3.9681-6.2605,0-15.5688,2.5159-16.08-3.9681m26.2116,3.9681c10.4121-.9014,18.1106,1.7063,25.9762,2.756-2.7748,7.31-12.3844-2.756-18.0682,3.3538-2.5442-2.2688-5.9-3.3538-7.908-6.11m472.88-1.4239c3.6551.5225,10.4428-3.0785,10.158,1.4239-3.1091-.9014-10.158,2.5159-10.158-1.4239m-429.4354,4.773c3.4009,2.1676,10.1885,1.0638,11.3135,6.7171-6.4558,0-7.2866-3.9564-14.1213-2.2218-.539-2.836,1.68-2.836,2.8078-4.4953m415.5941-3.3491h6.19c-.546,2.756-5.0343,2.756-6.19,3.841v-3.841Zm-18.033,2.756c.5084,3.6927-5.7144.5931-7.8656,1.085-1.2262-3.841,4.959-1.085,7.8656-1.085m-384.2565,5.0884h3.6387v3.5492a3.4744,3.4744,0,0,1-3.6387-3.5492m22.0247,4.9825c-5.8933.586-10.1556-.2-12.1-3.062,1.9441-4.7565,14.3967-2.5207,12.1,3.062m306.0029-5.5827c-1.3956,5.5827-7.6208,2.822-12.4174,1.3933,1.9747-6.9312,6.4935-.7931,12.4174-1.3933m5.66-2.8313c8.1669,2.0358,6.7242.5955,16.0325,0-.2283,4.2246,4.3447,2.8313,4.0057,6.8183-8.5175,0-17.2469-.64-20.0382-6.8183m-46.28,4.2246c-1.41,3.38-5.0978,4.453-9.3154,4.1894,1.1015-2.7607,4.2176-4.1894,9.3154-4.1894m-20.0994,2.7561c2.2594.6237,4.813,1.6969,3.9516,5.4061-5.0907-1.0732-10.69,0-15.7735,0,0-3.9728,7.336-5.4061,8.9859-1.6969.626-1.69,3.7162-1.69,2.836-3.7092m25.9762,0c2.3065,0,7.3643-1.6287,6.4935,1.4333-1.9676-.2-7.0254,1.1415-6.4935-1.4333m-66.34,1.6969c3.6786-.4637,2.0359,2.0123,2.0359,3.7092-2.2759-.6261-5.1285.2471-7.3667.2471-1.9487-4.42,6.7406,1.1486,5.3308-3.9563m-120.54,3.7092c3.4457,0,10.4734-3.3868,10.1863,1.3957-3.0926-1.3957-10.1863,1.9181-10.1863-1.3957m12.1915-.6261h8.1833c1.1038,3.3774-3.4009.6261-2.3065,3.3774-1.0944-1.3556-5.6532,0-5.8768-3.3774m78.2088,5.9075c-5.1355-1.69-7.6514-1.0638-11.8761-1.0638-1.7133-3.97-9.8943-1.4663-12.1537-5.2908,9.8167-1.7581,15.5382,1.32,24.5617,1.32,0,2.21-.5319,3.3444-.5319,5.0343m-41.5,0c-.9014,0-2.86-.61-4.2859-.61,1.4263-3.2761-3.9163-.4542-2.1982-3.2761h6.1852c0,1.3556.2989,2.1958.2989,3.8857m59.8416-1.0638c-4.5447-.9038-8.8164,1.0638-13.87,0-2.243-6.47,11.2782-3.97,13.87-2.8219v2.8219Zm536.61-352.1445c-1.1556,2.8148-3.34,4.01-2.2665,8.7552-3.9493-1.76-2.7913,1.92-5.63,1.0709v-7.0113c3.9493.85,5.119-1.1038,7.8962-2.8148m300.3426,47.1065c.2848,3.8245-1.9911,5.2531-6.2087,5.2531,0,3.947-1.08,5.62-5.5991,5.62-.9014,8.19-9.37,8.19-14.4226,11.7231,3.6656-3.5327-.2683-13.3964,9.0471-11.7231,5.3755-4.1893,7.8973-10.8734,17.1833-10.8734m7.9127,9.2c-.8026,2.5371-2.2512,3.8716-5.5991,3.8716,0-3.3327,4.2175-2.1983,5.5991-3.8716m-34.1431,29.3983c-4.01,2.7607-8.19,6.4393-13.8566,7.835,0-3.8787,3.9857-2.7607,3.9857-6.4393,5.86,1.365,5.4132-2.49,9.8709-1.3957m-114.0771,69.7478c-.7873,2.8219-1.9276,5.006-5.9157,4.5141.5872-3.3632,4.5212-2.2688,5.9157-4.5141M1080.2382,1404.68h6.1993c-.6073,2.7607.626,4.4482,3.9657,3.3844v4.18c-2.869-3.1161-8.7529-3.1161-10.165-7.5643m50.5286,7.5643c-1.3957,2.7937,2.0076,1.4357,3.6715,1.6663v3.6551c6.2087,3.5633,17.7694,0,20.8926,5.8933-13.2411.5625-23.1826-3.41-31.6507-7.2889-9,4.9589-15.1993-4.5118-25.1407-3.9258,4.01-8.6446,17.2139,0,21.222,3.9258,1.7134-3.3468,9.0165-1.1321,11.0053-3.9258m197.332,31.3283c11.5512-7.5526,19.751,5.4061,30.7328,5.4061-7.6279,2.7513-24.2464-1.0732-30.7328-5.4061m32.7168-.1624c7.07,3.8716,21.4833,1.3956,27.7226,6.9642-9.0989,0-19.2027,1.3556-26.028-1.3957,1.4168-4.1729-2.2289-3.7092-1.6946-5.5685M2608.5383,801.62c-10.7028,0-4.7718-19.0262,0-20.7231v-12.015c-3.3762,2.2665-2.2194,7.8139-4.7718,9.8332-3.3644-.626-3.3644-3.94-3.3644-8.9929-3.3527.2777-1.4416,5.8933-5.9534,5.8933v-8.4069c-3.1067,0-1.7263,3.3326-5.9286,2.7913-1.3674-2.7913-3.3809-3.9093-1.9687-8.4234-2.822,0-2.2912,2.8243-6.224,1.4615.6248-4.813-2.7914-6.4887-3.9246-10.9534-3.6563-1.4263-.5943,3.102-4.5283,1.3815,1.7217-3.8951-5.66,0-5.66-2.8078-1.9876-19.311-30.994-10.6428-36.7085-27.4-9.8037,1.325-14.8945-2.8243-25.9068-1.4357-7.1325-7.8727-21.2538,1.4357-34.2184-1.3886-5.6144,8.12-20.037,8.12-27.093,15.364-5.9086,0-7.6338,2.86-9.0153,5.3662.2718,2.5136,3.1067,2.5136,3.98,5.6532-3.98,2.7537-4.5106,5.2673-2.0111,9.732-1.1273,1.6757-3.3938,3.6645-7.9221,2.5607-2.483,5.2908-6.2087,9.7719-12.1526,12.0384,0,12.0314-8.1386,18.186-11.523,29.0759-7.9127,1.3957-11.3454,7.8821-11.8784,16.289h-3.9564c0,7.8656-3.4315,8.6517-2.0193,16.2325-2.7678-.2777-1.9441,3.0691-6.417,1.7275,1.6133,5.8439-2.8608,5.8439-1.6652,11.4219-7.3949.8261-9.6166,4.813-16.11,6.2393a51.1075,51.1075,0,0,1,.253,5.5073c-3.9622-.5625-3.355,2.869-5.9145,2.33-3.3938,10.5722-14.4061,14.2508-18.3554,25.4938-2.5513,0-1.7358,3.0384-5.9063,1.365v6.1546c-12.4785,3.0243-12.4785,17.3081-23.4532,21.2786.2695,9.5389-13.2811,3.9257-12.4939,14.02-7.2866-1.4568-3.0843,7.0113-10.0638,5.6156,1.6581,7.835-9.0624,3.3-7.6185,11.4972-8.8082,1.6357-9.0635,10.8828-18.3942,11.1747.54,4.4035-1.7358,6.717-5.6309,5.8768v6.936c-16.6585,8.5057-31.3036,18.7767-42.9337,33.1287-12.7175,2.7772-16.349,14.7474-28.7887,19.0262-.5331,1.3956,0,3.6621-1.4263,3.8645-9.3178,2.869-11.2383,12.641-22.8672,14.0343-1.6522,9.2942-16.86,7.3055-18.5931,17.1763-8.4929,1.85-14.0826,5.8062-18.08,11.9843-7.3019-1.6592-6.5158,5.02-11.3124,5.02-1.0873-3.3774,2.3065-2.789,2.3065-5.02-17.4987-4.5023-10.7275,20.4525-24.2934,16.2349,1.11-1.7581,2.5289-1.9511,2.3053-4.5118-3.9634-1.3957-5.7439,1.69-6.8324,3.3774,0,3.0855,3.94,2.7913,2.2453,6.7476-4.5436-1.3956-3.9328,3.0549-9.5319,1.3651-10.5052,10.9511-27.75,14.3379-39.2939,22.7048-9.3084,3.302-17.7694,7.0113-23.9758,13.1729-6.2181,0-8.4845,2.2288-12.4809,5.0366-7.31,0-10.1321,2.7442-13.4718,5.3214-11.6077,3.13-22.5894,6.4393-29.9843,12.8716h-7.2961c-2.8384,7.5785-17.4987,3.9234-20.909,11.5231-9.85.4919-12.4315,6.1074-23.1355,5.55-2.2759,5.6155-7.9527,7.0818-16.3973,6.171-7.3243,7.0183-18.61,10.7063-31.919,12.0385-3.109,2.8383-8.7081,7.3054-13.813,4.5117,1.4192-3.0549,6.517-3.0549,5.6368-8.7458-5.6368.61-7.3337,6.1852-16.3032,4.2341,0,4.5117-3.4479,5.63-5.6838,8.39,5.6838.6025,9.0541-5.5521,14.1214-1.3957-5.39,3.4174-11.5513,5.931-22.027,4.99-4.5565,4.2505-11.8526,5.7168-21.1609,5.7168-27.41,10.0473-56.7608,16.4467-91.4829,19.5887.3013,2.7889-2.2359,2.7889-3.1067,4.1469-37.2569,5.06-69.1006,12.6646-107.2447,14.8487-3.41,1.132-.8567-3.2715-3.9728-1.6287-11.829,2.7607-27.6544,7.5055-42.3618,4.4506v-2.8219c4.8272-1.0733,5.6274,2.1958,9.0448,2.1958,2.8407-6.9641,17.47-2.1958,20.8713-8.4045-32.1849,6.8159-64.0286,4.58-97.0655,6.8159-18.1083,2.7372-45.21,7.256-63.8592,2.2147-2.789-.6261-1.4121,3.415-4.7871,2.2806-44.8236-5.931-93.387-7.2866-141.9974-10.3251,1.1414-3.448-3.4009-.9861-2.1983-3.98-31.0717-1.6733-58.187-9.7931-84.6858-15.1545-4.5894-.5555-9.346,1.6969-11.8831-3.0856-21.9964-.5554-31.3047-12.8245-54.7744-12.0455-12.9776-7.8044-34.4162-6.9477-46.2875-16.2419h-10.4334c-2.5842-9.5225-23.4932-1.8876-26.2681-11.1582h-9.8873c1.3957-3.14-3.0784-1.4357-1.9817-4.8437-12.9822,0-17.4516-7.2419-30.1608-6.6417-2.5772-7.9127-17.8-3.93-20.61-11.5042h-7.9174c-1.7063-4.4506-6.8112-6.1546-14.1213-6.1546-2.3136-6.9806-15.2558-3.6621-18.0636-10.9841-6.8253,2.5772-10.1556-3.808-14.152-5.552-4.2176-2.2288-10.7346,0-11.8054-5.02-12.7093-1.7111-13.62-13.1706-26.5835-12.6246-18.0471-15.4393-41.23-25.7832-60.7054-40.3259-1.0779-1.1179-3.0738-2.1982-1.9276-5.0083h-5.9757c.84-4.5189-2.5371-2.8431-1.9958-5.9145-12.9422-3.0832-16.6-14.8369-28.7676-18.7932v-4.187c-4.4741.5084-6.1851-.8261-5.63-5.2532-7.2819,1.0474-5.5991-7.3878-12.3938-5.9145,1.365-3.9422-2.2665-2.8713-2.2665-5.3378-5.67,0-7.3808-4.4647-10.158-8.6541-8.807-.9155-10.4733-9.6143-15.8018-14.8533-5.4132,0-8.2069-2.8219-8.7764-7.88-11.2524-6.9948-22.8672-15.4017-30.1633-28.5511-5.0742-3.4173-9.0988-6.717-12.2008-11.4289h-4.2176c0-1.4968-1.1321-1.4968-1.704-3.14.5719-3.9328-3.94-2.2288-2.2523-7.249-11.2524-1.4333-12.4386-12.9563-22.2271-17.4375,0-3.5468-2.0358-5.0131-6.03-5.0131,1.1886-7.0395-9-3.069-6.477-10.92-7.6208-2.2288-8.7458-10.6334-12.1255-15.1146-4.5189-7.2584-13.4953-11.2006-14.1214-19.6052-4.5259,1.61-4.5259-2.8219-4.5259-5.0036-1.0732,0-3.37,0-3.641-1.6969-9.8567-15.2182-20.6454-30.5187-32.4532-44.014v-5.0437c-16.3949-12.8551-19.7652-37.8452-37.0239-48.7257v-5.1073c-9.8637-2.9913-13.5118-13.8719-18.3013-22.0858-1.7039,0-3.7092,0-3.7092-1.358-7.0112-15.3993-21.7092-21.0149-30.4174-33.0675-4.86,1.44-3.4315-4.5518-8.5293-3.0879-.9038-7.0089-8.1833-7.0089-7.9127-14.86-8.2-2.7772-13.5188-7.24-26.4846-5.63-3.1161-6.1381-11.3136-6.9783-15.8324-11.4148-11.2994,3.0785-19.2051,7.289-34.1737,5.2767-6.7383,7.3172-19.44,10.3886-28.25,14.5756,0,1.6734.6025,3.9705-.5154,3.9705-8.1975,0-5.4062,11.17-13.3259,11.17-3.0526,6.9948-7.296,13.7565-11.8313,17.6682,0,5.2955-1.9653,9.7861-6.2229,12.54-.5389,12.4315-6.4934,22.4271-1.3791,35.906-3.3492-1.704-.572,3.3867-4.573,3.0714,0,10.1179,0,22.9731.6,35.0209,7.92,22.1494,9.61,51.2771,24.5712,67.479v6.171c4.2482,2.0194,6.4558,6.4158,6.4558,11.7608,2.822,0,2.822,1.7345,4.0152,2.8219-.9085,8.9459,8.9788,8.3834,8.1692,17.6,3.6316,2.5607,7.0254,4.187,6.4558,9.572,7.9339,6.9477,13.8884,16.5337,18.0754,27.4542,10.2333,9.2095,18.0706,20.7,24.896,34.4421a40.64,40.64,0,0,0,5.6367,2.5606v4.959c1.6664.5931,3.8787-.4778,3.8787.5931,7.1266,16.76,21.4857,24.6559,28.5511,40.3353,6.4864-.586,4.7895,6.6865,10.2026,6.6865v3.9563c4.187,0,6.5006,1.1485,6.5006,5.3355,3.3726,0,3.9022,2.1677,6.1616,3.58,4.86,10.358,15.55,15.1381,20.3371,25.2184,5.3308,2.5607,7.9292,7.2419,10.1274,13.18,4.3047-1.1626,6.2534.84,5.7144,5.0437,4.7566,0,6.7406,1.4286,6.2017,5.3214,4.4812,0,6.484,1.1956,6.2087,5.94,3.93,0,6.1992,1.0709,6.1992,5.2555,3.4174-.546,3.9564,2.2477,5.9,3.0879,18.1224,23.0272,42.0605,39.208,60.9784,60.47h3.65c0,2.5607,3.6763,2.5607,2.3183,5.6439,4.507-.6237,6.4252,1.937,5.8839,6.4487,4.5212-1.1956,6.4934,1.118,5.9568,5.3379,7.2961-1.4592,5.6745,6.3852,12.9564,5.5827,3.415,11.4618,19.7181,11.4618,24.3311,22.6883h5.5826c2.3136,9.4942,14.7475,8.9623,18.3861,17.3363h6.1945c-1.4568,3.65,2.25,3.0243,1.9582,5.931,15.27,3.262,19.8264,15.9265,34.4279,18.7485v3.0408a50.86,50.86,0,0,0,6.23.2447c-1.6828,10.4592,12.9728,3.2009,12.17,12.0856h5.9216v4.1493c7.8821-.5084,10.69,4.2176,14.0978,7.6373,1.9747.84,6.8324.5531,7.9056,1.3627,1.9888,1.1956,1.1109,3.38,2.3,3.9022,1.7039,1.158,4.5259-.5225,5.8909,0,1.0874.61,1.41,3.7022,2.0123,4.5659,1.8829.4943,5.2814,0,8.3763.81,2.8761,1.9817,4.0176,5.8228,6.2229,6.4017,1.7369,1.118,4.0175-1.1344,5.7144,0,3.9352,1.48,6.7406,8.7153,14.1049,5.3967v3.6033c11.8149-.2847,13.25,8.6847,24.2111,8.12,8.5293,8.7223,25.4561,8.7223,34.5479,16.7833,28.697,3.97,44.8094,20.1818,74.4314,22.6883,9.0941,8.16,27.4,7.3266,36.7108,15.1381,2.3041-1.0638,3.448-3.6621,7.9033-2.69-.539,6.0769,5.1143,6.0769,10.1579,6.0769-1.6357-4.4506-7.2795-6.0769-10.1579-9.7414,4.5282,1.3015,7.3031,2.6925,14.1213,1.92.6261,9.4707,7.1337,13.4035,15.84,13.4035,1.6828-3.3538-1.7087-2.7913-1.7087-5.5826,2.85,0,1.7087-2.7607,5.9286-1.6969v7.2795c6.5241,0,7.0654,5.3144,14.3591,3.9187-1.08-3.9187-6.1993-3.9187-8.4046-7.2725,4.5024,1.1485,10.1015,1.3792,12.4221,4.7966,1.0733,3.3632-2.85,1.358-1.9887,4.1869,12.0926,2.2289,17.1833,10.5746,32.1967,9.8026-3.09-3.069-6.7994-4.4647-8.181-9.8026-2.3065-.3153-7.3337,1.1109-8.5293-.8237,6.7947-2.0052,16.9833.8237,20.629,4.726,35.3081,2.8313,62.6753,14.8486,98.5624,16.7973,0-3.6551-6.517-1.3956-5.6533-5.9074,7.2961-.5084,10.1557,4.5118,18.0566,3.9587v5.512c67.1306,8.2281,138.3164,22.4436,211.7193,17.4987,13.227,6.3782,34.1713,5.5686,54.1625,5.5686,1.6945-3.38-2.1983-3.38-2.1983-5.9075h10.4122v5.9075c22.3023-.7861,38.9467,1.3956,53.946-4.1729-3.987-1.3957-13.0411,2.2218-13.8343-2.3277h18.3084v4.55c2.0123,0,2.5512-2.2218,6.1993,0,1.0873-4.55-3.1162-3.6175-2.2359-6.7171,31.6106-.5931,60.3923-3.94,92.3137-4.25,8.19-5.86,27.41-5.86,38.1277-5.2438-.3295,1.6428-5.9286-.6166-4.01,3.5539,5.0908,5.3473,13.62-4.17,16.1031,1.1674,1.398-3.0785,7.6514-.5625,8.2068-3.6339-5.6367-1.704-15.8182,2.2359-18.3248-1.704,4.7966,0,8.7082-.2777,13.2341-.2777,1.3957-3.4174,7.8985-1.118,12.1632-1.68.8332-3.41,7.6491-2.33,11.8525-2.33,17.214-5.512,39.834-5.512,54.4944-13.8719,32.1684,1.8711,50.7545-9.8214,79.5739-12.102,3.4479-3.9187,9.8943-5.8933,17.5152-6.124,3.1161-5.6626,10.4121-6.138,18.3083-6.138,5.4132-6.9807,19.2192-5.6792,25.1031-11.5231,8.5223.5719,13.6507-1.9887,18.9109-3.6786,3.1773.586,3.1773,2.8525,7.11,1.69,2.2923-3.9258,6.7618-4.4506,13.0552-4.4506,2.7866-6.4558,9.7814-7.8115,20.0076-7.635,2.5207-8.3057,17.1951-4.1493,19.1933-13.9213,18.8967,1.0662,28.2121-6.2087,38.0994-13.2317,15.8324,2.5442,18.0236-6.3876,31.0341-6.3876,5.9216-12.6245,23.4368-15.4158,40.0647-17.6376a38.2135,38.2135,0,0,1,3.1384-5.6462c11.0206-2.7913,13.859-13.4247,29.0512-12.5939,1.1415-6.677,13.3188-4.1869,15.0322-11.1817h5.0272v3.6786c14.4309-3.1844,20.6466-14.0366,31.0729-21.2621h5.0343c4.5671-5.6838,11.0217-8.7623,17.7929-11.523.8955,3.5962-1.0956,4.9919-1.68,7.482,6.7935-3.8858,15.8406-6.3476,19.804-12.5845,0-2.1841-6.2228.6072-6.2228-1.6287,12.4-12.0314,26.8376-20.5089,42.3394-28.2733.54-2.483-1.4263-5.3967,1.1026-6.1687,10.7346-.6261,10.7346-11.8243,22.906-11.8243-.9108-5.0743,2.8055-6.4393,7.6256-5.5521,1.3956-2.8383,5.0837-7.8585,8.1927-5.399-.9108,2.5607-3.7327,2.5607-3.7327,4.813,1.7192.586,5.6285-.7955,5.6285,1.0638-1.5733,3.9893-9,2.3136-7.8585,9.61,3.9492.5555.5307-4.5353,3.1067-4.5353,9.8732,0,8.168-10.9511,20.8219-7.835.95-3.1161,2.0382-4.79,6.2252-4.79-.5084-3.8481,2.9243-5.3049,7.8962-4.733v-10.0121c-11.76,5.2367-17.18,16.4185-30.1915,21.2315-1.5733-6.4864,5.1214-3.5845,6.2534-7.2725,1.7064-3.9469-5.66,0-3.9634-3.9469,8.1822.56,8.507-12.3091,15.8183-9.2424v2.763c-3.3938,0-7.6361-.4942-6.2181,4.8437,9.3342-1.4357,8.4552-11.4854,18.3013-10.6734,0-3.6951,1.7063-5.8934,6.2958-5.8934-.8732-4.1893,1.38-5.62,5.652-5.62a31.0091,31.0091,0,0,1-.3024-5.2531c-4.8107.5084-6.2228,9.2-11.6454,6.6841,3.2091-1.431,5.9545-3.4456,6.8347-6.6841,3.701,0,5.6827-2.283,4.8107-5.3661,4.7836,0,6.7877-2.8243,6.7877-7.322,7.9056-1.0873,8.4363-9.7249,17.4693-10.5721.2848,3.6409-1.6675,5.02-6.1546,5.02,0,5.552-2.8784,7.8515-7.4125,8.1292v5.891c3.3773,0,2.5618-5.891,7.4125-4.4647,0-2.8526,2.8067-7.32,7.309-9.5555,6.1934-2.2288,6.7653-9.5013,12.38-11.1841,1.125-.9156,5.1426,1.6828,4.5283-2.789,1.1568-3.1467-3.9434-1.4286-6.2087-1.4286.6072,5.9-6.7653,4.7683-6.7653,10.3816-1.4416-1.1345-5.0884,1.3556-5.0884-1.7111,3.6468-7.2419,11.2277-10.0356,14.6591-16.5126,6.2087-2.8078,14.1532-12.3326,23.6839-5.6226,2.9008-2.5066,2.3218-9.24,9.6567-7.55,0-1.69-.5013-3.3467,1.14-4.45,9.3319,1.3956,6.7653-9.85,16.9527-7.635-.2871-6.6794,6.9948-6.6794,10.1015-9.4684-3.1067,11.1277-18.3072,10.9347-21.9858,22.98-7.9445-1.4263-3.355,8.39-11.8549,6.124v5.6226c8.5-1.6122,8.707-11.2359,18.0165-11.7466-.486-3.9869,1.6969-5.8768,5.7227-5.8768-.2871-4.2176,1.6969-6.1687,6.2157-6.1687-1.1273-3.9564,1.3651-3.9564,2.7678-5.5544,11.8938-7.0866,20.669-17.6282,28.2334-29.1889,5.7168.5931,4.1893-5.9074,10.7145-5.9074-.5107-4.187,1.71-5.0131,5.9451-5.0131,0-4.4271,1.4816-6.7477,5.9534-6.1546-.5861-4.187,1.68-7.0583,5.885-5.8627-.2165-4.7966,2.0206-6.19,5.9157-6.19-2.1829-8.3857,9.61-4.5117,9.0989-11.4618,3.9493,1.3345,2.2135-2.5371,5.03-2.2594,1.125,3.5939,6.2464,3.5939,1.997,7.5949,6.5253,1.6146,7.5962-2.2594,9.0471-5.3355,6.477,1.1344,2.5666-7.8279,8.9918-6.517,4.2564-11.3748,15.87-15.07,20.0912-26.2822,2.8054,0,1.957-4.7448,6.2063-2.7207,8.4528-15.4582,18.046-30.2951,29.9079-42.95.6013-3.8786,1.6816-8.39,5.3591-9.2636,0-11.7207-2.55-16.7479,0-26.8306,1.4662-1.6875,6.7653-.539,5.9156-4.4812-1.6722-1.6734-5.0742-1.6734-5.9156-4.4647-2.55-6.7641,1.9981-8.421,3.6492-10.7369,4.5259-6.6135,0-19.278,10.1873-16.2231-1.0861-4.9448,2.2053-4.2341,1.9912-7.3055-3.0773-6.9171,5.0884-19.5181,3.6468-31.5189,5.0966-4.2246,6.2016-10.744,9.5778-16.6349M1604.2091,1394.0374s-5.1355-3.0314,7.2937-3.0314a92.8271,92.8271,0,0,1,23.392,3.0314s-5.3049,0-16.8891,2.8289c-12.1467,2.5066-15.5006,2.5066-15.5006,2.5066s1.704-2.8219,2.7772-4.2176c.5767-1.1179-1.0732-1.1179-1.0732-1.1179m-130.46,7.8514s6.7335-1.12,19.158-.5954c13.5729.5954,15.3005,1.6969,15.3005,1.6969l-23.1285,1.69-16.08.5531,4.75-3.3445Zm-27.6779.3154c20.0759-.9108,20.9161.7861,20.9161.7861s.5084,2.243-16.9127,2.7513c-16.3808.6261-22.2953.9273-23.2155.9273-1.6875,0-6.1758-3.6786-6.1758-3.6786s4.4883,0,25.3879-.7861m-128.1443,2.476c2.8454-2.7914,6.7782-3.9116,7.0654-2.7914.53.3154,1.125,4.78.53,5.5521-.53,1.6875-3.6457,1.6875-3.6457,1.6875-2.2688-1.6875-6.7712-1.6875-3.9492-4.4482m-60.9573-10.6428a2.6649,2.6649,0,0,1,3.37,2.5136c.5484.3153,2.822,5.6532,2.822,5.6532s-1.4028,5.2367-4.2482,0c-3.3562-5.6532-4.187-7.0489-1.9441-8.1668m-138.3493-2.8008s-14.66,0-18.4-2.7913c-3.9116-2.7913-14.87-6.47-14.87-6.47l-8.5293-4.7613s2.2524-2.25,14.9616.8355c12.1773,3.1538,14.4061,4.8437,17.84,5.3191,3.3232,1.1838,13.5565,4.5141,16.0419,4.5141,2.836,0-7.0442,3.3538-7.0442,3.3538m93.7023,28.8123c-1.7087.6-6.7383,0-7.8962-2.483-1.3721-1.9487,4.0034-3.8857,4.0034-3.8857s8.7058,3.8857,10.1179,3.8857c1.6805,0-4.234,2.483-6.2251,2.483m35.021,3.9728c-1.6969.2778-7.3408-4.4976-11.7984-4.4976-4.5871,0-2.0123-2.7984-2.0123-2.7984a72.4773,72.4773,0,0,1,10.1015.84c6.0015,0,6.8112,2.483,6.8112,2.483s-1.69,3.41-3.102,3.9728m20.8855,1.3957c-1.125,1.704-7.0725,2.2594-8.4823,2.2594-2.4994,0-2.2453-4.773-2.2453-4.773,9.0612-1.1815,11.26-1.1815,11.26-.5578.5954.5578,0,1.9535-.5319,3.0714m21.455,4.7754a72.9278,72.9278,0,0,1-7.92-.6049l-2.2359-1.9111c6.7547-3.3773,5.63-3.3773,8.7458-3.1326,2.5113,1.49,3.1067,2.5772,3.1067,3.1326.532.5343.532,2.516-1.6969,2.516m1.6969-10.6687c-6.2228-.5625-33.3405-6.4064-38.4383-6.4064-5.3049,0-38.0594-2.7937-42.3288-3.9893-4.4906,0-16.6067-6.1381-30.4645-7.24-12.9634-2.5159-30.4315-3.38-33.8724-3.9116-3.1162-.5413-14.1285-5.6156-14.1285-5.6156s51.9878,5.6156,61.8587,7.0113c9.8637,1.3957,14.4226,0,26.221,2.8313,11.2971,2.476,32.2132,8.9459,39.8246,8.9459,7.59,0,21.1726,1.0944,25.1054,1.9676,3.9634.5625,18.0919,4.4482,18.0919,4.4482s-5.66,3.5633-11.8691,1.9582m21.7022-3.3538s1.4334-.5531,11.0147-1.1321c10.2168-.5413,5.1119,2.5277,5.1119,2.5277s-11.2829,1.9582-12.4338,3.5633c-2.2594,2.33-3.6928-4.9589-3.6928-4.9589m19.8053,15.1075c-1.6734,0-10.5111,1.398-10.5111,1.398s-4.1893-.4966-2.77-1.398c.5884-1.085,2.77-1.9205,5.7145-1.9205,0,0,9.2636,1.9205,7.5667,1.9205m1.4262-27.6779s.2707.5084.5719.5084c2.5207,0,8.4046-.5084,19.72-1.118,29.6455-1.6969,36.9792-2.2217,43.5174-1.1015,5.02.3154,12.6268,2.7914,14.6226,3.3445a.5324.5324,0,0,1,.6025.5083l-.6025-.5083c-.5554,0-2.7772-.5531-7.5949,1.4356-7.0277,2.46-4.7966,3.6551-4.7966,3.6551h35.567c16.3644,0,26.5694,1.3345,28.7747,1.92,2.29.579,13.5494,2.7937.9085,1.6663-12.7093-.7931-28.01.5861-37.0169.5861-9.6425,0-25.4443.5413-28.2333.5413-2.81,0-14.4061-7.5973-20.9161-7.7809-6.757-.5884-19.6969.1836-22.5588,1.8711-3.4315,1.1956-13.59-1.6875-15.2841-1.6875-.5342,0-5.6014-2.2076-6.71-3.3326-4.5824.5719-.5719-.5084-.5719-.5084m18.5861,30.2856c-3.3844,0-6.2064-.586-7.9033-.586-1.365,0,0-2.5442,0-2.5442,9.0754.5225,15.284,1.4239,16.442,1.4239,2.1817.4966-5.0978,1.7063-8.5387,1.7063m113.2463-3.13c-20.6761,3.13-24.2558-.5625-31.9143-1.398-7.3737-1.68-16.6985-2.2359-32.46-.5625-16.08,1.398-20.6149,2.483-22.8955.5625-2.8619-1.68-.5413-3.94-11.8549-3.94-11.297-.2777-18.5931-1.1179-18.5931-1.1179l-7.3666-3.17s37.2733-3.5633,53.0751-1.6051c15.8324,1.6051,7.635,2.8219,27.1225,3.9351,19.4592.84,14.6626.5625,31.027.5625s19.9887-1.1179,26.4987-.5625a49.1934,49.1934,0,0,1,15.8183,3.6622c2.86.5554-7.8962.5554-28.4569,3.6339m15.5005-17.9318,34.1949-6.1546a31.6264,31.6264,0,0,0-.6237-5.9c-.7861-3.9023,2.8761-1.3957,12.1773,1.12,8.7388,1.1015,16.9739,2.7914,19.7511,2.22,2.8078-1.118,3.3939-1.3792,5.0978-4.5189,1.69-2.1535-.5789-3.5468,14.6227-3.0384,14.39,0,26.0116-.5084,28.28-1.3957,1.6969-.6237,2.2359,2.8219,2.2359,2.8219s-1.9511,1.3957-12.7163,4.227c-11.3136,3.0291-7.296,4.1635,1.4168,4.1635,9.0636,0,19.7747-.6261,21.5187-.6261,1.0779,0,0,3.3868,5.8909-.5083,5.9075-3.3445.5343-4.4647,9.932-4.4647H1644.22s-6.4535,3.9116-11.8149,4.4647c-5.5991.5083-12.4315.5083-12.4315.5083s-17.4682,3.3868-19.7676,3.3868c-2.8219,0-10.7416,1.1956-12.9563,0-1.6875,0-8.181,1.1956-16.6656-1.0638-8.2445-2.323-9.3154-5.86-9.3154-5.86s-1.4121,3.5374-3.4268,5.2367c-.539,1.6875-3.9069,2.8831-8.9977,2.8831-6.7876,0-41.2085,1.92-43.4749,1.92-1.9488,0-23.7216.579-23.7216.579m260.8264-10.9347c-13.5048,4.4789-18.0613,5.3685-21.17,5.3685s-7.3337,3.8928-19.737,4.4012c-12.1373.586-20.6289,0-29.6078.586-8.8611.8732-15.2746,2.2524-32.2673,6.4394-16.2655,3.6621-21.6857,4.7753-23.0978,5.3378-.84,0,.5413.2778-14.0885-1.1179-14.4532-1.7746-31.9213-.5578-37.2968.5554-5.6745.84-12.4621,1.9582-16.3644,2.5748-3.4008.4637-14.6909,1.6428-20.916,1.6428-6.1993,0-8.181-2.2594-12.0856-2.2594-3.4315,0-11.0123.6166-11.0123.6166s2.8054-2.5748,24.1852-3.688c21.5257-1.2168,39.015-3.3844,39.015-3.3844s16.6373,0,20.0217-2.7913c3.448-3.0526,11.8831-3.0526,17.23-3.0526,5.7121,0,16.68,1.92,29.9067.5625,13.0317-.8567,29.476-3.3562,34.435-6.2393,5.1049-1.0732,10.7817-2.7607,13.8813-2.2076,2.53,1.1344-.8308,3.8951,15.5547,1.4356,14.91-3.069,13.5118.772,27.612-3.94a217.7529,217.7529,0,0,1,28.2239-7.5738s1.165,1.711-12.4221,6.7335m293.91-91.3511c-3.109,1.118-7.5832,7.0113-18.9132,10.1651-11.8525,3.0525-21.7234,5.8439-31.3259,8.6352a97.7691,97.7691,0,0,0-21.74,8.4c-3.37,2.2665-4.5354,6.703-10.7817,4.7825-6.1781-2.516-6.7477-1.398-7.3031,0-1.1015,1.4121,2.3206,3.1-.6,4.7424-2.4924,2.2829.6,3.7092-9.619,2.8219-9.7861-1.6734-18.0071.2707-19.1321,2.7466-1.1579,1.4969-2.8242,3.6951-4.2505,4.4647-1.4192.5555-1.9582,1.1792-9.0141,1.1792-6.8277,0-15.5194,4.1893-17.84,6.4558-1.65,2.1982-2.1818,3.3467-9.6026,4.4506-7.835,1.1626-2.8054,3.7068-22.0175,3.7068-19.6734,0-20.3,1.3674-21.9941,2.8243-2.2,1.3015-.2565,3.6645-4.5258,5.2908-3.7116,1.0638-14.1-1.1321-14.1-1.1321s-2.0053,2.822-3.0832,2.822c-2.0358.4754-7.296,2.7607-9.9344,2.7607-1.9511,0-10.3886,2.7913-12.6245,3.3773-2.8925.7861-15.8394,3.6481-15.8394,3.6481a7.1765,7.1765,0,0,1,2.2594-1.4428c5.6744-3.3538,21.73-13.187,35.2728-15.9477,15.8653-3.3468,26.2469-6.7641,44.1151-10.6663,17.414-3.9423,19.6664,1.9675,37.1722-6.7712,18.0847-8.3058,20.9373-6.3711,30.54-11.13,10.7134-5.3967,2.5065-7.8656,18.0377-7.8656,15.7735,0,13.2811-1.118,21.98-5.6133,9.0635-4.5282,7.9221-3.9045,20.3371-9.4872,12.4174-4.5023,23.7616-6.717,29.3936-9.2777,6.2205-1.92,1.125,4.2176,16.6091-5.5827,15.5335-8.4234,11.6384-.5554,8.5246,1.6428" transform="translate(-187.3348 -46)" fill="#fff"/><path d="M340.5963,584.6007h28.2663V364.7734H340.5963v-6.7948h123.64c60.9948,0,89.5647,21.3492,89.5647,62.553,0,39.1938-40.992,65.1983-94.0906,65.1983-14.0979,0-26.4917,0-37.2193-1.3956V584.6007h35.0375v5.2908H340.5963v-5.2908Zm81.8945-105.8514c4.1894,1.1344,10.1274,1.1344,14.63,1.1344,41.538,0,58.2506-19.0262,58.2506-57.4481,0-42.5547-6.8324-57.6622-44.0963-57.6622H422.4908V478.7493Z" transform="translate(-187.3348 -46)" fill="#fff"/><path d="M796.5,353.86c70.8893,0,118.8525,55.9536,118.8525,120.6435,1.7346,61.9411-52.435,121.0154-118.8525,121.0154-66.2833,0-120.7871-59.0743-119.13-121.0154,0-64.69,48.2857-120.6435,119.13-120.6435m56.1913,120.6435c0-104.14-27.1248-115.3762-56.1913-115.3762-28.44,0-56.1818,11.2359-56.1818,115.3762,0,83.7986,12.4621,115.3881,56.1818,115.3881,43.7669,0,56.1913-31.5895,56.1913-115.3881" transform="translate(-187.3348 -46)" fill="#fff"/><path d="M1083.3472,584.6007h32.152V364.7592h-14.352c-44.9412,0-56.4925,29.3584-61.282,65.5444h-6.4393V358.0022h218.4457v72.3014h-6.2251c-5.6439-36.186-16.6091-65.5444-62.0964-65.5444h-13.8436V584.6007h32.4673v5.3072H1083.3472v-5.3072Z" transform="translate(-187.3348 -46)" fill="#fff"/><path d="M1415.5924,503.36h6.2087c8.4916,37.304,35.0045,86.5475,81.6262,86.5475,29.8855,0,49.9449-17.8941,49.9449-46.2051,0-71.6824-138.3117-21.2785-138.3117-119.815,0-44.0069,30.41-70.0138,75.6576-70.0138,35.5222,0,46.8123,16.9763,62.0351,16.9763,10.7511,0,11.6313-8.6306,11.6313-13.3753h5.8674v74.702h-5.8674c-8.7929-34.9739-28.25-73.05-71.9789-73.05-26.2587,0-46.3487,16.2278-46.3487,42.0157,0,63.5556,140.6229,13.1894,140.6229,111.4341,0,51.27-30.2174,82.9418-79.6586,82.9418-29.6078,0-58.1189-17.12-72.24-17.12-9.61,0-12.98,6.2017-12.98,11.5089h-6.2087V503.36Z" transform="translate(-187.3348 -46)" fill="#fff"/><path d="M1728.3359,584.6007h28.25V364.7592h-28.25v-6.757h119.6927c72.88,0,123.3784,45.4237,123.3784,118.1723,0,40.9355-26.7765,113.7334-121.0248,113.7334H1728.3359v-5.3072Zm82.5065,0h28.7252c67.7919,0,73.4287-53.7554,73.4287-111.2176,0-63.57-5.6368-108.6239-68.9-108.6239h-33.2534V584.6007Z" transform="translate(-187.3348 -46)" fill="#fff"/><path d="M2075.6062,584.6007h4.513c13.0093,0,19.1956-8.1763,23.3979-19.6523L2183.9618,353.86h5.1284l93.14,230.7408h17.5223v7.063H2195.8779v-7.063h27.6237l-25.1254-68.1144h-67.459L2114.0128,562.75a31.3987,31.3987,0,0,0-2.3053,10.05c0,10.1109,10.2168,11.8008,16.9821,11.8008h9.5613v7.063h-62.6447v-7.063ZM2195.2836,510.64l-29.9467-82.6335h-.5013L2134.0334,510.64Z" transform="translate(-187.3348 -46)" fill="#fff"/><path d="M2426.4857,584.6007h1.4662c23.1049,0,26.4917-14.5756,26.4917-29.1065V364.7592h-26.4917v-6.757h89.4365L2574.7377,517.11h1.0791L2633.68,358.0022h83.8386v6.757h-25.9739V584.6007h25.9739v5.3072H2607.4357v-5.3072h29.9455V370.3631h-.6225l-80.946,219.5448h-9.3566L2463.759,365.8442h-.8567V553.1971c0,26.3528,7.0654,31.4036,26,31.4036h4.4647v5.3072h-66.8811v-5.3072Z" transform="translate(-187.3348 -46)" fill="#fff"/></svg>