<svg id="abenteuer" xmlns="http://www.w3.org/2000/svg" xmlns:xlink="http://www.w3.org/1999/xlink" viewBox="0 0 200 200"><defs><clipPath id="clip-path" transform="translate(0 0)"><rect id="path" width="200" height="200" fill="none"/></clipPath></defs><title>map-abenteuer</title><g id="abenteuer-2" data-name="abenteuer"><g clip-path="url(#clip-path)"><rect id="square" width="200" height="200" fill="#89a7b6"/><path id="footprints" d="M65.861,0c.1862,1.0583.3583,2.1456.5027,3.2839a2.4726,2.4726,0,0,1-1.8223,2.703l-9.786,2.5788a2.4717,2.4717,0,0,1-1.972-.3144L44.5453,2.9255A2.4681,2.4681,0,0,1,43.5667,0h-9.386l1.4126.7007a1.4307,1.4307,0,0,1,.695,1.81q-.4973,1.25-.9386,2.49a1.43,1.43,0,0,1-1.6313.9192L16.5034,2.4408A1.4315,1.4315,0,0,1,15.4249.5932c.0641-.1954.1409-.3969.2066-.5932H0V200H95.9986q.0671-2.3937.3034-4.8236a1.6531,1.6531,0,0,1,1.7231-1.49l13.6193.6363a1.6535,1.6535,0,0,1,1.401.9107l1.2266,2.4466a1.6542,1.6542,0,0,1-.0643,1.5984L113.77,200h5.0056a3.1345,3.1345,0,0,1,3.7118-1.9083L129.8042,200h17.8079a1.6534,1.6534,0,0,1-.1724-.4079l-.7128-2.6271a1.6533,1.6533,0,0,1,.38-1.5538l1.855-2.0122a1.6533,1.6533,0,0,1,1.5981-.4878l11.6582,2.7712a1.6557,1.6557,0,0,1,1.2194,2.02c-.1964.7759-.4246,1.5314-.6366,2.2977H200V0Zm6.26,3.0771L90.6755,1.238a.8188.8188,0,0,1,.8938.7229c.3239,2.8219.5439,5.6744.6739,8.5169a.8187.8187,0,0,1-.95.8465L72.42,8.2355a.8193.8193,0,0,1-.6834-.7435l-.0005-.0065q-.1464-1.7933-.3471-3.499A.8175.8175,0,0,1,72.1208,3.0771ZM39.4048,14.8776q.5478-2.6988,1.1882-5.2359a2.5141,2.5141,0,0,1,3.8024-1.5L52,13.058a2.5139,2.5139,0,0,0,2.0048.32l9.8981-2.6085a2.5142,2.5142,0,0,1,3.1532,2.3845q.0508,2.5317-.0139,5.1968a2.5114,2.5114,0,0,1-1.8721,2.364L52.2644,24.1155a2.5135,2.5135,0,0,1-2.0048-.32l-9.7561-6.307A2.5144,2.5144,0,0,1,39.4048,14.8776Zm26.08,80.1555,1.5662-3.4218a1.6536,1.6536,0,0,1,1.3787-.9607l13.4184-1.0168a1.6556,1.6556,0,0,1,1.74,1.2934c.4821,2.1612.9054,4.37,1.2606,6.6085A1.6544,1.6544,0,0,1,83.34,99.444l-14.1625,1.073a1.6529,1.6529,0,0,1-1.5076-.7419l-2.0641-3.1467A1.6542,1.6542,0,0,1,65.4851,95.0331ZM63.5818,84.7864a1.654,1.654,0,0,1-.1207-1.5952l1.5661-3.4218a1.6535,1.6535,0,0,1,1.3787-.9607l13.4184-1.0168a1.6559,1.6559,0,0,1,1.74,1.2934c.482,2.1612.9053,4.37,1.26,6.6085a1.6544,1.6544,0,0,1-1.5089,1.9083l-14.1626,1.073a1.6531,1.6531,0,0,1-1.5075-.7418ZM84.67,60.1941c-.9851,2.1321-1.9676,4.03-2.8736,5.8255a1.6462,1.6462,0,0,1-2.0771.7879L63.8719,60.5182a1.6478,1.6478,0,0,1-.8679-2.2624q.3375-.6829.6736-1.3472a1.6469,1.6469,0,0,1,1.6393-.8974L83.3434,57.866A1.647,1.647,0,0,1,84.67,60.1941ZM45.9066,97.6869l12.6652-1.12A3.2178,3.2178,0,0,1,62.07,99.6259l.464,10.171a3.1431,3.1431,0,0,1-2.868,3.2746L47.713,114.11a3.1433,3.1433,0,0,1-3.3883-2.7216L43,101.3118A3.2178,3.2178,0,0,1,45.9066,97.6869ZM42.8244,83.3162a4.3043,4.3043,0,0,1-2.3829-3.3087l-1.0233-7.7812a3.2006,3.2006,0,0,1,.2542-1.7376,2.4975,2.4975,0,0,1,3.8769-.8641l4.4435,3.7135a1.9563,1.9563,0,0,0,2.8152-.3216l3.1205-4.13a2.5,2.5,0,0,1,4.221.3547,3.2056,3.2056,0,0,1,.3386,1.2989l.3672,8.05a4.3041,4.3041,0,0,1-1.5268,3.4884l-4.7153,3.972a3.0739,3.0739,0,0,1-3.3265.4126Zm5.694,34.7907,11.0749-.9618a3.1433,3.1433,0,0,1,3.4119,2.9882l.2724,5.9713-.019.0017c.16,3.9416-3.3154,7.3371-7.774,7.7311s-8.4757-2.3387-9.01-6.2471l-.0191.0016-.7817-5.9438A3.1432,3.1432,0,0,1,48.5184,118.1069ZM37.602,26.4426q.0854-.7666.1785-1.526a2.2679,2.2679,0,0,1,3.4829-1.6236l8.3189,5.3779a2.2688,2.2688,0,0,0,1.81.2885l12.1944-3.2136a2.27,2.27,0,0,1,2.8353,2.4249q-.0732.7286-.1549,1.4624-.3,2.7007-.6969,5.3068a2.2647,2.2647,0,0,1-1.664,1.8475L50.4249,40.34a2.2683,2.2683,0,0,1-1.81-.2886l-10.43-6.7424a2.2659,2.2659,0,0,1-1.0312-2.0719Q37.333,28.87,37.602,26.4426ZM40.97,40.4219l6.7187,4.3435a2.6957,2.6957,0,0,0,2.1508.343l10.3277-2.7217a2.6965,2.6965,0,0,1,3.3078,3.2438,91.7474,91.7474,0,0,1-3.32,10.8383,2.69,2.69,0,0,1-1.83,1.64L50.51,60.1684a2.6965,2.6965,0,0,1-2.1511-.3429l-9.7874-6.3273a2.6942,2.6942,0,0,1-1.2161-1.9651c-.3039-2.7435-.489-5.6913-.5461-8.7963A2.6971,2.6971,0,0,1,40.97,40.4219ZM36.0119,85.5988a1.6534,1.6534,0,0,1,.1143,1.5954l-1.5807,3.4152a1.6535,1.6535,0,0,1-1.3827.955l-12.3913.8864A1.6548,1.6548,0,0,1,19,90.825c-.0377-2.2279-.0129-4.4654.0728-6.7a1.6527,1.6527,0,0,1,1.5348-1.5828l11.8492-.8477a1.6538,1.6538,0,0,1,1.5045.7483ZM11.6962,15.3561c.3235-1.7712.7306-3.7634,1.24-5.9119a2.0011,2.0011,0,0,1,2.6022-1.43l15.4753,5.366a2,2,0,0,1,1.2984,2.3183q-.18.8243-.3357,1.5982A2.0012,2.0012,0,0,1,29.87,18.9L13.5192,17.7079A2,2,0,0,1,11.6962,15.3561Zm-1.59,10.5165a1.7446,1.7446,0,0,1,2.1263-1.42l16.4088,3.9144a1.74,1.74,0,0,1,1.3276,1.887q-.12,1.0448-.1638,2.1472a1.74,1.74,0,0,1-1.6944,1.6633l-16.8132.4513a1.7444,1.7444,0,0,1-1.79-1.7777A48.6647,48.6647,0,0,1,10.1066,25.8726Zm1.2089,24.6183c-.5477-2.9117-1.0067-5.77-1.3264-8.5774a1.0282,1.0282,0,0,1,1.1582-1.1329l18.7516,2.4879a1.0274,1.0274,0,0,1,.8791.8488q.2972,1.7788.6616,3.6364a1.0294,1.0294,0,0,1-.8769,1.2185L12.46,51.3228A1.03,1.03,0,0,1,11.3155,50.4909Zm3.6628,16.8626c-.4929-2.1866-.9884-4.3439-1.469-6.4731a1.8744,1.8744,0,0,1,1.8822-2.2865l17.0616.4881a1.8744,1.8744,0,0,1,1.7745,1.46l.4927,2.1791a1.8744,1.8744,0,0,1-1.3965,2.2374L17.2387,68.7662A1.8748,1.8748,0,0,1,14.9783,67.3535ZM19.015,95.957A1.6526,1.6526,0,0,1,20.55,94.3743l11.8491-.8477a1.6535,1.6535,0,0,1,1.5045.7482l2.0506,3.1557a1.6531,1.6531,0,0,1,.1143,1.5954l-1.5806,3.4153a1.6537,1.6537,0,0,1-1.3827.9549l-12.3913.8864a1.6548,1.6548,0,0,1-1.7716-1.6258C18.9045,100.4288,18.9293,98.1913,19.015,95.957Zm.7662,18.76q-.2989-2.3876-.4926-4.8236a1.6556,1.6556,0,0,1,1.5409-1.7868l11.9579-.7769a1.6536,1.6536,0,0,1,1.4937.749l1.4912,2.2948a1.6533,1.6533,0,0,1,.1141,1.5955l-1.1433,2.47a1.6531,1.6531,0,0,1-1.3935.9556l-11.82.7681A1.6547,1.6547,0,0,1,19.7812,114.7172Zm2.6375,13.2593q-.6548-2.314-1.1839-4.7347a1.6552,1.6552,0,0,1,1.1758-1.9511l11.134-3.0678a1.6538,1.6538,0,0,1,1.6146.4309l1.9252,1.9453a1.6535,1.6535,0,0,1,.435,1.5393l-.6193,2.65a1.6531,1.6531,0,0,1-1.1709,1.2182l-11.2813,3.1084A1.6519,1.6519,0,0,1,22.4187,127.9765ZM26.42,138.6q-.954-1.944-1.7829-4.0361a1.6559,1.6559,0,0,1,1.013-2.1851l10.5081-3.4954a1.6531,1.6531,0,0,1,1.5514.2751l1.4115,1.1226a1.6543,1.6543,0,0,1,.615,1.4676l-.1841,1.7432a1.6529,1.6529,0,0,1-.9605,1.3321L28.5849,139.37A1.6508,1.6508,0,0,1,26.42,138.6Zm6.89,10.1352a34.1522,34.1522,0,0,1-2.5915-3.0562,1.6567,1.6567,0,0,1,.366-2.3556l9.0886-6.3778a1.6541,1.6541,0,0,1,1.42-.2315l1.2636.3748a1.6535,1.6535,0,0,1,1.1688,1.3667l.1684,1.2635a1.6543,1.6543,0,0,1-.4989,1.4161L35.65,148.7949A1.6566,1.6566,0,0,1,33.31,148.7355Zm16.5033-6.9729-2.4364,12.97a1.6506,1.6506,0,0,1-2.0371,1.2966,24.0112,24.0112,0,0,1-3.3558-1.1565,1.6545,1.6545,0,0,1-.8475-2.2185L46.68,140.7482a1.6537,1.6537,0,0,1,2.7988-.3244l.0085.011A1.654,1.654,0,0,1,49.8132,141.7626ZM57.05,156.4283a32.2608,32.2608,0,0,1-3.6369.3967,1.6512,1.6512,0,0,1-1.72-1.8017l1.2561-13.8345a1.6535,1.6535,0,0,1,2.5239-1.2523l.0117.0072a1.6546,1.6546,0,0,1,.7557,1.1392l2.1648,13.4524A1.651,1.651,0,0,1,57.05,156.4283Zm11.9988-4.3408a30.3821,30.3821,0,0,1-3.1866,1.69,1.6552,1.6552,0,0,1-2.2407-.9264L58.8621,140.055a1.6536,1.6536,0,0,1,1.7354-2.22l.0136.0014a1.6545,1.6545,0,0,1,1.1738.7011l7.7612,11.1954A1.6537,1.6537,0,0,1,69.0488,152.0875ZM79.5065,141.345a33.8661,33.8661,0,0,1-2.393,3.5172,1.6519,1.6519,0,0,1-2.2544.3315L64.6766,138.02a1.6545,1.6545,0,0,1-.7011-1.3277l-.0184-1.2744a1.6534,1.6534,0,0,1,.9558-1.5233l1.1949-.5562a1.6541,1.6541,0,0,1,1.439.0212l11.2821,5.6579A1.6559,1.6559,0,0,1,79.5065,141.345Zm4.6178-11.4338q-.5736,2.2374-1.33,4.3649a1.6558,1.6558,0,0,1-2.0153,1.0379l-11.6705-3.3474a1.6539,1.6539,0,0,1-1.1453-1.1769l-.4374-1.6975a1.6526,1.6526,0,0,1,.3932-1.5417l1.2318-1.3178a1.653,1.653,0,0,1,1.4942-.4994l12.1637,2.139A1.6538,1.6538,0,0,1,84.1243,129.9112Zm1.2545-6.3751a1.652,1.652,0,0,1-1.8376,1.4032l-13.6464-1.6707a1.6535,1.6535,0,0,1-1.3368-1.0334l-1.001-2.5314a1.6541,1.6541,0,0,1,.2047-1.5865l1.62-2.2062a1.6534,1.6534,0,0,1,1.5339-.6629l13.533,1.6568a1.6531,1.6531,0,0,1,1.4489,1.7577Q85.72,121.129,85.3788,123.5361Zm-.8564-12.2524-13.8286,1.139a1.654,1.654,0,0,1-1.5184-.741l-1.493-2.2762a1.6543,1.6543,0,0,1-.1209-1.5952l1.139-2.4887a1.6536,1.6536,0,0,1,1.3678-.96l13.8838-1.1433a1.6542,1.6542,0,0,1,1.7837,1.5039q.2127,2.4224.3038,4.85A1.6547,1.6547,0,0,1,84.5224,111.2837Zm5.0782-66.3066-1.6524,6.3687a1.8038,1.8038,0,0,1-2.4273,1.2171L69.4257,45.9965a.971.971,0,0,1-.5649-1.1741c.3454-1.1691.6684-2.4221.9649-3.7839a.7372.7372,0,0,1,.8126-.5758l17.4019,2.21A1.8534,1.8534,0,0,1,89.6006,44.9771Zm1.5277-8.3763a1.7684,1.7684,0,0,1-2.3051,1.4476L72.5868,32.7241a1.7707,1.7707,0,0,1-1.2079-1.8678q.0963-.92.1823-1.8761a1.7689,1.7689,0,0,1,1.86-1.6072l16.7328.9357a1.77,1.77,0,0,1,1.6642,1.9177C91.6276,32.44,91.3944,34.5734,91.1283,36.6008Zm1.1632-14.1266a1.7832,1.7832,0,0,1-2.2508,1.6583L73.416,19.5953a1.7847,1.7847,0,0,1-1.313-1.7367q.0068-.8661.001-1.7409a1.7821,1.7821,0,0,1,1.7913-1.794l16.72.09a1.7841,1.7841,0,0,1,1.7727,1.7774C92.4,18.3127,92.3655,20.4127,92.2915,22.4742ZM184.21,83.3488c.5674,2.4644,1.0154,4.897,1.3675,7.2493a1.4314,1.4314,0,0,1-1.3731,1.6405l-17.5547.5431a1.43,1.43,0,0,1-1.4541-1.18q-.2277-1.2953-.5076-2.6125a1.4309,1.4309,0,0,1,.9887-1.6677l16.724-5.026A1.4339,1.4339,0,0,1,184.21,83.3488Zm-4.8672-14.4521a65.5052,65.5052,0,0,1,2.48,6.1226,1.7067,1.7067,0,0,1-1.5279,2.2659l-17.8357.877a1.7079,1.7079,0,0,1-1.6246-.9726q-.3836-.804-.7908-1.5628a1.7037,1.7037,0,0,1,.986-2.4247l16.2467-5.207A1.706,1.706,0,0,1,179.3428,68.8967Zm-9.32-13.7309a44.2262,44.2262,0,0,1,4.4521,5.321,1.6053,1.6053,0,0,1-.7031,2.4149L157.2457,69.671a1.6031,1.6031,0,0,1-1.7466-.3526q-.6954-.7024-1.4357-1.3183a1.6069,1.6069,0,0,1,.0535-2.5156L167.9017,55.01A1.609,1.609,0,0,1,170.0229,55.1658ZM146.24,123.9311a2.2682,2.2682,0,0,1-1.8327-.019l-12.6944-5.7633a2.2645,2.2645,0,0,1-1.3306-2.1q.0476-2.6328.2029-5.3485.0427-.7369.0927-1.4677a2.27,2.27,0,0,1,3.2017-1.9149l11.4829,5.2131a2.2686,2.2686,0,0,0,1.8325.0192l9.103-3.9067a2.2679,2.2679,0,0,1,3.1613,2.1849q-.0356.7641-.08,1.5342-.1407,2.4365-.3628,4.8017a2.2657,2.2657,0,0,1-1.364,1.87Zm11.1878,4.6272c-.5769,3.0515-1.2539,5.9265-2.0136,8.58a2.6939,2.6939,0,0,1-1.5284,1.7333l-10.71,4.5962a2.6964,2.6964,0,0,1-2.1781-.0227l-7.3586-3.3407a2.69,2.69,0,0,1-1.5289-1.924,91.7563,91.7563,0,0,1-1.4555-11.2416,2.6965,2.6965,0,0,1,3.805-2.6431l9.7249,4.4152a2.6964,2.6964,0,0,0,2.1779.0227l7.352-3.1552A2.697,2.697,0,0,1,157.4277,128.5583Zm.5927-25.51L147.3448,107.63a2.5125,2.5125,0,0,1-2.03-.0211l-12.1526-5.5174a2.5113,2.5113,0,0,1-1.4492-2.6444q.3818-2.6344.8579-5.1256A2.514,2.514,0,0,1,136.0792,92.5L145.4,96.7311a2.5137,2.5137,0,0,0,2.03.0212l8.3217-3.5714a2.5141,2.5141,0,0,1,3.497,2.1166q.2045,2.6045.2932,5.361A2.5145,2.5145,0,0,1,158.02,103.0485ZM145.3629,81.9033a2.4722,2.4722,0,0,0,1.9969.0207l6.2119-2.6658a2.4715,2.4715,0,0,1,3.3635,1.634c.3673,1.38.7005,2.8461.9974,4.39a2.4686,2.4686,0,0,1-1.4542,2.7313l-9.0147,3.8688a2.471,2.471,0,0,1-1.9967-.0208l-9.2149-4.1835a2.4726,2.4726,0,0,1-1.3432-2.97q.6438-2.1207,1.357-4.0289a2.4734,2.4734,0,0,1,3.3393-1.39Zm-4.5322-10.1566c2.1051-2.8449,4.3835-4.3827,6.693-4.2493,2.0577.1187,3.938,1.5523,5.5711,4.0333a2.4141,2.4141,0,0,1-1.0757,3.5385l-4.63,1.9871a2.4186,2.4186,0,0,1-1.9537-.02l-3.6524-1.6583A2.4157,2.4157,0,0,1,140.8307,71.7467ZM158.0632,46.794a39.5436,39.5436,0,0,1,5.9386,3.3323,1.36,1.36,0,0,1,.2145,2.0674L151.69,65.1865a1.3646,1.3646,0,0,1-1.5779.2759l-.0268-.0129a1.3618,1.3618,0,0,1-.6719-1.7568l6.834-16.1906A1.36,1.36,0,0,1,158.0632,46.794ZM143.0807,43.41a25.7023,25.7023,0,0,1,7.8133.893c.885.2088.93.8221.8935,1.422l-3.98,18.291a.4328.4328,0,0,1-.5532.32,17.319,17.319,0,0,0-1.686-.4447.4317.4317,0,0,1-.3391-.3573l-2.95-19.1911C142.1221,43.649,142.821,43.4192,143.0807,43.41Zm-13.559,4.2228a25.3819,25.3819,0,0,1,6.2808-3.061,1.2927,1.2927,0,0,1,1.6106.7868l6.0943,16.6688a1.2936,1.2936,0,0,1-.9716,1.7126l-.0216.0041a1.2818,1.2818,0,0,1-1.2149-.4185l-12.032-13.7677A1.2923,1.2923,0,0,1,129.5217,47.6331Zm-9.9941,10.4528a44.0442,44.0442,0,0,1,3.9263-5.1228,1.7928,1.7928,0,0,1,2.5618-.1107l12.1784,11.4307a1.789,1.789,0,0,1,.1337,2.4732c-.3348.3871-.69.8292-1.0619,1.3333a1.7893,1.7893,0,0,1-2.2858.5084L120.1771,60.65A1.7914,1.7914,0,0,1,119.5276,58.0859ZM112.291,72.9738a82.3415,82.3415,0,0,1,3.2135-7.7284,1.0245,1.0245,0,0,1,1.3216-.4989L133.65,71.8416a1.0254,1.0254,0,0,1,.5163,1.4061l-.0051.01q-.7242,1.4451-1.4031,3.0394a1.0255,1.0255,0,0,1-1.0841.6151l-18.5586-2.579A1.0243,1.0243,0,0,1,112.291,72.9738Zm-2.0088,6.2025a.8188.8188,0,0,1,1.0024-.5628l17.9835,4.9248a.8176.8176,0,0,1,.5686,1.0193q-.4838,1.6475-.929,3.3911l-.0016.0064a.82.82,0,0,1-.7986.6184l-19.1239-.12a.8186.8186,0,0,1-.7941-.9937C108.7944,84.679,109.49,81.9039,110.2822,79.1763Zm-1.2665,56.4928,18.0823,1.1947a1.6469,1.6469,0,0,1,1.4656,1.16q.2193.7114.4381,1.4411a1.6478,1.6478,0,0,1-1.235,2.0848l-16.678,3.5424a1.6461,1.6461,0,0,1-1.9155-1.1251c-.5921-1.9219-1.2424-3.9577-1.8559-6.2249A1.6469,1.6469,0,0,1,109.0157,135.6691Zm-3.446-7.2-.561-6.5556a1.8535,1.8535,0,0,1,1.9248-2.01l17.5261.74a.7372.7372,0,0,1,.7045.7039c.0639,1.3921.1722,2.6817.3166,3.8921a.9709.9709,0,0,1-.7538,1.0628l-16.9684,3.774A1.8037,1.8037,0,0,1,105.57,128.4689Zm.56-29.191c.2728-2.0448.5913-4.1207.9584-6.21a1.7841,1.7841,0,0,1,2.0456-1.4549l16.4986,2.715a1.7821,1.7821,0,0,1,1.465,2.069q-.1519.8613-.291,1.7165a1.7846,1.7846,0,0,1-1.5856,1.4919l-17.15,1.6848A1.7832,1.7832,0,0,1,106.13,99.2779ZM105.296,107a1.7694,1.7694,0,0,1,1.9622-1.6114l16.6528,1.8838a1.7689,1.7689,0,0,1,1.5645,1.8963q-.0754.9561-.135,1.88a1.77,1.77,0,0,1-1.504,1.6386l-16.8994,2.5259a1.7682,1.7682,0,0,1-2.03-1.8136C104.9852,111.3561,105.113,109.2137,105.296,107Zm-.4361,56.19c.7255-2.1468,1.5133-4.2538,2.3509-6.3035a1.656,1.656,0,0,1,1.9324-.9833l13.0578,3.2529a1.6535,1.6535,0,0,1,1.198,1.1782l.97,3.6361a1.6543,1.6543,0,0,1-.3866,1.5524l-2.5626,2.7561a1.6533,1.6533,0,0,1-1.6107.4784l-13.782-3.433A1.6543,1.6543,0,0,1,104.86,163.19Zm10.9513,25.9154-1.8535,1.9936a1.6542,1.6542,0,0,1-1.6213.4758l-13.4416-3.4421a1.6545,1.6545,0,0,1-1.2088-1.9409q.4947-2.3752,1.113-4.7307a1.654,1.654,0,0,1,2.01-1.1836l13.4954,3.4556a1.6535,1.6535,0,0,1,1.1875,1.1755l.7055,2.6444A1.6545,1.6545,0,0,1,115.8112,189.1051Zm4.19-12.2479-2.5627,2.7561a1.6529,1.6529,0,0,1-1.6106.4784l-13.782-3.4329a1.6544,1.6544,0,0,1-1.1674-2.1344c.7254-2.1468,1.5133-4.2538,2.3509-6.3035a1.6559,1.6559,0,0,1,1.9323-.9833l13.0579,3.2529a1.6534,1.6534,0,0,1,1.198,1.1783l.97,3.636A1.6543,1.6543,0,0,1,120.0012,176.8572Zm21.5006,8.4084-2.9962,9.7113a3.1433,3.1433,0,0,1-3.7968,2.1147L123.1,194.0637a3.1431,3.1431,0,0,1-2.2781-3.7092l2.1632-9.9492a3.2179,3.2179,0,0,1,3.9612-2.4287l12.2981,3.2279A3.2179,3.2179,0,0,1,141.5018,185.2656Zm3.1908-17.7113-6.8987,2.0192a3.0743,3.0743,0,0,1-3.21-.9647l-3.9823-4.7065a4.3044,4.3044,0,0,1-.92-3.6951l1.7121-7.8747a3.2085,3.2085,0,0,1,.5516-1.2237,2.5,2.5,0,0,1,4.2207.3583l2.3838,4.5944a1.9563,1.9563,0,0,0,2.7214.7892l5.0033-2.9157a2.4975,2.4975,0,0,1,3.6771,1.5021,3.201,3.201,0,0,1-.0407,1.7556l-2.3138,7.4994A4.3049,4.3049,0,0,1,144.6926,167.5543Zm21.3522,16.4548c-.29,2.217-.6411,4.427-1.0518,6.617a1.6548,1.6548,0,0,1-2.0191,1.3057l-12.0672-2.952a1.6534,1.6534,0,0,1-1.2029-1.1733l-.9855-3.632a1.6537,1.6537,0,0,1,.38-1.5537l2.5509-2.767a1.6534,1.6534,0,0,1,1.6086-.4853l11.5392,2.8228A1.6528,1.6528,0,0,1,166.0448,184.0091Zm1.9272-11.6738c-.29,2.2169-.641,4.427-1.0518,6.617a1.6548,1.6548,0,0,1-2.0191,1.3057l-12.0671-2.952a1.6538,1.6538,0,0,1-1.203-1.1733l-.9854-3.632a1.6532,1.6532,0,0,1,.38-1.5537l2.5508-2.7671a1.6538,1.6538,0,0,1,1.6087-.4853l11.5391,2.8229A1.6526,1.6526,0,0,1,167.972,172.3353Zm9.3832-21.9827c-.831,2.0186-1.6811,4.0622-2.5338,6.1351a1.875,1.875,0,0,1-2.4654,1.0136L157.1373,151.05a1.8745,1.8745,0,0,1-1.0015-2.44l.8512-2.0657a1.8743,1.8743,0,0,1,1.9943-1.142l16.9018,2.38A1.8743,1.8743,0,0,1,177.3552,150.3526Zm6.6512-18.1078c-.7861,2.7142-1.7178,5.4548-2.7461,8.2334a1.03,1.03,0,0,1-1.2676.6282L162.54,135.7531a1.0294,1.0294,0,0,1-.66-1.3484q.6682-1.77,1.262-3.4739a1.0275,1.0275,0,0,1,1.009-.6893l18.9033.6923A1.0281,1.0281,0,0,1,184.0064,132.2448ZM186.02,123.28a1.7446,1.7446,0,0,1-2.063,1.4524l-16.4993-3.2648a1.74,1.74,0,0,1-1.3915-1.9239q.1407-1.094.1987-2.1442a1.74,1.74,0,0,1,1.6252-1.6377l16.8329-1.107a1.7447,1.7447,0,0,1,1.858,1.7569A48.6844,48.6844,0,0,1,186.02,123.28Zm-1.434-15.49-16.3189-1.5674a2.0011,2.0011,0,0,1-1.8082-1.9331q-.0238-.7879-.0629-1.6319a2.0005,2.0005,0,0,1,1.6689-2.0677l16.156-2.6946a2.001,2.001,0,0,1,2.3255,1.8457c.1421,2.2035.2093,4.2359.2312,6.0362A2,2,0,0,1,184.5859,107.79Z" transform="translate(0 0)" fill="#d1e3e8"/></g></g></svg>