<svg id="kultur" xmlns="http://www.w3.org/2000/svg" xmlns:xlink="http://www.w3.org/1999/xlink" viewBox="0 0 200 200"><defs><clipPath id="clip-path"><rect id="path" width="200" height="200" fill="none"/></clipPath></defs><title>map-kultur</title><g id="kultur-2" data-name="kultur"><g clip-path="url(#clip-path)"><rect id="square" width="200" height="200" fill="#f3dda3"/><g id="camera"><path d="M118.9381,114.0416a44.3683,44.3683,0,0,1-21.4534,38.0133h57.9231V77.3618H99.5511A44.3447,44.3447,0,0,1,118.9381,114.0416Z" fill="#717272"/><path d="M30.1411,114.0416a44.3456,44.3456,0,0,1,19.3829-36.68H0v74.6931H51.5919A44.37,44.37,0,0,1,30.1411,114.0416Z" fill="#717272"/><path d="M155.4078,156.5291v-4.4742H97.4847a44.43,44.43,0,0,1-45.8928,0H0V172.38H139.5568A15.8977,15.8977,0,0,0,155.4078,156.5291Z" fill="#b4b5b5"/><path d="M140.3655,51.04h-9.401V42.5773H112.1507V51.04H102.28V27.0614H53.8527V51.04H35.9861V42.5773H2.6034V51.04H0V77.3618H49.524a44.395,44.395,0,0,1,50.0271,0h55.8567V66.0855A15.044,15.044,0,0,0,140.3655,51.04ZM62.1517,34.7241H93.5791V50.5533H62.1517ZM137.4048,68.599a3.9689,3.9689,0,0,1-3.9689,3.9689H118.1438a3.9689,3.9689,0,0,1-3.9689-3.9689V64.2333a3.9689,3.9689,0,0,1,3.9689-3.969h15.2921a3.9689,3.9689,0,0,1,3.9689,3.969Z" fill="#b4b5b5"/><path d="M84.4156,77.3618a37.9836,37.9836,0,1,0,28.1119,36.6809A38.0281,38.0281,0,0,0,84.4156,77.3618Zm8.0432,18.9558a4.0039,4.0039,0,1,1,4.0038-4.0038A4.0038,4.0038,0,0,1,92.4588,96.3176Z" fill="#717272"/><rect x="114.1749" y="60.2643" width="23.2299" height="12.3036" rx="3.9689" fill="#fff"/><path d="M99.5511,77.3618a44.3986,44.3986,0,1,0,19.387,36.68A44.1919,44.1919,0,0,0,99.5511,77.3618ZM74.5338,152.0237a37.9836,37.9836,0,1,1,37.9937-37.981A37.9793,37.9793,0,0,1,74.5338,152.0237Z" fill="#fff"/><circle cx="92.4588" cy="92.3138" r="4.0038" fill="#fff"/><rect x="62.1517" y="34.7241" width="31.4274" height="15.8292" fill="#fff"/></g></g></g></svg>