<svg id="natur" xmlns="http://www.w3.org/2000/svg" xmlns:xlink="http://www.w3.org/1999/xlink" viewBox="0 0 200 200"><defs><clipPath id="clip-path"><rect id="path" width="200" height="200" fill="none"/></clipPath></defs><title>map-natur</title><g id="natur-2" data-name="natur"><g clip-path="url(#clip-path)"><rect id="square" width="200" height="200" fill="#daeabb"/><g id="tree"><path d="M79.1819,197.8237c-1.051-4.5692-2.5987-19.9812-2.0525-26.7949.9329-7.3846,3.6462-10.9993,5.7147-19.9217,4.0687-7.2086,9.2327-13.727,12.7949-21.6015a55.4811,55.4811,0,0,0,4.38-12.6189,12.6513,12.6513,0,0,0-2.306-1.9915c-.0334.1033-.07.2142-.1041.32a1.3573,1.3573,0,0,1-.0755.2321c-2.7331,8.3877-8.4835,24.0916-13.56,24.7541A155.8691,155.8691,0,0,0,86.84,118.473a9.9887,9.9887,0,0,1-3.057,1.2135,13.1753,13.1753,0,0,0-2.2615,2.6413c-.57,14.5449-3.2871,32.8306-7.5539,32.9168-3.5329.0719-6.3606-15.4759-7.6216-28.1336a42.2206,42.2206,0,0,1-5.26-1.1558,6.253,6.253,0,0,1-3.6664-2.8875c.5718,4.4472,1.2088,9.1456,1.9863,12.5984A27.7918,27.7918,0,0,1,43.3637,123.397c-.25.1965-.5059.383-.7668.5545.1187.1771-.7946.7306-1.9616,1.0862,5.1245,8.022,15.5886,11.88,19.8866,15.6477,3.9583,17.9286,7.9456,38.7909,6.4262,53.7155-.1507,1.48-.3365,2.9229-.6014,4.2773-.0857.4345-.2088.8775-.3411,1.3218H80.0942c-.1886-.34-.3781-.6709-.564-1.0331A5.674,5.674,0,0,1,79.1819,197.8237Z" fill="#8d7859"/><path d="M4.0285,128.1661c9.5765,6.735,33.3561,7.2917,32.2949-4.444.5131,1.9224,2.6667,1.817,4.3119,1.3156,1.167-.3556,2.08-.9091,1.9616-1.0862.2609-.1715.5166-.358.7668-.5545a11.4846,11.4846,0,0,0,3.6243-4.7145c2.1685,2.8843,7.15,2.8843,9.0886.5288a10.5026,10.5026,0,0,0,1.3436,3.8564,6.253,6.253,0,0,0,3.6664,2.8875,42.2206,42.2206,0,0,0,5.26,1.1558c9.3274,1.398,13.0276-2.07,15.1755-4.7832a13.1753,13.1753,0,0,1,2.2615-2.6413,9.9887,9.9887,0,0,0,3.057-1.2135c3.6026-2.196,4.3757-6.042,5.2328-6.5093-1.0987,2.9,4.5134,5.5134,5.4608,3.4836a1.3573,1.3573,0,0,0,.0755-.2321,1.5569,1.5569,0,0,0,.0662-.3427c.0067.0032.023.0134.0379.0227a12.6513,12.6513,0,0,1,2.306,1.9915.9414.9414,0,0,1,.239.4931c0,9.6768,9.323,11.91,20.0636,7.7967,20.9847,10.3283,25.7263-5.4947,22.078-13.8641a13.6086,13.6086,0,0,0,.6707-1.3816,15.8512,15.8512,0,0,0,.8529-10.68c18.4358-11.3228,5.1982-38.3257-8.7522-35.5783a14.4984,14.4984,0,0,0-.2362-3.007,21.8536,21.8536,0,0,0-3.6123-7.9775C134.8328,42.36,133.3613,31.88,120.398,26.39c-7.5387-3.1878-16.4213.2255-18.9,6.3665-4.6493-.5783-8.8043.426-11.62,3.7615C88.6389,18.5394,64.935,8.7847,54.759,25.5623a16.5171,16.5171,0,0,0-11.9019,3.56c-3.217-1.9933-9.9849-1.3242-14.7356,1.3629a9.8563,9.8563,0,0,0-4.9027,5.4517,7.0239,7.0239,0,0,0,.22,4.518c-.1281.0485-.2584.1274-.4144.176A9.2674,9.2674,0,0,0,20.62,39.1862C13.7484,36.3123,3.7994,41.6036,0,48.6127v10.881c.0251.0394.0433.08.0691.1188A10.3464,10.3464,0,0,0,4.356,63.2708a18.3707,18.3707,0,0,0,.302,6.4926c.0313.1324.05.2726.0845.403-.0825.0148-.1523.0405-.2336.0563A13.2686,13.2686,0,0,0,0,71.9432v47.4649c.23.0173.4557.0489.69.0531C-.8232,122.9113.7933,125.8908,4.0285,128.1661Z" fill="#879663"/></g></g></g></svg>